<?xml version="1.0" encoding="utf-8"?>
<!-- Generator: Adobe Illustrator 24.0.0, SVG Export Plug-In . SVG Version: 6.00 Build 0)  -->
<svg version="1.1" id="Capa_1" xmlns="http://www.w3.org/2000/svg" xmlns:xlink="http://www.w3.org/1999/xlink" x="0px" y="0px"
	 viewBox="0 0 820.8 496.8" style="enable-background:new 0 0 820.8 496.8;" xml:space="preserve">
<style type="text/css">
	.st0{fill:#B2B2B8;}
	.st1{fill:#FFFFFF;}
</style>
<path class="st0" d="M148.6,352.8c0,0,19,20.6,59.6,0.5c42.1-18.2,76.4-56.4,76.4-56.4l36.3-41.4l41.8-59.8l12.8,74.5l5.6-92.5
	c0,0-3.1-24.9,13.8-22.4c13.7,3,9.9,23.7,9.9,23.7v161.6c0,0-1.2,46.6-53.4,46.6s-157.4,0-157.4,0S160.1,389.5,148.6,352.8z"/>
<path class="st1" d="M146.5,187.3l1.9,160.1c0,0,0.4,20.2,51.7-3.5c51.3-23.7,104.4-99.4,140.3-167l-78.9,15.4l96.3-43.9
	c0,0,7.4-3.5,6.9-13.4c0,0,0.8-8.2-13.6-8c-14.4,0.2-161-0.4-161-0.4S146.5,126.1,146.5,187.3z"/>
<g>
	<path class="st1" d="M468.1,231.8h19.6c4.2,0,7.7,3.5,7.7,7.7s-3.5,7.7-7.7,7.7h-28.3c-4.2,0-7.7-3.5-7.7-7.7v-56.7
		c0-4.2,3.5-7.7,7.7-7.7h27.3c4.2,0,7.7,3.5,7.7,7.7s-3.5,7.7-7.7,7.7h-18.5v12.7h15.5c4.2,0,7.7,3.5,7.7,7.7s-3.5,7.7-7.7,7.7
		h-15.5V231.8z"/>
	<path class="st1" d="M515.6,200.4c3,0,5.5,1.6,7.3,5l4.7,8.7l4.9-8.7c1.8-3.4,4.3-5,7.5-5c4.2,0,7.2,3.1,7.2,6.8
		c0,1.5-0.4,3-1.3,4.3l-7.5,11.4l8,12.7c0.9,1.4,1.4,3.1,1.4,4.9c0,4.2-2.8,7.7-7.2,7.7c-3.5,0-6.2-1.6-7.9-5l-5.8-10.6l-6.3,10.7
		c-2,3.3-4.4,4.9-7.5,4.9c-4.4,0-6.9-3-6.9-7c0-1.8,0.5-3.5,1.5-5l8.1-12.5l-7.2-11.5c-0.9-1.3-1.3-2.8-1.3-4.3
		C507.4,203.8,510.7,200.4,515.6,200.4z"/>
	<path class="st1" d="M573.8,204.3c3.2-3.1,7.5-4.6,12.9-4.6c6.2,0,11.2,2.2,15,6.6c3.8,4.4,5.7,10.2,5.7,17.1
		c0,7.2-2.3,13.2-6.9,17.9c-4.6,4.8-10.6,7.2-18,7.2c-3.5,0-6.4-0.5-8.7-1.4v13.6c0,4-3.3,7.2-7.7,7.2c-4.4,0-7.7-3.2-7.7-7.2v-52.5
		c0-4.2,3.4-7.7,8.4-7.7C569.8,200.4,572.2,201.8,573.8,204.3z M573.8,232.4c2,1.1,4.4,1.8,7.2,1.8c6.5,0,9.9-4.3,9.9-10.4
		c0-5.7-3.4-9.6-9.1-9.6c-2.9,0-5.6,1.3-8,4.1V232.4z"/>
	<path class="st1" d="M654.6,205.8c4.4,4.1,6.6,9.4,6.6,15.8v2.1c0,3.7-3,5.7-6,5.7h-25.7c1.3,4.2,4.9,6.4,10.8,6.4
		c2,0,4.1-0.3,6.5-1c0.7-0.2,1.4-0.3,2.1-0.3c2.6,0,4.4,1.2,5.4,3.7c0.3,0.6,0.4,1.3,0.4,2.2c0,2.8-1.4,4.8-4.2,6.2
		c-2.8,1.4-6.7,2.2-11.7,2.2c-7.6,0-13.7-2.3-18.2-6.7c-4.6-4.4-6.9-10.4-6.9-17.7c0-6.9,2.4-12.8,7-17.4c4.6-4.6,10.6-7,18.1-7
		C644.9,199.7,650.1,201.8,654.6,205.8z M645.7,219c0-3.4-2.9-6.4-7.5-6.4c-4.6,0-7.6,2.2-9.2,6.4H645.7z M637.7,176.1
		c0.9-1.6,2.4-2.5,4.3-2.5c1.1,0,2.1,0.3,3,1l3.2,2.4c1.3,1,2,2.4,2,4.1c0,1.3-0.4,2.5-1.2,3.4l-6.1,6.8c-1.1,1.3-2.7,2-4.6,2
		c-1.3,0-2.6-0.4-3.6-1.1c-1.8-1.1-2.7-2.8-2.7-4.8c0-1.1,0.3-2.2,0.9-3.2L637.7,176.1z"/>
	<path class="st1" d="M690.9,211.8c4,0,7.1,3.2,7.1,7.2c0,4-3.1,7.2-7.1,7.2h-13c-4,0-7.1-3.2-7.1-7.2c0-4,3.1-7.2,7.1-7.2H690.9z"
		/>
	<path class="st1" d="M478.6,269.9c0-4,3.3-7.2,7.7-7.2c4.4,0,7.7,3.2,7.7,7.2v59.3c0,4.4-3.3,7.6-7.5,7.6c-3.6,0-6.2-1.6-7.9-4.8
		c-3.1,3.2-7,4.8-11.7,4.8c-6.5,0-11.7-2.2-15.6-6.5c-3.9-4.3-5.9-10-5.9-17.1c0-7.3,2.4-13.4,7.1-18c4.7-4.6,10.9-7,18.4-7
		c3,0,5.6,0.5,7.6,1.4V269.9z M478.6,304.6c-2.3-1.3-4.5-2-6.9-2c-5.4,0-9.8,3.6-9.8,10.1c0,5.9,3.9,9.7,8.1,9.7
		c3.1,0,6-1.2,8.6-3.6V304.6z"/>
	<path class="st1" d="M523.5,273.5c0,5.8-4.1,9.4-8.8,9.4c-5.4,0-9.4-3.5-9.4-9.4c0-5.4,4.1-8.8,9.4-8.8
		C519.4,264.7,523.5,268.2,523.5,273.5z M506.7,296.1c0-4,3.3-7.2,7.7-7.2c4.4,0,7.7,3.2,7.7,7.2v33.5c0,4-3.3,7.2-7.7,7.2
		c-4.4,0-7.7-3.2-7.7-7.2V296.1z"/>
	<path class="st1" d="M533.8,282.8c0-4,3.3-7.2,7.7-7.2s7.7,3.2,7.7,7.2v6.7h5.7c3.8,0,7.2,3.4,7.2,7.2c0,3.8-3.4,7.2-7.2,7.2h-5.7
		v13.4c0,3.4,1,5.2,3,5.2c0.8,0,1.5-0.1,2.2-0.2c0.9-0.1,1.5-0.2,1.9-0.2c2.6,0,4.4,1.3,5.6,4c0.4,0.9,0.6,1.9,0.6,2.8
		c0,2.8-1.4,4.8-4.4,6.2c-3,1.3-6.3,2.1-9.8,2.1c-10.2,0-14.4-6.5-14.4-18.9V282.8z"/>
	<path class="st1" d="M590.9,273.5c0,5.8-4.1,9.4-8.8,9.4c-5.4,0-9.4-3.5-9.4-9.4c0-5.4,4.1-8.8,9.4-8.8
		C586.8,264.7,590.9,268.2,590.9,273.5z M574.1,296.1c0-4,3.3-7.2,7.7-7.2c4.4,0,7.7,3.2,7.7,7.2v33.5c0,4-3.3,7.2-7.7,7.2
		c-4.4,0-7.7-3.2-7.7-7.2V296.1z"/>
	<path class="st1" d="M625.4,337c-7.7,0-14-2.3-18.6-6.9c-4.7-4.6-7.1-10.4-7.1-17.5c0-7.1,2.4-12.9,7.1-17.5
		c4.6-4.6,10.9-6.9,18.6-6.9c7.7,0,14,2.3,18.7,6.9c4.6,4.6,7,10.4,7,17.5c0,7.1-2.4,12.9-7,17.5C639.4,334.8,633.1,337,625.4,337z
		 M616.1,312.6c0,5.8,3.9,10,9.3,10s9.3-3.8,9.3-10c0-3-0.9-5.4-2.7-7.2C626.8,299.5,615.5,303.5,616.1,312.6z"/>
	<path class="st1" d="M690.2,310.9c0-5.3-3-7.8-7.6-7.8c-2.7,0-5,1-7.2,3.2v23.4c0,4-3.3,7.2-7.7,7.2c-4.4,0-7.7-3.2-7.7-7.2v-33
		c0-4.1,3.4-7.7,8.4-7.7c3,0,5.3,1.3,7,4c3.3-3,7.1-4.5,11.4-4.5c11.5,0,18.9,6.1,18.9,19.8v21.4c0,4-3.3,7.2-7.7,7.2
		c-4.4,0-7.7-3.2-7.7-7.2V310.9z"/>
</g>
</svg>
