<?xml version="1.0" encoding="utf-8"?>
<!-- Generator: Adobe Illustrator 24.0.0, SVG Export Plug-In . SVG Version: 6.00 Build 0)  -->
<svg version="1.1" id="Capa_1" xmlns="http://www.w3.org/2000/svg" xmlns:xlink="http://www.w3.org/1999/xlink" x="0px" y="0px"
	 viewBox="0 0 509.8 354.2" style="enable-background:new 0 0 509.8 354.2;" xml:space="preserve">
<style type="text/css">
	.st0{fill:#FFFFFF;}
</style>
<path class="st0" d="M83.1,343.9c0,0-26.6-42.9-24.2-72.3c1.9-24.8,14.2-38.7,20.1-44.9c3.5-3.7,6.7-7.6,9.9-11.5
	c12.9-15.8,36.5-38.2,41.9-64.7c2.7-18.7-1.8-41.3-28.1-54.6c-1-0.5-2-0.9-3-1.3c-4.9-2.2-20.9-7.4-23.9-27
	c-3.3-21,5.9-53.7,5.9-53.7S71.5,30,62.5,53.3C60,60,60,64.5,60.5,70.4c0.8,9.8,4.6,22.8,17.7,33.1c3.6,2.8,6.5,6.2,9.1,10
	c6.7,10,14.3,28.1,4.3,49.5c-0.7,1.5-1.6,3-2.5,4.5c-3.3,5.3-7.5,10-12.2,14c-12.2,10.3-40.8,35.4-56.5,61.3
	C6,267.4,11,305.7,36.5,327.4C47.8,337.1,63.1,343.9,83.1,343.9z"/>
<path class="st0" d="M84.9,343.9c0,0,26.6-42.9,24.2-72.3c-1.9-24.8-14.2-38.7-20.1-44.9c-3.5-3.7-6.7-7.6-9.9-11.5
	c-12.9-15.8-36.5-38.2-41.9-64.7c-2.7-18.7,1.8-41.3,28.1-54.6c1-0.5,2-0.9,3-1.3c4.9-2.2,20.9-7.4,23.9-27
	c3.3-21-5.9-53.7-5.9-53.7S96.5,30,105.5,53.4c2.5,7,2.5,11.2,2,17.1c-0.8,9.8-4.6,22.8-17.7,33.1c-3.6,2.8-6.5,6.2-9.1,10
	c-6.7,10-14.3,28.1-4.3,49.5c0.7,1.5,1.6,3,2.5,4.5c3.3,5.3,7.5,10,12.2,14c12.2,10.3,40.8,35.4,56.5,61.3
	c14.4,24.6,9.4,62.9-16.1,84.6C120.2,337.1,104.9,343.9,84.9,343.9z"/>
<g>
	<path class="st0" d="M200.3,192c-14.8,0-26.8-12.5-26.8-27.2c0-16.9,12.4-28.5,27.8-28.5c8.3,0,15.8,4.4,20.3,10.9l-2.9,2.1
		c-3.7-5-8.1-9.6-15.1-9.6c-12.9,0-19.4,9.4-19.4,24.6c0,13,6,24.2,18.4,24.2c4.7,0,9.4-1.8,11.1-4.1v-19.7h9.9v19
		C217.1,189.1,209.1,192,200.3,192z"/>
	<path class="st0" d="M228.5,190.6v-52.7h31.2v3.4h-21.2v20.3h20v3.4h-20v22.1h21.6v3.4h-31.6V190.6z"/>
	<path class="st0" d="M301.7,190.6l-32.1-42.1h-0.1v42.1h-4.2v-52.7h8.8l27.7,36.3h0.2v-36.3h4.2v52.7H301.7z"/>
	<path class="st0" d="M352.1,190.6v-42.5h-0.2L334.7,192h-0.2L316,147.6h-0.2v43h-4.2v-52.7h10.9l15.1,35.6l14.2-35.6H362v52.7
		H352.1z"/>
	<path class="st0" d="M398.9,190.6l-5.5-13.8h-18.2l-5.2,13.8h-4.7l21.5-54.2h0.2l22.3,54.2H398.9z M384.3,154l-7.6,19.4H392
		L384.3,154z"/>
	<path class="st0" d="M438.8,190.6l-14.3-27h0.7c8.8,0,14.5-3.4,14.5-11.4c0-5.9-2.9-11.7-12.5-11.7h-5.4v50.1h-9.9v-52.7h22.6
		c9.6,0,15,7,15,15.5c0,8.1-5.9,11.5-13.8,12.5l14,24.7H438.8z"/>
	<path class="st0" d="M453.7,190.6v-52.7h9.9v52.7H453.7z M480.9,190.6L464,164.1l20.7-26.2h5.7l-17.6,22.6l19.2,30.1H480.9z"/>
</g>
<g>
	<path class="st0" d="M227,225.7c-5.3,0-7.7-4.6-7.7-8.2c0-4.1,2.9-8.1,7.8-8.1c2.4,0,4.4,1.2,5.5,3.2l-0.9,0.5
		c-0.2-0.6-1.2-3.1-4.7-3.1c-4.1,0-5.8,3.4-5.8,7.2c0,3.3,1.4,7.6,5.8,7.6c2.3,0,4-1.3,4.9-3.3l0.9,0.6
		C231.7,224.4,229.4,225.7,227,225.7z"/>
	<path class="st0" d="M242.6,225.3c-1,0-1.3-0.7-1.3-1.6v-15.4h1.5V224c0,0.6,0.2,0.7,0.8,0.7c0,0,0.2,0,0.3,0c0.2,0,0.8,0,0.8,0
		v0.6L242.6,225.3L242.6,225.3z"/>
	<path class="st0" d="M253.2,213.9h-1l2.4-2.7h1.4L253.2,213.9z M253.4,225.3v-10.4h1.4v10.4H253.4z"/>
	<path class="st0" d="M271,225.3c-0.3,0-0.5-0.3-0.6-0.5l-5.2-8.5c-0.1-0.1-0.2-0.3-0.5-0.3c-0.2,0-0.3,0.2-0.3,0.5v8.8h-0.7v-8.8
		c0-0.8,0.4-1.6,1.3-1.6c0.9,0,1.5,0.9,1.6,1.2c1.4,2.1,2.8,4.4,4.1,6.6V215h0.7v9.8C271.4,224.9,271.4,225.3,271,225.3z"/>
	<path class="st0" d="M281.1,213.6c-0.5,0-1-0.4-1-0.9c0-0.6,0.5-1,1-1s0.9,0.4,0.9,0.9S281.7,213.6,281.1,213.6z M280.4,225.3
		v-10.4h1.5v10.4H280.4z"/>
	<path class="st0" d="M295.3,225.5c-2.9,0-4.9-2.3-4.9-5.6c0-3.1,2.4-5.3,4.9-5.3c1.6,0,2.8,0.8,3.6,2.2l-0.6,0.3
		c-0.6-1.2-1.5-1.9-2.9-1.9c-2.4,0-3.2,2.7-3.3,4.7c0,0.1,0,0.3,0,0.5c0,2.1,0.9,4.5,3.3,4.5c1.5,0,2.5-0.7,3-2.1l0.5,0.6
		C298,224.7,296.9,225.5,295.3,225.5z"/>
	<path class="st0" d="M313.1,225.3l-1-2.9h-4.4l-0.8,2.9h-0.8l2.9-9.4c0.1-0.6,0.6-1.2,1.2-1.2c0.7,0,1.1,0.6,1.3,1.3l3.2,9.4
		L313.1,225.3L313.1,225.3z M310,216.6c0-0.1-0.1-0.3-0.3-0.3s-0.3,0.2-0.3,0.3l-1.5,5.1h3.9L310,216.6z"/>
	<path class="st0" d="M343.5,225.7c-2.5,0-7.7-1.6-7.7-8.1c0-4.7,3.3-8.2,7.7-8.2c2.5,0,4.5,1.2,5.7,3.3l-0.8,0.4
		c-1.1-2-2.5-3-4.9-3c-3.6,0-5.8,2.9-5.8,7.5c0,3.8,1.9,7.4,6.1,7.4c1.6,0,3.1-0.7,4.2-1.8v-4.1h1.6v4.1
		C348,224.7,345.7,225.7,343.5,225.7z"/>
	<path class="st0" d="M359.4,225.3c-1.2,0-1.6-0.8-1.6-1.8v-6.9c0-1.1,0.6-1.7,1.7-1.7h4.9v0.7h-4.2c-0.6,0-0.9,0.2-0.9,0.8v3.1h4.2
		v0.6h-4.2v3.4c0,0.6,0.2,0.9,0.9,0.9h4.2v0.7h-5V225.3z"/>
	<path class="st0" d="M379.6,225.3c-0.3,0-0.5-0.3-0.6-0.5l-5.2-8.5c-0.1-0.1-0.2-0.3-0.5-0.3c-0.2,0-0.3,0.2-0.3,0.5v8.8h-0.7v-8.8
		c0-0.8,0.4-1.6,1.2-1.6c0.9,0,1.5,0.9,1.6,1.2c1.4,2.1,2.8,4.4,4.1,6.6V215h0.7v9.8C379.9,224.9,379.9,225.3,379.6,225.3z"/>
	<path class="st0" d="M390,225.3c-1.2,0-1.6-0.8-1.6-1.8v-6.9c0-1.1,0.6-1.7,1.7-1.7h4.9v0.7h-4.2c-0.6,0-0.9,0.2-0.9,0.8v3.1h4.2
		v0.6h-4.2v3.4c0,0.6,0.2,0.9,0.9,0.9h4.2v0.7h-5V225.3z M391.3,213.5h-1l2.4-2.7h1.4L391.3,213.5z"/>
	<path class="st0" d="M406.7,215.6v9.7h-1.4v-9.7h-3v-0.7h7.2v0.7H406.7z"/>
	<path class="st0" d="M418.6,213.6c-0.5,0-1-0.4-1-0.9c0-0.6,0.5-1,1-1s0.9,0.4,0.9,0.9S419.1,213.6,418.6,213.6z M417.8,225.3
		v-10.4h1.5v10.4H417.8z"/>
	<path class="st0" d="M432.7,225.5c-2.9,0-4.9-2.3-4.9-5.6c0-3.1,2.4-5.3,4.9-5.3c1.6,0,2.8,0.8,3.6,2.2l-0.6,0.3
		c-0.6-1.2-1.5-1.9-2.9-1.9c-2.4,0-3.2,2.7-3.3,4.7c0,0.1,0,0.3,0,0.5c0,2.1,0.9,4.5,3.3,4.5c1.5,0,2.5-0.7,3-2.1l0.5,0.6
		C435.4,224.7,434.3,225.5,432.7,225.5z"/>
	<path class="st0" d="M450.5,225.3l-1-2.9h-4.4l-0.8,2.9h-0.8l2.9-9.4c0.1-0.6,0.6-1.2,1.2-1.2c0.7,0,1.1,0.6,1.3,1.3l3.2,9.4
		L450.5,225.3L450.5,225.3z M447.5,216.6c0-0.1-0.1-0.3-0.3-0.3s-0.3,0.2-0.3,0.3l-1.5,5.1h3.9L447.5,216.6z"/>
</g>
</svg>
