<?xml version="1.0" encoding="utf-8"?>
<!-- Generator: Adobe Illustrator 24.0.0, SVG Export Plug-In . SVG Version: 6.00 Build 0)  -->
<svg version="1.1" id="Capa_1" xmlns="http://www.w3.org/2000/svg" xmlns:xlink="http://www.w3.org/1999/xlink" x="0px" y="0px"
	 viewBox="0 0 665.3 352.1" style="enable-background:new 0 0 665.3 352.1;" xml:space="preserve">
<style type="text/css">
	.st0{fill:#FFFFFF;}
	.st1{enable-background:new    ;}
</style>
<g>
	<g>
		<path class="st0" d="M94.7,185.9c16.7,0,29.7-2.7,38.8-8.2c2.6-1.5,3.9-3.5,3.9-6v-50.7c0-3.8-1.8-5.6-5.5-5.6H98.8
			c-3.7,0-5.5,1.9-5.5,5.6v13.5c0,3.7,1.8,5.5,5.5,5.5h8.8v15.4c-1.9,0.6-4.6,0.9-8,0.9c-8.6,0-14.9-2.1-18.8-6.3s-6-11.4-6-21.7
			c0-10.5,2.1-17.7,6.3-21.8s11.3-6.1,21.4-6.1c6.1,0,12.1,1.1,18.2,3.3c4.1,1.5,6.8,0.6,8-2.5l5.6-14.1c0.6-1.9,0.7-3.3,0.3-4.3
			c-0.4-1-1.5-2.1-3.1-3.2c-8.6-5.8-20.2-8.6-34.7-8.6C58.9,71,40,90.1,40,128.4S58.2,185.9,94.7,185.9z"/>
		<path class="st0" d="M213.3,179.5c1.8,3,4.4,4.5,7.9,4.5h22.9c2,0,3.3-0.7,3.9-2.1c0.6-1.4,0.4-3.1-0.8-4.9l-18.8-31.1
			c13.4-6.3,20.1-17.3,20.1-33.1c0-14.3-4-24.6-11.9-30.7c-8-6.1-19.8-9.2-35.6-9.2h-40c-3.8,0-5.6,1.9-5.6,5.6v99.8
			c0,3.8,1.9,5.7,5.6,5.7h22.6c3.8,0,5.6-1.9,5.6-5.7v-27.3h8L213.3,179.5z M189.2,101.1h11.3c5,0,8.6,0.8,10.7,2.4s3.1,4.7,3.1,9.2
			c0,4-1.1,6.9-3.2,8.8s-5.7,2.8-10.6,2.8h-11.3L189.2,101.1L189.2,101.1z"/>
		<path class="st0" d="M356.6,142.3V78.5c0-3.8-1.9-5.6-5.6-5.6h-22.9c-3.8,0-5.6,1.9-5.6,5.6v60.6c0,5.8-0.9,9.9-2.8,12.6
			c-1.9,2.6-5,3.9-9.4,3.9c-4.4,0-7.5-1.3-9.4-3.9c-1.9-2.6-2.8-6.9-2.8-12.7V78.6c0-3.8-1.9-5.6-5.6-5.6h-22.9
			c-3.8,0-5.6,1.9-5.6,5.6v63.7c0,29,15.5,43.5,46.5,43.5C341.1,185.8,356.6,171.3,356.6,142.3z"/>
		<path class="st0" d="M408.9,178.4v-23.9H420c15.7,0,27.5-3.2,35.4-9.6c7.9-6.4,11.8-16.8,11.8-31.2s-4-24.9-11.8-31.2
			c-7.9-6.4-19.7-9.6-35.4-9.6h-39.4c-3.8,0-5.7,1.9-5.7,5.6v99.8c0,3.8,1.9,5.7,5.7,5.7h22.6C407,184,408.9,182.1,408.9,178.4z
			 M408.9,101.1h10.7c4.8,0,8.3,1,10.4,2.9c2.1,1.9,3.1,5.1,3.1,9.6s-1,7.7-3.1,9.6c-2.1,1.9-5.5,2.9-10.4,2.9h-10.7V101.1z"/>
		<path class="st0" d="M559.3,148.4c-0.9,0-1.4-2-1-3.5l4.3-14.7c0.2-0.7,0.6-1.1,1-1.1h18.9c0-0.2,0-0.4,0-0.6c0-0.7,0-1.3-0.1-2
			h-18.8c-0.4,0-0.8-0.4-1-1.1l-4.3-14.7c-0.5-1.5,0.1-3.5,1-3.5h3.7h17.3C578,98,574.3,90.6,569,85c-9-9.4-21.6-14-37.7-14
			c-16.1,0-28.7,4.7-37.7,14s-13.5,23.8-13.5,43.4s4.5,34,13.5,43.4c9,9.4,21.6,14,37.7,14c16.1,0,28.7-4.7,37.7-14
			c5.6-5.8,9.5-13.6,11.6-23.4h-17.7L559.3,148.4L559.3,148.4z M554.7,148.3h-10c-0.3,0.6-0.6,1.2-1,1.8c-2.7,4.4-6.8,6.6-12.4,6.6
			c-5.5,0-9.7-2.2-12.4-6.6c-2.7-4.4-4.1-11.6-4.1-21.7c0-10,1.4-17.3,4.1-21.7c2.7-4.4,6.9-6.6,12.4-6.6c5.5,0,9.7,2.2,12.4,6.6
			c0.1,0.1,0.1,0.2,0.2,0.3h10.8c0.4,0,0.8,0.4,1,1.1L560,123c0.5,1.5-0.1,3.5-1,3.5h-3.7h0h-7.6c0,0.6,0,1.3,0,2c0,0.2,0,0.3,0,0.5
			h7.5h0h3.7c0.9,0,1.4,2,1,3.5l-4.3,14.7C555.4,147.9,555.1,148.3,554.7,148.3z"/>
		<path class="st0" d="M169.1,290.9c-0.8-1.8-1.9-2.8-3.1-3.2s-2.9-0.1-4.9,0.7c-5.1,2.1-10.3,3.1-15.5,3.1
			c-8.7,0-14.9-2.1-18.7-6.4c-0.1-0.1-0.2-0.2-0.2-0.3H111c-0.4,0-0.8-0.4-1-1.1l-4.3-14.7c-0.4-1.5,0.1-3.5,1-3.5h3.6h10.9
			c0-0.6,0-1.3,0-1.9c0-0.2,0-0.4,0-0.6h-10.9h-3.6c-0.9,0-1.4-2-1-3.5l4.3-14.7c0.2-0.7,0.6-1.1,1-1.1h14.3
			c0.4-0.6,0.8-1.2,1.3-1.7c3.6-4.2,9.7-6.3,18.3-6.3c5.4,0,10.5,0.9,15.1,2.8c2.1,0.8,3.8,1.1,5,0.7c1.3-0.4,2.3-1.4,3-3.2l6.4-14
			c0.7-1.9,0.9-3.3,0.5-4.3c-0.4-1-1.5-2.1-3.3-3.2c-8.4-5.5-19.2-8.3-32.5-8.3c-16.6,0-29.6,4.7-38.8,14
			c-5.8,5.8-9.7,13.7-11.9,23.5h14.2h0h3.6c0.9,0,1.4,2,1,3.5l-4.3,14.7c-0.2,0.7-0.6,1.1-1,1.1H86.5c0,0.2,0,0.4,0,0.6
			c0,0.7,0.1,1.3,0.1,2h15.4c0.4,0,0.8,0.4,1,1.1l4.3,14.7c0.5,1.5-0.1,3.5-1,3.5h-3.6h0H88.9c2.3,9.1,6.2,16.5,11.7,22
			c9.4,9.4,22.5,14,39.2,14c13.5,0,24.5-2.8,33-8.5c1.8-1.2,2.9-2.2,3.3-3.2c0.4-1,0.3-2.4-0.5-4.3L169.1,290.9z"/>
		<path class="st0" d="M263.7,290.9h-38.6v-14.6h35.3c3.7,0,5.5-1.8,5.5-5.5V255c0-3.8-1.8-5.7-5.5-5.7h-35.3v-13h37.7
			c3.8,0,5.6-1.9,5.6-5.7v-17c0-3.8-1.9-5.7-5.6-5.7h-65.6c-3.8,0-5.6,1.9-5.6,5.7v99.8c0,3.8,1.9,5.7,5.6,5.7h66.6
			c3.8,0,5.6-1.9,5.6-5.7v-17C269.4,292.8,267.5,290.9,263.7,290.9z"/>
		<path class="st0" d="M378.6,247.9c0-14.3-4-24.6-11.9-30.7S346.8,208,331,208h-40c-3.8,0-5.6,1.9-5.6,5.7v99.8
			c0,3.8,1.9,5.7,5.6,5.7h22.6c3.8,0,5.6-1.9,5.6-5.7v-27.3h8l16.2,28.4c1.8,3,4.4,4.5,7.9,4.5h22.9c2,0,3.3-0.7,3.9-2.1
			c0.6-1.4,0.4-3.1-0.8-4.9L358.5,281C371.9,274.8,378.6,263.7,378.6,247.9z M341.2,256.7c-2.1,1.9-5.7,2.8-10.6,2.8h-11.3v-23.2
			h11.3c5,0,8.6,0.8,10.7,2.4c2.1,1.6,3.1,4.7,3.1,9.2C344.4,251.9,343.3,254.8,341.2,256.7z"/>
		<path class="st0" d="M466.5,290.9h-38.6v-14.6h35.3c3.7,0,5.5-1.8,5.5-5.5V255c0-3.8-1.8-5.7-5.5-5.7h-35.3v-13h37.7
			c3.8,0,5.7-1.9,5.7-5.7v-17c0-3.8-1.9-5.7-5.7-5.7h-65.6c-3.8,0-5.7,1.9-5.7,5.7v99.8c0,3.8,1.9,5.7,5.7,5.7h66.6
			c3.8,0,5.7-1.9,5.7-5.7v-17C472.1,292.8,470.3,290.9,466.5,290.9z"/>
		<path class="st0" d="M567.8,271.6c-1.1-2-2.1-3.7-3.1-5.2c-0.9-1.5-2.5-2.9-4.5-4.4c-2.1-1.5-3.7-2.6-4.9-3.5
			c-1.2-0.8-3.2-1.9-6-3.1c-2.8-1.2-4.9-2-6.1-2.5l-6.9-2.6c-5.7-2.1-9.7-3.9-12-5.3c-2.3-1.5-3.5-3.1-3.5-5c0-2.3,1-3.8,3.1-4.5
			s5.1-1.1,9.1-1.1c7.2,0,14.1,1.1,20.7,3.3c3.5,1.2,5.9,0,7.2-3.3l5.3-13.8c1.2-3,0.2-5.4-3-7.1c-8.8-4.8-20.1-7.2-33.9-7.2
			c-28.6,0-42.9,10.8-42.9,32.5c0,4.8,0.7,9.1,2,13s3,7,5,9.4c2,2.5,4.7,4.7,8,6.8s6.4,3.7,9.1,4.8c2.7,1.1,6.1,2.3,10.2,3.7
			c5.7,1.9,9.7,3.5,12.1,4.9c2.4,1.4,3.6,3,3.6,4.9c0,4.4-5.3,6.6-15.8,6.6c-7.2,0-14.7-1.6-22.3-4.7c-3.3-1.5-5.8-0.4-7.2,3.3
			l-5.5,14.6c-1.2,3.1-0.2,5.5,3,7.1c9.8,5.2,22.7,7.8,38.5,7.8c8.1,0,15.3-1.1,21.6-3.2c6.3-2.1,11.6-5.9,15.8-11.2
			c4.2-5.3,6.3-12,6.3-20.1c0-2.9-0.2-5.6-0.6-8.1C569.7,275.8,568.9,273.6,567.8,271.6z"/>
		<path class="st0" d="M529.8,108.3l-4.3,14.7c-0.5,1.5,0.1,3.5,1,3.5h3.7h17.6c-0.2-8.8-1.5-15.2-3.9-19.4h-13.1
			C530.4,107.1,530,107.6,529.8,108.3z"/>
		<path class="st0" d="M587.5,126.5c0.4,0,0.8-0.4,1-1.1l4.3-14.7c0.5-1.5-0.1-3.5-1-3.5h-3.7h0h-7.9c1.4,5.7,2.1,12.2,2.2,19.4
			H587.5z"/>
		<path class="st0" d="M530.1,129h-3.7c-0.9,0-1.4,2-1,3.5l4.3,14.7c0.2,0.7,0.6,1.1,1,1.1h13.9c2-4.4,3.1-10.8,3.1-19.4L530.1,129
			L530.1,129z"/>
		<path class="st0" d="M592.2,126.5h3.7h25.2h0h3.7c0.9,0,1.4-2,1-3.5l-4.3-14.7c-0.2-0.7-0.6-1.1-1-1.1h-23.9c-0.4,0-0.8,0.4-1,1.1
			l-4.3,14.7C590.8,124.5,591.3,126.5,592.2,126.5z"/>
		<path class="st0" d="M624.7,129H621h0h-25.2h-3.7c-0.9,0-1.4,2-1,3.5l4.3,14.7c0.2,0.7,0.6,1.1,1,1.1h23.9c0.4,0,0.8-0.4,1-1.1
			l4.3-14.7C626.1,130.9,625.6,129,624.7,129z"/>
		<path class="st0" d="M588.4,130.2c-0.2-0.7-0.6-1.1-1-1.1h-5c0,7.1-0.7,13.6-1.9,19.4h7.5h0h3.7c0.9,0,1.4-2,1-3.5L588.4,130.2z"
			/>
		<path class="st0" d="M41,263.1h3.6h25.2h0h3.6c0.9,0,1.4-2,1-3.5l-4.3-14.7c-0.2-0.7-0.6-1.1-1-1.1H45.3c-0.4,0-0.8,0.4-1,1.1
			L40,259.6C39.5,261.1,40.1,263.1,41,263.1z"/>
		<path class="st0" d="M77.4,243.7h-3.6c-0.9,0-1.4,2-1,3.5l4.3,14.7c0.2,0.7,0.6,1.1,1,1.1h8.4c0-7.1,0.7-13.6,1.9-19.4H77.4z"/>
		<path class="st0" d="M73.4,265.5h-3.6h0H44.6h-3.6c-0.9,0-1.4,2-1,3.5l4.3,14.7c0.2,0.7,0.6,1.1,1,1.1h23.9c0.4,0,0.8-0.4,1-1.1
			l4.3-14.7C74.9,267.5,74.3,265.5,73.4,265.5z"/>
		<path class="st0" d="M135.5,263.1L135.5,263.1h3.7c0.9,0,1.4-2,1-3.5l-4.3-14.7c-0.2-0.7-0.6-1.1-1-1.1h-9.6
			c-2.7,4.2-4.1,10.7-4.1,19.4H135.5z"/>
		<path class="st0" d="M134.9,284.9c0.4,0,0.8-0.4,1-1.1l4.3-14.7c0.5-1.5-0.1-3.5-1-3.5h-3.6h0h-14.3c0.2,8.9,2,15.4,5.4,19.4
			H134.9z"/>
		<path class="st0" d="M78,265.6c-0.4,0-0.8,0.4-1,1.1l-4.3,14.7c-0.4,1.5,0.1,3.5,1,3.5h3.6h11.5c-1.4-5.7-2.2-12.2-2.3-19.4H78z"
			/>
	</g>
	<g class="st1">
		<path class="st0" d="M597.6,312.9l-6.3-10.6v16.3c0,0.2-0.1,0.4-0.4,0.4h-1c-0.2,0-0.4-0.1-0.4-0.4v-19.1c0-0.2,0.1-0.3,0.4-0.3
			h1.1c0.2,0,0.4,0.1,0.5,0.2l6.7,11l6.7-11c0.1-0.1,0.2-0.2,0.5-0.2h1.1c0.2,0,0.3,0.1,0.3,0.3v19.1c0,0.2-0.1,0.4-0.3,0.4h-1
			c-0.2,0-0.3-0.1-0.3-0.4v-16.3l-6.3,10.6c-0.1,0.2-0.3,0.3-0.5,0.3S597.8,313.1,597.6,312.9z"/>
		<path class="st0" d="M617.7,299.3c2.7,0,4.8,0.5,6,1.5c1.3,1,1.9,2.6,1.9,4.7c0,3.7-2,5.7-6.1,6.1l6,7c0.1,0.1,0.1,0.2,0.1,0.3
			c0,0.1-0.1,0.2-0.3,0.2h-1.2c-0.2,0-0.4-0.1-0.5-0.3l-6-7h-4v6.9c0,0.2-0.1,0.4-0.4,0.4h-1c-0.2,0-0.4-0.1-0.4-0.4v-19.1
			c0-0.2,0.1-0.3,0.4-0.3H617.7z M617.6,310.1c2.3,0,3.9-0.4,4.8-1.1c0.9-0.7,1.4-1.9,1.4-3.5c0-1.7-0.5-2.8-1.4-3.6
			c-1-0.7-2.5-1.1-4.7-1.1h-4v9.3H617.6z"/>
	</g>
</g>
</svg>
