<?xml version="1.0" encoding="utf-8"?>
<!-- Generator: Adobe Illustrator 24.0.0, SVG Export Plug-In . SVG Version: 6.00 Build 0)  -->
<svg version="1.1" id="Capa_1" xmlns="http://www.w3.org/2000/svg" xmlns:xlink="http://www.w3.org/1999/xlink" x="0px" y="0px"
	 viewBox="0 0 820.8 496.8" style="enable-background:new 0 0 820.8 496.8;" xml:space="preserve">
<style type="text/css">
	.st0{fill:#FFFFFF;}
</style>
<path class="st0" d="M226.9,377.7c0,0-5.3-32.7,0.5-39.3s12.9-15,12.4-15.7s6-8.3,9.8-8.5c3.9-0.2,15.7-4.5,23.1-17.1
	c7.3-12.7,13.4-3.8,12.7-0.9c-0.6,3-6,16.8-17.5,25.2c0,0,15.1-3.5,20.2-22.6c0,0,4.1-13.2,5.7-13.4c0,0,2.7-14.2,7.5-14.1
	c4.8,0.1,2.1,19.7,0.2,28.4c-1.9,8.7-7.1,25.3-7.1,25.3s0.2,7-14.7,18c-14.8,11-26.6,12.4-25.7,23.2l1.8,4.6c0,0,1.8,7.7-14.6,10.7
	C225,384.4,226.9,377.7,226.9,377.7z"/>
<path class="st0" d="M196.2,377.2c1.1-9.2,3-36-8-43.5c0,0-7.6-7.7-11.2-13.7s-15.6-8.3-15.6-8.3s-6.5-1-10.7-7.9
	s-8.6-14.1-15.5-11.3c-6.9,2.8,3.6,18.5,7.5,21.2c3.8,2.6,9.4,7.3,9.4,7.3s-10.7,1.3-20.2-18.1c0,0-8.2-21.6-8.3-23.3
	s-5.2-10.8-9.4-5.1c-4.2,5.7,5.2,34,5.2,34s0.6,18.4,19.2,33.8s31.3,14.3,25.7,31.4c0,0-1.6,4.2,12.7,7.4c7.4,1.7,12.2,1.4,15.1,0.8
	C194.2,381.4,195.9,379.5,196.2,377.2z"/>
<g>
	<path class="st0" d="M255.3,240c2.4-3.5,4.4-6.9,6.2-10.2c4.2-8,7.2-16,9.2-23.2c-18.2-27.5-39.8-41-56.4-46.8
		c-1.5-0.5-3.1-1-4.6-1.5c-10.9,3.4-20.6,8.8-28.6,16.2c-0.9,0.8-1.8,1.7-2.6,2.6c5.5,1.9,11.6,4.3,17.9,7.5
		C214,193.5,236.8,210.4,255.3,240z"/>
	<path class="st0" d="M272,208.7c-2.1,6.7-4.9,14.2-9,21.9c-1.9,3.6-4.1,7.4-6.7,11.2c5.2,8.6,10.1,18.2,14.3,29
		c7.8-9.7,13.3-21.4,15.8-34.1C282,226,277.2,216.8,272,208.7z"/>
	<path class="st0" d="M255.3,243.2c-3.9,5.6-8.7,11.3-14.4,16.7c8.7,4.4,18,8,27.6,10.3C264.5,260.2,260.1,251.2,255.3,243.2z"/>
	<path class="st0" d="M146.9,240.9c2.5-13.8,7.4-31.4,16.8-47.2c-8.7-11.5-13.8-19.8-14.6-21.1c-8.1,10-13.8,22-16.2,35.2
		C133.4,210.1,136.9,224.4,146.9,240.9z"/>
	<path class="st0" d="M194.1,284.7c18.3-5.9,32.5-14.8,43.5-24.5c-32-16.9-57.4-45-72.7-64.9c-9.3,16.1-14.1,34-16.5,48
		C157.7,258,172.2,274,194.1,284.7z"/>
	<path class="st0" d="M277.1,182.5c-0.2,3-1.1,12-4.3,23.5c5.1,7.8,9.9,16.9,14.2,27.2c0.5-3.7,0.8-7.5,0.8-11.3
		C287.8,207.6,283.9,194.1,277.1,182.5z"/>
	<path class="st0" d="M151.3,172.9c2,3.2,6.6,10.2,13.3,19.2c3.1-4.9,6.6-9.7,10.6-14C163.5,174.2,154.6,173.2,151.3,172.9z"/>
	<path class="st0" d="M254.3,241.5c-23.5-38.5-55-55.4-77.2-62.9c-4.3,4.6-8,9.7-11.2,15c15.3,19.9,41,48.4,73.1,65.3
		C245.1,253.2,250.2,247.3,254.3,241.5z"/>
	<path class="st0" d="M193.6,286.8c-6.1,1.9-12.7,3.4-19.8,4.6c10.7,5.5,22.9,8.7,35.8,8.7c7.3,0,14.4-1,21.1-2.9
		C216.5,295.4,204.2,291.7,193.6,286.8z"/>
	<path class="st0" d="M239.5,261.1c-10.7,9.8-24.7,18.7-42.9,24.7c10.9,4.9,23.5,8.5,38.2,10l-0.1,0c13.7-4.6,25.7-12.9,34.8-23.7
		C259,269.8,249,266,239.5,261.1z"/>
	<path class="st0" d="M191.2,285.6c-20.5-10.2-34.3-25-43.4-38.8c-1.6,10.2-1.9,17.8-2,20.1c6.7,9.5,15.5,17.5,25.7,23.2
		C178.5,288.9,185,287.4,191.2,285.6z"/>
	<path class="st0" d="M146.3,244.3c-8.8-14.2-12.8-26.9-14.1-31.9c-0.4,3.1-0.6,6.3-0.6,9.5c0,15.7,4.6,30.3,12.6,42.5
		C144.2,261.8,144.6,254.3,146.3,244.3z"/>
	<path class="st0" d="M212.7,157.4c0.7,0.2,1.4,0.5,2.1,0.7c16.8,5.9,38.4,18.6,56.6,45.8c3.4-12.8,4-22.6,4.1-24.1
		c-6.8-10.6-16-19.4-27-25.7C235.8,153.3,223.7,154.4,212.7,157.4z"/>
	<path class="st0" d="M209,156.3c10.8-3.5,22.7-4.8,35.8-4.1c-10.6-5.3-22.5-8.3-35.1-8.3c-13,0-25.3,3.2-36.1,8.9
		C178.9,152.1,192.5,151.5,209,156.3z"/>
	<path class="st0" d="M176.6,176.5c1.1-1.1,2.2-2.2,3.3-3.2c7.6-7.1,16.4-12.4,26.1-16c-18.7-4.7-34.4-2.7-36.6-2.4
		c-7.2,4.3-13.6,9.8-19.1,16.1C152.4,171.2,162.6,172,176.6,176.5z"/>
</g>
<g>
	<polygon class="st0" points="371.2,225.4 341.8,225.4 341.8,191.4 326.3,191.4 326.3,273.5 341.8,273.5 341.8,240.3 371.2,240.3 
		371.2,273.5 386.7,273.5 386.7,191.4 371.2,191.4 	"/>
	<path class="st0" d="M448.1,244.2c0,4.7-1.3,8.4-3.8,10.9c-2.5,2.6-6.1,3.9-10.8,3.9c-4.6,0-8.1-1.3-10.7-3.9
		c-2.5-2.6-3.8-6.2-3.8-10.9v-52.8h-15.5v52.4c0,6.4,1.2,11.9,3.5,16.5c2.3,4.6,5.7,8.1,10.2,10.4c4.5,2.4,9.9,3.6,16.2,3.6
		c6.3,0,11.7-1.2,16.2-3.6c4.5-2.4,7.9-5.9,10.3-10.4c2.4-4.6,3.5-10.1,3.5-16.5v-52.4h-15.5V244.2z"/>
	<polygon class="st0" points="515.4,246.7 499.7,191.4 479.4,191.4 479.4,273.5 493.4,273.5 493.4,216.3 508.5,264.3 522.2,264.3 
		537.3,215.2 537.3,273.5 551.4,273.5 551.4,191.4 531,191.4 	"/>
	<polygon class="st0" points="591.7,226.8 576,191.4 559.8,191.4 584,241.8 584,273.5 599.4,273.5 599.4,241.8 623.6,191.4 
		607.4,191.4 	"/>
	<polygon class="st0" points="678.4,191.4 678.4,251.5 649.3,191.4 630.4,191.4 630.4,273.4 645.2,273.4 645.2,214.3 674.2,273.4 
		693.2,273.4 693.2,191.4 	"/>
</g>
<g>
	<path class="st0" d="M334.4,290.8l-6.7,17.4h3.5l1-2.8h6.4l1,2.8h3.5l-6.7-17.4H334.4z M333.4,302.3l2.1-5.9l2.1,5.9H333.4z"/>
	<path class="st0" d="M359.6,296.2c-0.6-0.4-1.4-0.6-2.3-0.6c-0.7,0-1.3,0.2-1.8,0.6c-0.4,0.3-0.8,0.8-1.1,1.3v-6.7h-3.3v17.4h3.3
		v-1.6c0.3,0.5,0.6,1,1,1.3c0.5,0.4,1.2,0.6,1.9,0.6c0.9,0,1.6-0.2,2.3-0.6c0.6-0.4,1.1-1,1.4-1.8c0.3-0.8,0.5-1.8,0.5-2.9v-2
		c0-1.1-0.2-2.1-0.5-2.9C360.7,297.3,360.2,296.7,359.6,296.2z M358.3,303c0,0.7-0.2,1.3-0.5,1.7s-0.8,0.6-1.4,0.6
		c-0.4,0-0.7-0.1-1-0.2c-0.3-0.2-0.5-0.4-0.6-0.7c-0.1-0.3-0.2-0.6-0.2-1v-2.8c0-0.4,0.1-0.8,0.2-1.1c0.1-0.3,0.4-0.5,0.6-0.7
		c0.3-0.2,0.6-0.2,1-0.2c0.6,0,1.1,0.2,1.4,0.6c0.3,0.4,0.5,1,0.5,1.8V303z"/>
	<path class="st0" d="M378.6,296.2c-0.8-0.4-1.8-0.6-2.9-0.6c-1.1,0-2.1,0.2-2.9,0.6c-0.8,0.4-1.4,1-1.8,1.8
		c-0.4,0.8-0.6,1.8-0.6,2.9v2c0,1.1,0.2,2.1,0.6,2.9c0.4,0.8,1,1.4,1.8,1.9c0.8,0.4,1.8,0.6,2.9,0.6c1.1,0,2.1-0.2,2.9-0.6
		c0.8-0.4,1.4-1,1.8-1.8c0.4-0.8,0.6-1.8,0.6-2.9V301c0-1.1-0.2-2.1-0.6-2.9C380,297.3,379.4,296.7,378.6,296.2z M377.8,303
		c0,0.7-0.2,1.2-0.6,1.6c-0.4,0.4-0.9,0.6-1.5,0.6c-0.7,0-1.2-0.2-1.5-0.6c-0.4-0.4-0.5-0.9-0.5-1.6V301c0-0.7,0.2-1.2,0.5-1.6
		c0.4-0.4,0.9-0.6,1.5-0.6c0.7,0,1.2,0.2,1.5,0.6c0.4,0.4,0.6,0.9,0.6,1.6V303z"/>
	<path class="st0" d="M396.9,297.5c-0.3-0.5-0.6-1-1.1-1.3c-0.5-0.4-1.2-0.6-1.8-0.6c-0.9,0-1.6,0.2-2.3,0.6c-0.6,0.4-1.1,1-1.4,1.9
		c-0.3,0.8-0.5,1.8-0.5,2.9v2c0,1.1,0.2,2.1,0.5,2.9c0.3,0.8,0.8,1.4,1.4,1.8c0.6,0.4,1.4,0.6,2.3,0.6c0.7,0,1.4-0.2,1.9-0.6
		c0.4-0.3,0.8-0.7,1-1.3v1.5c0,0.7-0.2,1.2-0.7,1.6c-0.4,0.4-1,0.6-1.7,0.6c-0.4,0-0.8-0.1-1.2-0.2c-0.4-0.2-0.7-0.4-1-0.7l-2.2,2
		c0.4,0.6,1,1.1,1.8,1.5c0.8,0.3,1.7,0.5,2.7,0.5c1.2,0,2.2-0.2,3-0.6c0.8-0.4,1.5-1,1.9-1.9c0.4-0.8,0.7-1.8,0.7-2.9v-12.1h-3.3
		V297.5z M396.7,304.5c-0.1,0.3-0.4,0.5-0.6,0.7c-0.3,0.2-0.6,0.2-1,0.2c-0.6,0-1.1-0.2-1.4-0.6c-0.3-0.4-0.5-1-0.5-1.7v-2
		c0-0.8,0.2-1.3,0.5-1.8c0.3-0.4,0.8-0.6,1.4-0.6c0.4,0,0.7,0.1,1,0.2c0.3,0.2,0.5,0.4,0.6,0.7c0.1,0.3,0.2,0.7,0.2,1.1v2.8
		C396.9,303.8,396.8,304.2,396.7,304.5z"/>
	<path class="st0" d="M417,296.2c-0.8-0.4-1.7-0.5-2.8-0.5c-1,0-1.9,0.2-2.7,0.5c-0.8,0.3-1.5,0.8-2,1.3l2,2
		c0.4-0.3,0.8-0.5,1.2-0.6c0.5-0.2,0.9-0.2,1.4-0.2c0.7,0,1.2,0.2,1.6,0.5c0.4,0.3,0.6,0.8,0.6,1.3v0.5h-3c-1.5,0-2.6,0.3-3.3,0.9
		c-0.7,0.6-1.1,1.5-1.1,2.8c0,1.3,0.3,2.3,1,2.9c0.7,0.6,1.7,1,3,1c0.6,0,1.2-0.1,1.7-0.2c0.5-0.2,1-0.4,1.4-0.7
		c0.2-0.1,0.3-0.3,0.4-0.4v1.2h3v-8c0-1-0.2-1.8-0.6-2.5C418.3,297,417.7,296.5,417,296.2z M415.7,305.5c-0.4,0.2-1.1,0.3-2,0.3
		c-0.6,0-1.1-0.1-1.4-0.3c-0.3-0.2-0.5-0.5-0.5-0.9c0-0.4,0.1-0.7,0.4-0.9c0.2-0.2,0.6-0.3,1.1-0.3h3v1.1
		C416.4,304.9,416.1,305.3,415.7,305.5z"/>
	<path class="st0" d="M435.4,297.5c-0.3-0.5-0.6-1-1.1-1.3c-0.5-0.4-1.2-0.6-1.8-0.6c-0.9,0-1.6,0.2-2.3,0.6s-1.1,1-1.4,1.9
		c-0.3,0.8-0.5,1.8-0.5,2.9v2c0,1.1,0.2,2.1,0.5,2.9c0.3,0.8,0.8,1.4,1.4,1.8s1.4,0.6,2.3,0.6c0.7,0,1.4-0.2,1.9-0.6
		c0.4-0.3,0.8-0.7,1-1.3v1.6h3.3v-17.4h-3.3V297.5z M435.2,304.5c-0.1,0.3-0.4,0.5-0.6,0.7c-0.3,0.2-0.6,0.2-1,0.2
		c-0.6,0-1.1-0.2-1.4-0.6c-0.3-0.4-0.5-1-0.5-1.7v-2c0-0.8,0.2-1.3,0.5-1.8c0.3-0.4,0.8-0.6,1.4-0.6c0.4,0,0.7,0.1,1,0.2
		s0.5,0.4,0.6,0.7c0.1,0.3,0.2,0.7,0.2,1.1v2.8C435.4,303.8,435.3,304.2,435.2,304.5z"/>
	<path class="st0" d="M456,296.2c-0.8-0.4-1.8-0.6-2.9-0.6c-1.1,0-2.1,0.2-2.9,0.6c-0.8,0.4-1.4,1-1.8,1.8c-0.4,0.8-0.6,1.8-0.6,2.9
		v2c0,1.1,0.2,2.1,0.6,2.9c0.4,0.8,1,1.4,1.8,1.9c0.8,0.4,1.8,0.6,2.9,0.6c1.1,0,2.1-0.2,2.9-0.6c0.8-0.4,1.4-1,1.8-1.8
		c0.4-0.8,0.6-1.8,0.6-2.9V301c0-1.1-0.2-2.1-0.6-2.9C457.4,297.3,456.8,296.7,456,296.2z M455.2,303c0,0.7-0.2,1.2-0.6,1.6
		c-0.4,0.4-0.9,0.6-1.5,0.6c-0.7,0-1.2-0.2-1.5-0.6c-0.4-0.4-0.5-0.9-0.5-1.6V301c0-0.7,0.2-1.2,0.5-1.6c0.4-0.4,0.9-0.6,1.5-0.6
		c0.7,0,1.2,0.2,1.5,0.6c0.4,0.4,0.6,0.9,0.6,1.6V303z"/>
	<path class="st0" d="M475.5,300.9c-0.6-0.2-1.4-0.3-2.4-0.4c0,0-0.1,0-0.1,0c0,0-0.1,0-0.1,0c-0.1,0-0.1,0-0.2,0
		c-0.1,0-0.1,0-0.2,0c-0.6-0.1-1-0.1-1.3-0.2c-0.3-0.1-0.5-0.1-0.7-0.3c-0.2-0.1-0.3-0.3-0.3-0.5c0-0.3,0.2-0.5,0.6-0.6
		c0.4-0.2,0.9-0.2,1.5-0.2c0.5,0,1.1,0.1,1.7,0.3s1.2,0.4,1.7,0.7l2-2.4c-0.5-0.3-1-0.6-1.6-0.9c-0.6-0.2-1.2-0.4-1.8-0.6
		c-0.6-0.1-1.3-0.2-1.9-0.2c-1.1,0-2,0.2-2.8,0.5c-0.8,0.3-1.3,0.8-1.7,1.3c-0.4,0.6-0.6,1.3-0.6,2.1c0,0.9,0.2,1.7,0.6,2.2
		c0.4,0.5,0.9,0.8,1.4,1c0.6,0.2,1.3,0.3,2.2,0.4c0,0,0.1,0,0.1,0c0,0,0.1,0,0.1,0c0.2,0,0.3,0,0.4,0c0.1,0,0.3,0,0.4,0
		c0.5,0,0.9,0.1,1.2,0.2c0.3,0.1,0.5,0.2,0.7,0.3c0.2,0.1,0.3,0.4,0.3,0.6c0,0.3-0.2,0.5-0.6,0.7c-0.4,0.2-1,0.3-1.8,0.3
		c-0.6,0-1.2-0.1-1.9-0.3c-0.7-0.2-1.3-0.5-1.9-0.9l-2,2.5c0.5,0.4,1,0.7,1.6,0.9c0.6,0.3,1.3,0.4,2,0.6c0.7,0.1,1.4,0.2,2.2,0.2
		c1.1,0,2.1-0.2,2.9-0.5c0.8-0.3,1.4-0.8,1.8-1.4c0.4-0.6,0.6-1.4,0.6-2.2c0-1-0.2-1.8-0.6-2.3C476.6,301.4,476.1,301.1,475.5,300.9
		z"/>
	<path class="st0" d="M503.7,303.1l-2.8-7.3h-3.1l4.4,11.5l-0.7,1.9c-0.1,0.4-0.3,0.6-0.5,0.8c-0.2,0.2-0.5,0.2-0.9,0.2h-0.7v3.2
		h0.7c0.7,0,1.2-0.1,1.7-0.2c0.5-0.1,0.8-0.4,1.1-0.7c0.3-0.3,0.6-0.8,0.8-1.3l5.5-15.3h-3.1L503.7,303.1z"/>
	<path class="st0" d="M537.3,296.2c-0.8-0.4-1.7-0.5-2.8-0.5c-1,0-1.9,0.2-2.7,0.5c-0.8,0.3-1.5,0.8-2,1.3l2,2
		c0.4-0.3,0.8-0.5,1.2-0.6c0.5-0.2,0.9-0.2,1.4-0.2c0.7,0,1.2,0.2,1.6,0.5c0.4,0.3,0.6,0.8,0.6,1.3v0.5h-3c-1.5,0-2.6,0.3-3.3,0.9
		c-0.7,0.6-1.1,1.5-1.1,2.8c0,1.3,0.3,2.3,1,2.9c0.7,0.6,1.7,1,3,1c0.6,0,1.2-0.1,1.7-0.2c0.5-0.2,1-0.4,1.4-0.7
		c0.2-0.1,0.3-0.3,0.4-0.4v1.2h3v-8c0-1-0.2-1.8-0.6-2.5S538.1,296.5,537.3,296.2z M536,305.5c-0.4,0.2-1.1,0.3-2,0.3
		c-0.6,0-1.1-0.1-1.4-0.3c-0.3-0.2-0.5-0.5-0.5-0.9c0-0.4,0.1-0.7,0.4-0.9c0.2-0.2,0.6-0.3,1.1-0.3h3v1.1
		C536.7,304.9,536.5,305.3,536,305.5z"/>
	<path class="st0" d="M556.9,300.9c-0.6-0.2-1.4-0.3-2.4-0.4c0,0-0.1,0-0.1,0c0,0-0.1,0-0.1,0c-0.1,0-0.1,0-0.2,0
		c-0.1,0-0.1,0-0.2,0c-0.6-0.1-1-0.1-1.3-0.2c-0.3-0.1-0.5-0.1-0.7-0.3c-0.2-0.1-0.3-0.3-0.3-0.5c0-0.3,0.2-0.5,0.6-0.6
		c0.4-0.2,0.9-0.2,1.5-0.2c0.5,0,1.1,0.1,1.7,0.3s1.2,0.4,1.7,0.7l2-2.4c-0.5-0.3-1-0.6-1.6-0.9c-0.6-0.2-1.2-0.4-1.8-0.6
		c-0.6-0.1-1.3-0.2-1.9-0.2c-1.1,0-2,0.2-2.8,0.5c-0.8,0.3-1.3,0.8-1.7,1.3c-0.4,0.6-0.6,1.3-0.6,2.1c0,0.9,0.2,1.7,0.6,2.2
		c0.4,0.5,0.9,0.8,1.4,1c0.6,0.2,1.3,0.3,2.2,0.4c0,0,0.1,0,0.1,0c0,0,0.1,0,0.1,0c0.2,0,0.3,0,0.4,0c0.1,0,0.3,0,0.4,0
		c0.5,0,0.9,0.1,1.2,0.2c0.3,0.1,0.5,0.2,0.7,0.3c0.2,0.1,0.3,0.4,0.3,0.6c0,0.3-0.2,0.5-0.6,0.7c-0.4,0.2-1,0.3-1.8,0.3
		c-0.6,0-1.2-0.1-1.9-0.3c-0.7-0.2-1.3-0.5-1.9-0.9l-2,2.5c0.5,0.4,1,0.7,1.6,0.9c0.6,0.3,1.3,0.4,2,0.6c0.7,0.1,1.4,0.2,2.2,0.2
		c1.1,0,2.1-0.2,2.9-0.5c0.8-0.3,1.4-0.8,1.8-1.4c0.4-0.6,0.6-1.4,0.6-2.2c0-1-0.2-1.8-0.6-2.3C558,301.4,557.5,301.1,556.9,300.9z"
		/>
	<path class="st0" d="M575.8,296.2c-0.8-0.4-1.8-0.6-2.9-0.6c-1.1,0-2.1,0.2-2.9,0.6s-1.4,1-1.8,1.8c-0.4,0.8-0.6,1.8-0.6,2.9v2
		c0,1.1,0.2,2.1,0.6,2.9c0.4,0.8,1,1.4,1.8,1.9s1.8,0.6,2.9,0.6c1.1,0,2.1-0.2,2.9-0.6s1.4-1,1.8-1.8c0.4-0.8,0.6-1.8,0.6-2.9V301
		c0-1.1-0.2-2.1-0.6-2.9C577.2,297.3,576.6,296.7,575.8,296.2z M575,303c0,0.7-0.2,1.2-0.6,1.6c-0.4,0.4-0.9,0.6-1.5,0.6
		c-0.7,0-1.2-0.2-1.5-0.6c-0.4-0.4-0.5-0.9-0.5-1.6V301c0-0.7,0.2-1.2,0.5-1.6c0.4-0.4,0.9-0.6,1.5-0.6c0.7,0,1.2,0.2,1.5,0.6
		c0.4,0.4,0.6,0.9,0.6,1.6V303z"/>
	<path class="st0" d="M591,299.4c0.5-0.4,1.1-0.7,1.9-0.7c0.4,0,0.9,0.1,1.3,0.2c0.4,0.2,0.8,0.4,1.1,0.7l2.1-2.1
		c-0.3-0.4-0.7-0.8-1.2-1.1c-0.5-0.3-1-0.5-1.6-0.7c-0.6-0.2-1.2-0.2-1.9-0.2c-1.2,0-2.2,0.2-3,0.7c-0.8,0.4-1.5,1.1-1.9,1.9
		c-0.4,0.9-0.7,1.9-0.7,3.1v1.3c0,1.2,0.2,2.3,0.7,3.1c0.4,0.9,1.1,1.5,1.9,2c0.8,0.5,1.9,0.7,3,0.7c0.7,0,1.3-0.1,1.9-0.2
		c0.6-0.2,1.1-0.4,1.6-0.7c0.5-0.3,0.9-0.6,1.2-1.1l-2.1-2.2c-0.3,0.3-0.6,0.6-1.1,0.7s-0.8,0.3-1.3,0.3c-0.8,0-1.5-0.2-1.9-0.7
		c-0.5-0.5-0.7-1.1-0.7-1.9v-1.3C590.3,300.5,590.5,299.9,591,299.4z"/>
	<rect x="605.5" y="290.8" class="st0" width="3.3" height="3.3"/>
	<rect x="605.5" y="295.8" class="st0" width="3.3" height="12.4"/>
	<path class="st0" d="M625.5,296.2c-0.8-0.4-1.7-0.5-2.8-0.5c-1,0-1.9,0.2-2.7,0.5c-0.8,0.3-1.5,0.8-2,1.3l2,2
		c0.4-0.3,0.8-0.5,1.2-0.6c0.5-0.2,0.9-0.2,1.4-0.2c0.7,0,1.2,0.2,1.6,0.5c0.4,0.3,0.6,0.8,0.6,1.3v0.5h-3c-1.5,0-2.6,0.3-3.3,0.9
		c-0.7,0.6-1.1,1.5-1.1,2.8c0,1.3,0.3,2.3,1,2.9c0.7,0.6,1.7,1,3,1c0.6,0,1.2-0.1,1.7-0.2c0.5-0.2,1-0.4,1.4-0.7
		c0.2-0.1,0.3-0.3,0.4-0.4v1.2h3v-8c0-1-0.2-1.8-0.6-2.5S626.2,296.5,625.5,296.2z M624.2,305.5c-0.4,0.2-1.1,0.3-2,0.3
		c-0.6,0-1.1-0.1-1.4-0.3c-0.3-0.2-0.5-0.5-0.5-0.9c0-0.4,0.1-0.7,0.4-0.9c0.2-0.2,0.6-0.3,1.1-0.3h3v1.1
		C624.8,304.9,624.6,305.3,624.2,305.5z"/>
	<path class="st0" d="M643.9,297.5c-0.3-0.5-0.6-1-1.1-1.3c-0.5-0.4-1.2-0.6-1.8-0.6c-0.9,0-1.6,0.2-2.3,0.6s-1.1,1-1.4,1.9
		c-0.3,0.8-0.5,1.8-0.5,2.9v2c0,1.1,0.2,2.1,0.5,2.9c0.3,0.8,0.8,1.4,1.4,1.8s1.4,0.6,2.3,0.6c0.7,0,1.4-0.2,1.9-0.6
		c0.4-0.3,0.8-0.7,1-1.3v1.6h3.3v-17.4h-3.3V297.5z M643.7,304.5c-0.1,0.3-0.4,0.5-0.6,0.7c-0.3,0.2-0.6,0.2-1,0.2
		c-0.6,0-1.1-0.2-1.4-0.6c-0.3-0.4-0.5-1-0.5-1.7v-2c0-0.8,0.2-1.3,0.5-1.8c0.3-0.4,0.8-0.6,1.4-0.6c0.4,0,0.7,0.1,1,0.2
		c0.3,0.2,0.5,0.4,0.6,0.7c0.1,0.3,0.2,0.7,0.2,1.1v2.8C643.9,303.8,643.8,304.2,643.7,304.5z"/>
	<path class="st0" d="M664.5,296.2c-0.8-0.4-1.8-0.6-2.9-0.6c-1.1,0-2.1,0.2-2.9,0.6s-1.4,1-1.8,1.8c-0.4,0.8-0.6,1.8-0.6,2.9v2
		c0,1.1,0.2,2.1,0.6,2.9c0.4,0.8,1,1.4,1.8,1.9s1.8,0.6,2.9,0.6c1.1,0,2.1-0.2,2.9-0.6s1.4-1,1.8-1.8c0.4-0.8,0.6-1.8,0.6-2.9V301
		c0-1.1-0.2-2.1-0.6-2.9C665.9,297.3,665.3,296.7,664.5,296.2z M663.6,303c0,0.7-0.2,1.2-0.6,1.6c-0.4,0.4-0.9,0.6-1.5,0.6
		c-0.7,0-1.2-0.2-1.5-0.6c-0.4-0.4-0.5-0.9-0.5-1.6V301c0-0.7,0.2-1.2,0.5-1.6c0.4-0.4,0.9-0.6,1.5-0.6c0.7,0,1.2,0.2,1.5,0.6
		c0.4,0.4,0.6,0.9,0.6,1.6V303z"/>
	<path class="st0" d="M685.5,302c-0.4-0.5-0.9-0.9-1.6-1.1c-0.6-0.2-1.4-0.3-2.4-0.4c0,0-0.1,0-0.1,0s-0.1,0-0.1,0
		c-0.1,0-0.1,0-0.2,0c-0.1,0-0.1,0-0.2,0c-0.6-0.1-1-0.1-1.3-0.2c-0.3-0.1-0.5-0.1-0.7-0.3c-0.2-0.1-0.3-0.3-0.3-0.5
		c0-0.3,0.2-0.5,0.6-0.6c0.4-0.2,0.9-0.2,1.5-0.2c0.5,0,1.1,0.1,1.7,0.3s1.2,0.4,1.7,0.7l2-2.4c-0.5-0.3-1-0.6-1.6-0.9
		c-0.6-0.2-1.2-0.4-1.8-0.6c-0.6-0.1-1.3-0.2-1.9-0.2c-1.1,0-2,0.2-2.8,0.5c-0.8,0.3-1.3,0.8-1.7,1.3c-0.4,0.6-0.6,1.3-0.6,2.1
		c0,0.9,0.2,1.7,0.6,2.2c0.4,0.5,0.9,0.8,1.4,1c0.6,0.2,1.3,0.3,2.2,0.4c0,0,0.1,0,0.1,0c0,0,0.1,0,0.1,0c0.2,0,0.3,0,0.4,0
		c0.1,0,0.3,0,0.4,0c0.5,0,0.9,0.1,1.2,0.2c0.3,0.1,0.5,0.2,0.7,0.3c0.2,0.1,0.3,0.4,0.3,0.6c0,0.3-0.2,0.5-0.6,0.7
		c-0.4,0.2-1,0.3-1.8,0.3c-0.6,0-1.2-0.1-1.9-0.3c-0.7-0.2-1.3-0.5-1.9-0.9l-2,2.5c0.5,0.4,1,0.7,1.6,0.9c0.6,0.3,1.3,0.4,2,0.6
		c0.7,0.1,1.4,0.2,2.2,0.2c1.1,0,2.1-0.2,2.9-0.5c0.8-0.3,1.4-0.8,1.8-1.4c0.4-0.6,0.6-1.4,0.6-2.2
		C686.1,303.3,685.9,302.5,685.5,302z"/>
</g>
</svg>
