<?xml version="1.0" encoding="utf-8"?>
<!-- Generator: Adobe Illustrator 24.0.0, SVG Export Plug-In . SVG Version: 6.00 Build 0)  -->
<svg version="1.1" id="Capa_1" xmlns="http://www.w3.org/2000/svg" xmlns:xlink="http://www.w3.org/1999/xlink" x="0px" y="0px"
	 viewBox="0 0 820.8 496.8" style="enable-background:new 0 0 820.8 496.8;" xml:space="preserve">
<style type="text/css">
	.st0{fill:#FFFFFF;}
	.st1{fill:#B2B2B8;}
	.st2{fill:#0C0D0D;}
	.st3{fill:#FFFFFF;stroke:#1D1D1B;stroke-miterlimit:10;}
</style>
<g>
	
		<ellipse transform="matrix(0.7071 -0.7071 0.7071 0.7071 -2.4391 352.8881)" class="st0" cx="424.8" cy="179.4" rx="123.9" ry="123.9"/>
</g>
<g>
	<g>
		<path class="st1" d="M422.1,283.3c1.5,0.1,3,0.1,4.5,0.1c57.5,0,104.1-46.6,104.1-104.1c0-53.6-40.5-97.7-92.5-103.5
			c0,0,24.5,58.3-1.6,103.8c-26,45.5-14.5,102.6-14.5,102.6"/>
	</g>
	<g>
		<path class="st2" d="M426.6,286.3c-1.5,0-3.1,0-4.6-0.1l0.2-4l-2.9,0.6c-0.5-2.4-11.4-58.7,14.8-104.6
			c25-43.7,1.6-100.6,1.4-101.2l-1.9-4.6l4.9,0.5c54.2,6,95.1,51.7,95.1,106.4C533.6,238.3,485.6,286.3,426.6,286.3z M424.8,280.5
			c0.6,0,1.2,0,1.8,0c55.8,0,101.2-45.4,101.2-101.2c0-50.1-36.3-92.2-85.2-99.9c5.3,14.9,19,62.5-3.5,101.7
			C416,221.5,423.4,272.2,424.8,280.5z"/>
	</g>
</g>
<g>
	<path class="st3" d="M432.6,269.8"/>
</g>
<g>
	<path class="st3" d="M452.1,272.8"/>
</g>
<g>
	<g>
		<circle class="st2" cx="320.4" cy="151" r="2.2"/>
	</g>
	<g>
		<circle class="st2" cx="350.9" cy="116.1" r="2.2"/>
	</g>
	<g>
		<circle class="st2" cx="346" cy="188.1" r="2.2"/>
	</g>
	<g>
		<circle class="st2" cx="369.4" cy="151.1" r="2.2"/>
	</g>
	<g>
		<path class="st2" d="M393.1,181.4c-1.2,0-2.2,1-2.2,2.2c0,1.2,1,2.2,2.2,2.2c1.2,0,2.2-1,2.2-2.2
			C395.4,182.4,394.4,181.4,393.1,181.4z"/>
	</g>
	<g>
		<path class="st2" d="M377,223.5c-1.2,0-2.2,1-2.2,2.2c0,1.2,1,2.2,2.2,2.2c1.2,0,2.2-1,2.2-2.2C379.3,224.5,378.3,223.5,377,223.5
			z"/>
	</g>
	<g>
		<circle class="st2" cx="326.6" cy="223.5" r="2.2"/>
	</g>
	<g>
		<circle class="st2" cx="363.1" cy="85" r="2.2"/>
	</g>
	<g>
		<circle class="st2" cx="408.6" cy="85" r="2.2"/>
	</g>
	<g>
		<path class="st2" d="M393.1,112.9c-1.2,0-2.2,1-2.2,2.2c0,1.2,1,2.2,2.2,2.2c1.2,0,2.2-1,2.2-2.2
			C395.4,113.9,394.4,112.9,393.1,112.9z"/>
	</g>
	<g>
		<circle class="st2" cx="421.9" cy="137.5" r="2.2"/>
	</g>
	<g>
		<circle class="st2" cx="353.1" cy="260.7" r="2.2"/>
	</g>
	<g>
		<path class="st2" d="M385.4,267.6c-1.2,0-2.2,1-2.2,2.2c0,1.2,1,2.2,2.2,2.2c1.2,0,2.2-1,2.2-2.2
			C387.6,268.6,386.6,267.6,385.4,267.6z"/>
	</g>
</g>
<g>
	<g>
		<path class="st0" d="M231,436.5c-7.7-4.6-13.9-10.9-18.4-18.8c-4.5-7.9-6.8-16.6-6.7-26c0-9.3,2.3-17.9,6.9-25.8
			c4.6-7.9,10.8-14.1,18.5-18.8c7.8-4.6,16.3-6.9,25.5-6.9c7.4,0,14.3,1.5,20.8,4.5c6.5,3,12,7.1,16.7,12.3c0.4,0.4,0.6,0.9,0.6,1.4
			c0,0.7-0.2,1.2-0.7,1.6l-10.4,8.9c-0.5,0.5-1,0.7-1.6,0.7c-0.6,0-1.1-0.2-1.4-0.7c-3.1-3.4-6.7-6-10.8-7.9
			c-4.2-1.9-8.5-2.8-13.1-2.8c-5.9,0-11.4,1.5-16.5,4.5c-5,3-9.1,7.1-12,12.3c-3,5.2-4.5,10.8-4.5,16.8c0,6,1.4,11.6,4.4,16.8
			c3,5.2,6.9,9.3,12,12.3c5,3,10.5,4.6,16.4,4.6c4.4,0,8.6-0.8,12.5-2.5c3.9-1.7,7.4-4,10.5-7.1c0.9-0.8,1.8-1.1,2.7-1.1
			c0.9,0,1.5,0.2,2,0.7l2.7,2.3l5.7,5.2c1,0.7,1.4,1.6,1.4,2.7c0,0.7-0.2,1.2-0.7,1.7c-4.7,5.1-10.3,9-16.6,11.8
			c-6.4,2.8-13.2,4.2-20.4,4.2C247.2,443.4,238.7,441.1,231,436.5z"/>
	</g>
	<g>
		<path class="st0" d="M306.9,441.5c-0.5-0.5-0.8-1.1-0.8-1.8l0.3-95.4c0-0.8,0.3-1.4,0.9-1.9c0.6-0.5,1.2-0.8,1.9-0.8l14.4,0
			c0.7,0,1.3,0.3,1.8,0.8c0.5,0.5,0.8,1.2,0.8,1.9l-0.3,95.4c0,0.7-0.2,1.3-0.7,1.8c-0.5,0.5-1.1,0.8-1.9,0.8l-14.4,0
			C308.1,442.3,307.4,442.1,306.9,441.5z"/>
	</g>
	<g>
		<path class="st0" d="M348.4,440.3l0.3-77.6c0-1-0.3-1.7-1-2.4c-0.7-0.6-1.5-0.9-2.4-0.9l-8.2,0c-0.5,0-0.9-0.2-1.3-0.6
			c-0.4-0.4-0.6-0.9-0.6-1.4l0-13.4c0-0.6,0.2-1.1,0.6-1.4c0.4-0.4,0.8-0.6,1.3-0.6l62.8,0.2c0.5,0,0.9,0.2,1.3,0.6
			c0.4,0.4,0.6,0.9,0.6,1.4l0,13.4c0,0.6-0.2,1.1-0.6,1.4c-0.4,0.4-0.8,0.6-1.3,0.6l-26.9-0.1c-1,0-1.8,0.3-2.4,1
			c-0.7,0.7-1,1.4-1,2.3l-0.3,77.6c0,0.6-0.2,1-0.6,1.4c-0.4,0.3-0.8,0.5-1.3,0.5l-17.1-0.1C349,442.2,348.4,441.6,348.4,440.3z"/>
	</g>
	<g>
		<path class="st0" d="M412.7,442c-0.5-0.5-0.8-1.1-0.8-1.9l0.2-50.2c0-0.8,0.3-1.4,0.8-1.9c0.5-0.5,1.2-0.8,1.9-0.8l29.8,0.1
			c3.8,0,7.1-1.3,9.7-3.8c2.6-2.6,4-5.7,4-9.3c0-3.7-1.3-6.9-3.9-9.5c-2.6-2.6-5.9-3.9-9.7-3.9l-12.1,0c-1.1,0-1.9,0.4-2.7,1.1
			c-0.7,0.7-1.1,1.6-1.1,2.5l0,3.6c0,1-0.3,1.8-1,2.5c-0.7,0.7-1.5,1.1-2.6,1.1l-9.5,0c-1,0-1.8-0.4-2.5-1.1
			c-0.7-0.7-1.1-1.6-1.1-2.5l0.1-23.1c0-0.8,0.3-1.4,0.8-1.9c0.5-0.5,1.2-0.8,1.9-0.8l29.8,0.1c5.9,0,11.4,1.5,16.4,4.4
			c5,2.9,8.9,6.8,11.8,11.7c2.9,4.9,4.4,10.3,4.3,16.1c0,5-1.2,9.7-3.4,14.1c-2.3,4.4-5.4,8.1-9.3,11c-0.6,0.4-0.9,0.9-0.9,1.4
			s0,1.1,0.1,1.4l16.6,37.3c0.4,0.7,0.6,1.3,0.6,1.9c0,1.1-0.7,1.6-2,1.6l-11.8,0c-1.1,0-1.8-0.1-2.4-0.3c-0.5-0.2-1-0.7-1.4-1.4
			l-14.8-33.7c-0.3-0.6-0.7-1-1.1-1.2c-0.5-0.2-1.4-0.3-2.9-0.3l-12.2,0c-1.1,0-2,0.2-2.7,0.5c-0.6,0.3-0.9,1-0.9,2.1l-0.1,31.6
			c0,0.8-0.3,1.4-0.8,1.9c-0.5,0.5-1.2,0.7-1.9,0.7l-11.2,0C413.9,442.7,413.2,442.4,412.7,442z"/>
	</g>
	<g>
		<path class="st0" d="M504.5,439.2c-5.4-3.2-9.7-7.5-12.9-13c-3.2-5.5-4.8-11.4-4.8-17.8l0.1-27.9c0-0.8,0.3-1.4,0.8-1.9
			c0.5-0.5,1.1-0.7,1.8-0.7l13.5,0c0.8,0,1.4,0.2,1.9,0.7c0.5,0.5,0.7,1.1,0.7,1.9l-0.1,27.9c0,4.8,1.6,8.8,4.8,12.2
			c3.2,3.3,7.2,5,11.9,5c3.6,0,7-0.7,10.1-2.3c3.1-1.5,5.5-3.6,7.3-6.2c1.8-2.6,2.7-5.5,2.8-8.5l0.2-63.8c0-0.7,0.3-1.3,0.8-1.8
			c0.5-0.5,1.2-0.8,1.9-0.8l13.2,0c0.8,0,1.4,0.3,1.9,0.8c0.5,0.5,0.8,1.1,0.8,1.8l-0.2,63.8c0,6.5-1.7,12.5-5,17.9
			c-3.3,5.4-7.9,9.7-13.8,12.8c-5.9,3.1-12.6,4.7-20.1,4.7C515.9,444,509.9,442.4,504.5,439.2z M487.8,358.9
			c-0.5-0.5-0.8-1.1-0.8-1.8l0-12.5c0-0.8,0.3-1.4,0.8-1.9c0.5-0.5,1.1-0.7,1.8-0.7l13.5,0c0.8,0,1.4,0.2,1.9,0.7
			c0.5,0.5,0.7,1.1,0.7,1.9l0,12.5c0,0.7-0.2,1.3-0.7,1.8c-0.5,0.5-1.1,0.8-1.9,0.8l-13.5,0C489,359.7,488.4,359.4,487.8,358.9z"/>
	</g>
	<g>
		<path class="st0" d="M582.9,423.4c0.1,0.3,0.2,0.6,0.1,1l-3.5,9.6c-0.2,0.5-0.5,0.8-1,1c-0.5,0.2-1,0.1-1.6-0.1
			c-3.3-1.4-5.5-2.7-6.6-3.6c-0.5-0.5-0.7-0.9-0.7-1.2c0-0.6,0.4-1.7,1.3-3.2c0.9-1.6,2.1-3.7,3.6-6.2c0.5-0.7,1.2-0.8,2-0.3
			l5.7,2.3C582.6,422.9,582.8,423.1,582.9,423.4z M630.1,394.2c3.5,1.9,6.4,4.5,8.5,7.8c2.1,3.3,3.2,7.7,3.2,13.3
			c0,5.4-1.5,10.1-4.4,14.2c-2.9,4.1-7.1,7.3-12.5,9.7c-5.4,2.3-11.6,3.5-18.6,3.5c-1.6,0-3.6-0.2-5.9-0.6c-1-0.1-1.6-0.4-2-0.8
			c-0.4-0.4-0.5-1.1-0.3-1.9l0.6-4.2c0.1-0.8,0.2-1.7,0.3-2.7c0.1-1,0.2-1.9,0.4-2.8c0.2-1.5,1.1-2.3,2.7-2.3l6,0.2
			c4.8,0,8.7-1.1,11.7-3.3c3-2.2,4.5-4.9,4.6-8.2c0-2.4-0.8-4.7-2.4-7.1c-1.1-1.3-3-2.6-5.7-3.9c-2.8-1.3-6.6-2.7-11.3-4.2
			c-7.3-2.5-13.2-4.9-17.7-7c-4.5-2.2-7.9-4.8-10.1-8c-2.7-4.2-4-8.6-4-13.1c0-4.7,1.4-9.1,4.1-13.4c2.7-4.2,6.6-7.7,11.5-10.5
			c4.9-2.8,10.5-4.5,16.8-5.2c4.6-0.2,9.1,0.1,13.5,0.9c4.4,0.8,8.2,1.9,11.5,3.5c3,1.5,5.7,3.4,8.3,5.6c0.5,0.4,0.9,0.8,1.1,1.3
			c0.3,0.5,0.4,0.8,0.3,1c-0.5,1.1-2.1,3.5-4.9,7.5l-1.7,2.4c-0.3,0.3-0.7,0.4-1.3,0.4c-0.5,0-1-0.1-1.4-0.4
			c-3.9-2.2-7.3-3.7-10.2-4.5c-3.4-1-6.7-1.5-10.1-1.5c-3.9,0-7.6,0.6-11.1,2c-2.6,1.2-4.6,2.7-6.1,4.5c-1.5,1.8-2.2,3.6-2.2,5.4
			c0,2.9,1.7,5.4,5,7.5c1.3,0.9,4,2.2,8,4c4,1.8,7.3,3.2,10.1,4.2C621.3,390.1,626.5,392.3,630.1,394.2z M633.8,365.9
			c0-0.1,0-0.1,0.1-0.1L633.8,365.9z"/>
	</g>
</g>
<g>
	<path class="st2" d="M438.1,210.1c-0.1,1.4-0.3,2.8-0.3,4.2c0,1.4,0,2.7,0.1,4c0.1,1.3,0.8,2.4,0.7,3.6c-0.1,1.2-0.2,2.3-0.6,4.2
		l-0.4,0.3c-1.9-0.5-3-2-3.6-3.5c-0.7-1.6-0.1-3.2,0.2-4.7c0.3-1.5,0.7-2.9,1.3-4.3c0.6-1.3,1.3-2.6,2.1-3.8L438.1,210.1z"/>
</g>
<g>
	<path class="st2" d="M458.8,191.7c1.4,0.7,2.8,1.3,4.3,1.9c1.4,0.6,2.8,1,4.2,1.5c1.4,0.4,3,0.3,4.2,1c1.3,0.7,2.5,1.3,4,2.7l0,0.5
		c-1.6,1.2-3.5,1.5-5.2,1.3c-1.7-0.1-3.2-1.3-4.5-2.1c-1.4-0.9-2.7-1.8-3.9-2.9c-1.2-1.1-2.3-2.2-3.3-3.5L458.8,191.7z"/>
</g>
<g>
	<path class="st2" d="M464.4,163.7c1.7-0.8,3.4-1.6,5.1-2.5c1.7-0.8,3.3-1.7,4.9-2.5c1.6-0.9,3-2.2,4.6-2.7c1.7-0.6,3.3-0.9,5.6-1.2
		l0.3,0.3c-0.2,1.2-0.7,2.2-1.4,3c-0.6,0.9-1.4,1.6-2.2,2.2c-1.6,1.3-3.7,1.5-5.5,2c-1.9,0.5-3.7,0.9-5.6,1.2
		c-1.9,0.3-3.8,0.5-5.7,0.6L464.4,163.7z"/>
</g>
<g>
	<circle class="st1" cx="316" cy="324.3" r="11.7"/>
</g>
<g>
	<path class="st2" d="M456,185.4l103.1,5.9l1-17.4l-99.7-5.7c-0.3-2.1-1-4.1-1.9-5.9l85.9-70.6l-11.1-13.5L458.2,140
		c2.1-48.4-35.3-90.7-35.8-91.2l-4.3,3.9c0.2,0.2,6.8,7.6,14.1,19.6c8.7,22.2,18.5,65.1-10.4,108.3c-41.5,62.3-2.9,123.9-2.9,123.9
		l13.5-0.4c1.7,3.7,3,5.8,3,5.9l5-3c-0.3-0.6-30.1-51.7-6.2-105.8l77.7,80l12.5-12.2l-75.5-77.6C451.7,189.9,454.1,187.9,456,185.4z
		"/>
</g>
<g>
	<path class="st2" d="M461.7,127.9c0.8-1.3,1.7-2.6,2.5-3.9c0.8-1.3,1.6-2.6,2.3-3.9c0.7-1.3,1-2.8,1.8-3.8c0.4-0.5,0.8-1.1,1.2-1.6
		c0.2-0.3,0.4-0.5,0.6-0.8c0.2-0.3,0.4-0.6,0.6-1.1l0.4-0.1c0.4,0.3,0.7,0.7,0.9,1.2c0.2,0.4,0.4,1,0.4,1.5c0.1,1,0,1.9-0.3,2.8
		c-0.5,1.7-1.9,2.8-2.9,4c-1.1,1.2-2.2,2.3-3.4,3.3c-1.2,1-2.4,2-3.8,2.8L461.7,127.9z"/>
</g>
</svg>
