<?xml version="1.0" encoding="utf-8"?>
<!-- Generator: Adobe Illustrator 24.0.0, SVG Export Plug-In . SVG Version: 6.00 Build 0)  -->
<svg version="1.1" id="Capa_1" xmlns="http://www.w3.org/2000/svg" xmlns:xlink="http://www.w3.org/1999/xlink" x="0px" y="0px"
	 viewBox="0 0 864 272.2" style="enable-background:new 0 0 864 272.2;" xml:space="preserve">
<style type="text/css">
	.st0{fill:#FFFFFF;}
	.st1{fill:#0F0F0F;}
</style>
<g>
	<g>
		<g>
			<path class="st0" d="M99.7,160.5c-5.6,0-11-1.1-16.1-3.3c-4.8-2.1-9.2-5-13-8.8c-3.8-3.7-6.7-8.1-8.8-13
				c-2.2-5-3.2-10.3-3.2-15.7c0-5.5,1.1-10.8,3.2-15.8c2.1-4.8,5.1-9.2,8.9-12.9c3.8-3.8,8.3-6.7,13.2-8.8c5.1-2.1,10.5-3.2,16-3.2
				c9,0,17.4,2.8,24.5,8.2c2.2,1.7,2.6,4.8,1,7c-1.7,2.2-4.9,2.6-7,1c-5.3-4.1-11.6-6.2-18.4-6.2c-4.2,0-8.3,0.8-12.2,2.4
				c-3.7,1.6-7.1,3.8-10,6.7c-2.8,2.8-5.1,6.1-6.7,9.8c-1.6,3.7-2.4,7.7-2.4,11.8s0.8,8,2.4,11.8c1.6,3.7,3.8,7,6.7,9.8
				c5.9,5.9,13.7,9.2,22.1,9.2c3.7,0,7.2-0.7,10.6-1.9c3.3-1.2,6.3-3,9-5.2c2.1-1.8,5.2-1.5,7,0.6c1.8,2.1,1.5,5.3-0.6,7
				c-3.6,3-7.6,5.3-11.9,6.9C109.3,159.6,104.5,160.5,99.7,160.5z"/>
			<path class="st0" d="M302.9,159.5c-1.5,0-2.9-0.7-3.9-1.8l-48.4-58.3v54.9c0,2.8-2.2,5-5,5s-5-2.2-5-5V85.5c0-2.1,1.3-4,3.3-4.7
				s4.2-0.1,5.5,1.5l48.5,58.2V85.7c0-2.8,2.2-5,5-5c2.7,0,5,2.2,5,5v68.8c0,2.1-1.4,3.9-3.3,4.7C304,159.4,303.4,159.5,302.9,159.5
				z"/>
			<path class="st0" d="M365.2,160.5c-5.6,0-11-1.1-16.1-3.3c-4.8-2.1-9.2-5-13-8.8c-3.8-3.7-6.7-8.1-8.8-13
				c-2.2-5-3.2-10.3-3.2-15.7c0-5.5,1.1-10.8,3.2-15.8c2.1-4.8,5.1-9.2,8.9-12.9c3.8-3.8,8.3-6.7,13.2-8.8c5.1-2.1,10.5-3.2,16-3.2
				c9,0,17.4,2.8,24.5,8.2c2.2,1.7,2.6,4.8,1,7c-1.7,2.2-4.9,2.6-7,1c-5.3-4.1-11.6-6.2-18.4-6.2c-4.2,0-8.3,0.8-12.2,2.4
				c-3.7,1.6-7.1,3.8-10,6.7c-2.8,2.8-5.1,6.1-6.7,9.8c-1.6,3.7-2.4,7.7-2.4,11.8s0.8,8,2.4,11.8c1.6,3.7,3.8,7,6.7,9.8
				c5.9,5.9,13.7,9.2,22.1,9.2c3.7,0,7.2-0.7,10.6-1.9c3.3-1.2,6.3-3,9-5.2c2.1-1.8,5.2-1.5,7,0.6s1.5,5.3-0.6,7
				c-3.6,3-7.6,5.3-11.9,6.9C374.8,159.6,370,160.5,365.2,160.5z"/>
			<path class="st0" d="M467,154.1c0,2.8-2.2,5-5,5h-47.9c-2.7,0-5-2.2-5-5V85.4c0-2.8,2.3-5,5-5H461c2.8,0,5,2.2,5,5s-2.2,5-5,5
				h-41.9v24.2h37.1c2.8,0,5,2.3,5,5c0,2.8-2.2,5-5,5h-37.1v24.5H462C464.8,149.1,467,151.3,467,154.1z"/>
			<path class="st0" d="M488.1,159.2c-2.7,0-5-2.2-5-5V85.4c0-2.8,2.3-5,5-5h29.8c0.4,0,2.8,0,5.9,0.8c4.4,1.1,8.3,3.3,11.3,6.2
				c2.2,2.2,4,4.9,5.2,8c1.3,3.4,2,7.3,2,11.6c0,9.5-4,16.7-11.5,21.1c-5.4,3.1-12.6,4.6-21.6,4.6c-2.7,0-5-2.2-5-5s2.3-5,5-5
				c7.1,0,12.7-1.1,16.5-3.3c4.4-2.5,6.5-6.4,6.5-12.3c0-4-0.8-7.3-2.2-9.8c-1.1-2-2.7-3.5-4.6-4.6c-3.6-2.1-7.3-2.2-7.6-2.2H493
				v63.8C493.1,157,490.9,159.2,488.1,159.2z"/>
			<path class="st0" d="M622.4,85.4c0,2.8-2.2,5-5,5h-22v63.8c0,2.8-2.3,5-5,5c-2.8,0-5-2.2-5-5V90.4h-22.1c-2.8,0-5-2.2-5-5
				s2.2-5,5-5h54C620.2,80.4,622.4,82.6,622.4,85.4z"/>
			<path class="st0" d="M643.5,159.2c-2.7,0-5-2.2-5-5V85.4c0-2.7,2.3-5,5-5c2.8,0,5,2.3,5,5v68.8
				C648.5,157,646.3,159.2,643.5,159.2z"/>
			<path class="st0" d="M823.9,159.5c-1.5,0-2.9-0.7-3.9-1.8l-48.4-58.3v54.9c0,2.8-2.2,5-5,5s-5-2.2-5-5V85.5c0-2.1,1.3-4,3.3-4.7
				s4.2-0.1,5.5,1.5l48.5,58.2V85.7c0-2.8,2.2-5,5-5c2.7,0,5,2.2,5,5v68.8c0,2.1-1.4,3.9-3.3,4.7C825,159.4,824.4,159.5,823.9,159.5
				z"/>
		</g>
		<g>
			<polygon class="st0" points="698.2,160 695.3,157.4 695.3,163 698.2,163 			"/>
			<path class="st0" d="M722.8,166.2c2.4-1,2.6-1.1,4.4-2.1l1.4-0.8c14-8.1,22.6-23.1,22.6-39.2c0-25-20.3-45.3-45.3-45.3
				s-45.3,20.3-45.3,45.3c0,1.9,1.6,3.5,3.5,3.5s3.5-1.6,3.5-3.5c0-21.1,17.2-38.3,38.3-38.3s38.3,17.2,38.3,38.3
				c0,13.6-7.3,26.4-19.2,33.2l-1.4,0.8c-0.3,0.2-0.5,0.3-0.7,0.4l0.1-7.1c0-1.1-0.6-2.1-1.6-2.5c-1-0.5-2.1-0.3-3,0.4l-4.6,3.8
				v-28.3c0-0.2,0-0.4,0-0.5c0-1.4-1.1-2.6-2.5-2.8c-1.4-0.2-2.7,0.8-3,2.2l0,0c0,0.2-0.1,0.4-0.1,0.6v0.4c-0.1,4.5-1.7,7-2.3,7.2
				c-0.7-0.2-2.4-2.9-2.4-7.7l0,0c0-1.5-1.2-2.8-2.8-2.8c-1.5,0-2.8,1.2-2.8,2.8l0,0l0,0v28.5l-3.8-3.5c-0.8-0.7-2-0.9-3-0.5
				c-1,0.5-1.7,1.5-1.7,2.6l0.1,11.9h-4.7l0,0h-1c-2.9,0-5.2,2.4-5.2,5.2v12.3c0,5.6,4.6,10.2,10.2,10.2L723,191v3.9
				c0,2.5-2.1,4.6-4.6,4.6h-22.2c-1.5,0-2.8,1.2-2.8,2.8c0,1.5,1.2,2.8,2.8,2.8h18.4h3.7c5.2,0,9.4-3.9,10.1-8.8
				c0.1-0.2,0.1-0.5,0.1-0.7v-4.9c0-2.9-2.4-5.3-5.3-5.3l-34.5-0.1c-2.5,0-4.6-2.1-4.6-4.6v-12h8.2c0.1,0,0.2,0,0.3,0h12.9
				c0.1,0,0.2,0,0.3,0c2.2,0,4.3-0.5,6.4-1.6c0.9-0.5,1.5-1.4,1.5-2.5v-4.4l3.5-2.9l-0.1,6.1c0,1,0.6,1.9,1.4,2.4
				c0.6,0.5,1.4,0.9,2.2,0.9c0.4,0,0.9-0.1,1.3-0.3L722.8,166.2z M708.4,136.8v12.9l-0.1-0.2c-0.5-0.8-1.4-1.3-2.3-1.2
				c-0.9,0-1.6,0.4-2.2,1.1v-12.6C705.2,137.4,706.9,137.4,708.4,136.8z M695.3,157.4l2.9,2.6v3h-2.9V157.4z M705.9,163L705.9,163
				L705.9,163c-0.8,0-1.5-0.1-2.2-0.3v-3.1l2.2-3.5l2.4,3.5v3C707.6,162.9,706.7,163.1,705.9,163z"/>
			<path class="st0" d="M692.7,175c-1.2,0-2.1,0.9-2.1,2.1s0.9,2.1,2.1,2.1h27.4c1.2,0,2.1-0.9,2.1-2.1s-0.9-2.1-2.1-2.1H692.7z"/>
		</g>
		<g>
			<path class="st0" d="M168.6,165.8c0.4,0.2,0.9,0.3,1.3,0.3c0.8,0,1.6-0.3,2.2-0.9c0.8-0.5,1.4-1.4,1.4-2.4l-0.1-6.1l3.5,2.9v4.4
				c0,1,0.6,2,1.5,2.5c2.1,1.1,4.2,1.6,6.4,1.6c0.1,0,0.2,0,0.3,0H198c0.1,0,0.2,0,0.3,0h8.2v12c0,2.5-2.1,4.6-4.6,4.6l-34.5,0.1
				c-2.9,0-5.3,2.4-5.3,5.3v4.9c0,0.2,0,0.5,0.1,0.7c0.7,5,4.9,8.8,10.1,8.8h3.7h18.4c1.5,0,2.8-1.2,2.8-2.8c0-1.5-1.2-2.8-2.8-2.8
				h-22.2c-2.5,0-4.6-2.1-4.6-4.6v-3.9l34.2-0.1c5.6,0,10.2-4.6,10.2-10.2v-12.3c0-2.9-2.4-5.2-5.2-5.2h-1l0,0h-4.7l0.1-11.9
				c0-1.1-0.6-2.1-1.7-2.6c-1-0.4-2.2-0.3-3,0.5l-3.8,3.5v-28.5l0,0l0,0c0-1.5-1.2-2.8-2.8-2.8c-1.5,0-2.8,1.2-2.8,2.8l0,0
				c0,4.8-1.7,7.5-2.4,7.7c-0.5-0.2-2.1-2.7-2.3-7.2v-0.4c0-0.2,0-0.4-0.1-0.6l0,0c-0.3-1.4-1.6-2.3-3-2.2c-1.4,0.2-2.5,1.3-2.5,2.8
				c0,0.2,0,0.4,0,0.5v28.3l-4.6-3.8c-0.8-0.7-2-0.8-3-0.4c-1,0.5-1.6,1.5-1.6,2.5l0.1,7.1c-0.2-0.1-0.4-0.2-0.7-0.4l-1.4-0.8
				c-11.8-6.8-19.2-19.6-19.2-33.2c0-21.1,17.2-38.3,38.3-38.3c21.1,0,38.3,17.2,38.3,38.3c0,1.9,1.6,3.5,3.5,3.5s3.5-1.6,3.5-3.5
				c0-25-20.3-45.3-45.3-45.3s-45.3,20.3-45.3,45.3c0,16.1,8.7,31.1,22.6,39.2l1.4,0.8c1.7,1,1.9,1.1,4.4,2.1L168.6,165.8z
				 M187.1,136.2v12.6c-0.5-0.7-1.3-1.1-2.2-1.1c-1-0.1-1.8,0.5-2.3,1.2l-0.1,0.2v-12.9C184,136.9,185.7,136.9,187.1,136.2z
				 M195.6,162.5h-2.9v-3l2.9-2.6V162.5z M182.5,162.1v-3l2.4-3.5l2.2,3.5v3.1c-0.7,0.2-1.4,0.3-2.1,0.3h-0.1l0,0
				C184.1,162.5,183.3,162.4,182.5,162.1z M192.7,162.5v-3l2.9-2.6v5.6H192.7z"/>
			<polygon class="st1" points="192.7,159.5 195.6,156.9 195.6,162.5 192.7,162.5 			"/>
			<polygon class="st1" points="698.2,160 695.3,157.4 695.3,163 698.2,163 			"/>
			<path class="st0" d="M198.2,174.5c1.2,0,2.1,0.9,2.1,2.1s-0.9,2.1-2.1,2.1h-27.4c-1.2,0-2.1-0.9-2.1-2.1s0.9-2.1,2.1-2.1H198.2z"
				/>
		</g>
	</g>
	<g>
		<path class="st0" d="M256.1,203.7c-1.3-0.8-2.4-1.9-3.1-3.3s-1.1-2.9-1.1-4.7c0-1.8,0.4-3.4,1.2-4.8s1.8-2.5,3.2-3.2
			c1.4-0.7,2.8-1.1,4.5-1.1c1.8,0,3.4,0.4,4.7,1.3c1.3,0.9,2.3,2.1,3,3.5l0.1-4.3h1.4v17.2h-1l-0.4-4.2c-0.7,1.5-1.7,2.6-3.1,3.5
			c-1.4,0.8-2.9,1.3-4.7,1.3C259,204.9,257.5,204.5,256.1,203.7z M264.8,202.4c1.1-0.7,2-1.6,2.6-2.8c0.6-1.2,0.9-2.5,0.9-3.9
			c0-1.5-0.3-2.9-1-4c-0.7-1.2-1.5-2.1-2.7-2.7c-1.1-0.6-2.4-1-3.8-1c-1.5,0-2.8,0.3-3.9,1c-1.1,0.7-2,1.6-2.6,2.8
			c-0.6,1.2-0.9,2.5-0.9,3.9c0,1.5,0.3,2.9,1,4c0.7,1.2,1.5,2.1,2.7,2.7c1.1,0.6,2.4,1,3.8,1C262.4,203.5,263.7,203.1,264.8,202.4z"
			/>
		<path class="st0" d="M279.3,210.6c-1.4-0.8-2.4-2-3.2-3.4l1.4-0.5c0.6,1.2,1.5,2.1,2.6,2.8s2.5,1,4,1c1.4,0,2.7-0.3,3.8-0.8
			c1.1-0.5,2-1.3,2.6-2.2c0.6-1,1-2.2,1-3.6V200c-0.7,1.5-1.7,2.7-3,3.5s-2.8,1.3-4.7,1.3c-1.8,0-3.3-0.4-4.7-1.2s-2.4-1.9-3.1-3.2
			c-0.7-1.4-1.1-2.9-1.1-4.6c0-1.8,0.4-3.4,1.2-4.8c0.8-1.4,1.8-2.5,3.2-3.2s2.8-1.1,4.5-1.1c1.8,0,3.4,0.4,4.7,1.3
			c1.3,0.9,2.3,2.1,3,3.5l0.1-4.3h1.4V204c0,1.7-0.4,3.1-1.1,4.3s-1.8,2.1-3.1,2.7c-1.3,0.6-2.9,0.9-4.7,0.9
			C282.3,211.9,280.7,211.4,279.3,210.6z M288,202.4c1.1-0.7,2-1.6,2.6-2.8c0.6-1.2,0.9-2.5,0.9-3.9c0-1.5-0.3-2.9-1-4
			c-0.7-1.2-1.6-2.1-2.7-2.7s-2.4-1-3.8-1c-1.5,0-2.8,0.3-3.9,1s-2,1.6-2.6,2.8c-0.6,1.2-0.9,2.5-0.9,3.9c0,1.5,0.3,2.9,1,4
			c0.7,1.2,1.5,2.1,2.7,2.7s2.4,1,3.8,1C285.6,203.5,286.9,203.1,288,202.4z"/>
		<path class="st0" d="M302.7,203.7c-1.4-0.8-2.4-1.9-3.2-3.3c-0.8-1.4-1.1-3-1.1-4.7c0-1.8,0.4-3.4,1.2-4.8
			c0.8-1.4,1.9-2.5,3.2-3.2c1.4-0.8,2.9-1.1,4.6-1.1c1.6,0,3.1,0.3,4.4,1s2.4,1.7,3.1,3s1.2,2.8,1.2,4.6c0,0.3,0,0.6,0,0.9h-16
			c0,1.5,0.3,2.8,1,4c0.7,1.1,1.5,2,2.7,2.6s2.4,0.9,3.8,0.9c1.5,0,2.8-0.3,3.9-1s2-1.6,2.6-2.8l1.4,0.6c-0.7,1.4-1.8,2.5-3.2,3.3
			c-1.4,0.8-3,1.2-4.8,1.2C305.6,204.9,304.1,204.5,302.7,203.7z M313.5,191.3c-0.6-1.1-1.4-1.9-2.5-2.5s-2.3-0.9-3.6-0.9
			c-1.4,0-2.6,0.3-3.7,0.9s-2,1.4-2.6,2.5s-1,2.2-1.1,3.6h14.5C314.4,193.6,314.1,192.4,313.5,191.3z"/>
		<path class="st0" d="M322.2,187.2l0.1,4c0.4-0.9,0.9-1.7,1.5-2.3c0.7-0.7,1.4-1.2,2.3-1.6s1.8-0.6,2.8-0.6c1.4,0,2.6,0.3,3.6,0.9
			s1.9,1.5,2.4,2.6c0.6,1.1,0.9,2.3,0.9,3.6v10.7h-1.5v-10.8c0-1.1-0.3-2-0.8-2.9s-1.2-1.5-2-2c-0.9-0.5-1.8-0.7-2.8-0.7
			c-1.2,0-2.3,0.3-3.2,0.9c-1,0.6-1.7,1.3-2.3,2.3c-0.5,1-0.8,2-0.8,3.1v10h-1.5v-17.2L322.2,187.2L322.2,187.2z"/>
		<path class="st0" d="M344.9,203.7c-1.4-0.8-2.4-1.9-3.2-3.3c-0.7-1.4-1.1-2.9-1.1-4.7c0-1.8,0.4-3.4,1.2-4.8
			c0.8-1.4,1.9-2.5,3.2-3.2c1.4-0.8,2.9-1.1,4.6-1.1c1.8,0,3.4,0.4,4.8,1.3c1.3,0.9,2.4,2.1,3.1,3.6l-1.4,0.5
			c-0.6-1.2-1.5-2.2-2.6-2.9c-1.1-0.7-2.4-1-3.9-1s-2.8,0.3-3.9,1s-2,1.6-2.6,2.8c-0.6,1.2-0.9,2.5-0.9,3.9c0,1.5,0.3,2.9,1,4
			c0.7,1.2,1.6,2.1,2.7,2.7s2.4,1,3.8,1c1.5,0,2.9-0.4,4-1.1c1.2-0.7,2-1.7,2.6-2.8l1.4,0.5c-0.7,1.5-1.8,2.7-3.2,3.5
			s-3,1.3-4.9,1.3C347.8,204.9,346.3,204.5,344.9,203.7z"/>
		<path class="st0" d="M362,182.6c-0.3-0.3-0.4-0.6-0.4-1s0.1-0.7,0.4-1s0.6-0.4,1-0.4s0.7,0.1,1,0.4s0.4,0.6,0.4,1s-0.1,0.7-0.4,1
			s-0.6,0.4-1,0.4S362.3,182.9,362,182.6z M362.3,187.2h1.5v17.2h-1.5V187.2z"/>
		<path class="st0" d="M372.9,203.7c-1.3-0.8-2.4-1.9-3.1-3.3s-1.1-2.9-1.1-4.7c0-1.8,0.4-3.4,1.2-4.8c0.8-1.4,1.8-2.5,3.2-3.2
			c1.3-0.8,2.8-1.1,4.5-1.1c1.8,0,3.4,0.4,4.7,1.3s2.3,2.1,3,3.5l0.1-4.3h1.4v17.2h-1l-0.4-4.2c-0.7,1.5-1.7,2.6-3.1,3.5
			c-1.4,0.8-2.9,1.3-4.7,1.3C375.8,204.9,374.3,204.5,372.9,203.7z M381.7,202.4c1.1-0.7,2-1.6,2.6-2.8c0.6-1.2,0.9-2.5,0.9-3.9
			c0-1.5-0.3-2.9-1-4c-0.7-1.2-1.5-2.1-2.7-2.7c-1.1-0.6-2.4-1-3.8-1c-1.5,0-2.8,0.3-3.9,1s-2,1.6-2.6,2.8s-0.9,2.5-0.9,3.9
			c0,1.5,0.3,2.9,1,4c0.7,1.2,1.5,2.1,2.7,2.7s2.4,1,3.8,1C379.2,203.5,380.5,203.1,381.7,202.4z"/>
		<path class="st0" d="M404.8,203.7c-1.3-0.8-2.4-1.9-3.1-3.3c-0.7-1.4-1.1-2.9-1.1-4.7c0-1.8,0.4-3.4,1.2-4.8s1.8-2.5,3.2-3.2
			c1.3-0.8,2.8-1.1,4.5-1.1c1.8,0,3.3,0.4,4.7,1.3c1.3,0.9,2.3,2,3,3.5v-11.7h1.5v24.6h-1l-0.4-4.2c-0.7,1.5-1.7,2.6-3,3.5
			c-1.4,0.8-2.9,1.3-4.7,1.3C407.7,204.9,406.2,204.5,404.8,203.7z M413.6,202.4c1.1-0.7,2-1.6,2.6-2.8c0.6-1.2,0.9-2.5,0.9-3.9
			c0-1.5-0.3-2.9-1-4c-0.7-1.2-1.5-2.1-2.7-2.7c-1.1-0.6-2.4-1-3.8-1c-1.5,0-2.8,0.3-3.9,1c-1.1,0.7-2,1.6-2.6,2.8s-0.9,2.5-0.9,3.9
			c0,1.5,0.3,2.9,1,4c0.7,1.2,1.5,2.1,2.7,2.7s2.4,1,3.8,1C411.1,203.5,412.4,203.1,413.6,202.4z"/>
		<path class="st0" d="M428.3,203.7c-1.4-0.8-2.4-1.9-3.2-3.3s-1.1-3-1.1-4.7c0-1.8,0.4-3.4,1.2-4.8s1.9-2.5,3.2-3.2
			c1.4-0.8,2.9-1.1,4.6-1.1c1.6,0,3.1,0.3,4.4,1c1.3,0.7,2.3,1.7,3.1,3s1.2,2.8,1.2,4.6c0,0.3,0,0.6,0,0.9h-16c0,1.5,0.3,2.8,1,4
			c0.7,1.1,1.5,2,2.7,2.6c1.1,0.6,2.4,0.9,3.8,0.9c1.5,0,2.8-0.3,3.9-1c1.1-0.7,2-1.6,2.6-2.8l1.4,0.6c-0.7,1.4-1.8,2.5-3.2,3.3
			s-3,1.2-4.8,1.2C431.3,204.9,429.7,204.5,428.3,203.7z M439.1,191.3c-0.6-1.1-1.4-1.9-2.5-2.5s-2.3-0.9-3.6-0.9
			c-1.4,0-2.6,0.3-3.7,0.9c-1.1,0.6-2,1.4-2.6,2.5s-1,2.2-1.1,3.6h14.5C440,193.6,439.7,192.4,439.1,191.3z"/>
		<path class="st0" d="M457,187.2l0.1,4.3c0.6-1.5,1.6-2.7,3-3.6s2.9-1.3,4.7-1.3s3.3,0.4,4.7,1.2s2.4,1.9,3.1,3.3
			c0.7,1.4,1.1,2.9,1.1,4.7c0,1.8-0.4,3.4-1.2,4.8s-1.8,2.5-3.2,3.2s-2.8,1.1-4.5,1.1c-1.8,0-3.3-0.4-4.6-1.2c-1.3-0.8-2.3-2-3-3.7
			v11.3h-1.5v-24.2h1.3V187.2z M468.6,202.4c1.1-0.7,2-1.6,2.6-2.8c0.6-1.2,0.9-2.5,0.9-3.9c0-1.5-0.3-2.9-1-4
			c-0.7-1.2-1.5-2.1-2.7-2.7c-1.1-0.6-2.4-1-3.8-1c-1.5,0-2.8,0.3-3.9,1c-1.1,0.7-2,1.6-2.6,2.8s-0.9,2.5-0.9,3.9c0,1.5,0.3,2.9,1,4
			c0.7,1.2,1.5,2.1,2.7,2.7c1.1,0.6,2.4,1,3.8,1C466.1,203.5,467.4,203.1,468.6,202.4z"/>
		<path class="st0" d="M481.9,203.9c-1.1-0.7-2-1.5-2.6-2.7c-0.6-1.1-0.9-2.4-0.9-3.9v-10.2h1.5v10.2c0,1.2,0.3,2.3,0.8,3.2
			c0.5,0.9,1.2,1.6,2.2,2.1c0.9,0.5,1.9,0.7,3,0.7c1.2,0,2.2-0.3,3.1-0.8s1.6-1.3,2.1-2.2s0.7-2,0.7-3.1V187h1.5v10.2
			c0,1.5-0.3,2.9-1,4c-0.6,1.1-1.5,2-2.7,2.6s-2.4,0.9-3.9,0.9C484.4,204.9,483,204.6,481.9,203.9z"/>
		<path class="st0" d="M504,203.6c-1.4-0.9-2.4-2-3.1-3.5l-0.3,4.2h-1v-24.6h1.5v11.7c0.6-1.5,1.6-2.7,3-3.5
			c1.3-0.9,2.9-1.3,4.7-1.3s3.3,0.4,4.7,1.2s2.4,1.9,3.1,3.3c0.7,1.4,1.1,2.9,1.1,4.7c0,1.8-0.4,3.4-1.2,4.8s-1.8,2.5-3.2,3.2
			s-2.8,1.1-4.5,1.1C506.9,204.9,505.3,204.5,504,203.6z M512.5,202.4c1.1-0.7,2-1.6,2.6-2.8c0.6-1.2,0.9-2.5,0.9-3.9
			c0-1.5-0.3-2.9-1-4c-0.7-1.2-1.5-2.1-2.7-2.7c-1.1-0.6-2.4-1-3.8-1c-1.5,0-2.8,0.3-3.9,1c-1.1,0.7-2,1.6-2.6,2.8s-0.9,2.5-0.9,3.9
			c0,1.5,0.3,2.9,1,4c0.7,1.2,1.5,2.1,2.7,2.7c1.1,0.6,2.4,1,3.8,1C510,203.5,511.3,203.1,512.5,202.4z"/>
		<path class="st0" d="M523,179.7h1.5v24.6H523V179.7z"/>
		<path class="st0" d="M531.1,182.6c-0.3-0.3-0.4-0.6-0.4-1s0.1-0.7,0.4-1s0.6-0.4,1-0.4s0.7,0.1,1,0.4s0.4,0.6,0.4,1
			s-0.1,0.7-0.4,1c-0.3,0.3-0.6,0.4-1,0.4C531.6,183,531.3,182.9,531.1,182.6z M531.3,187.2h1.5v17.2h-1.5V187.2z"/>
		<path class="st0" d="M542,203.7c-1.4-0.8-2.4-1.9-3.2-3.3c-0.7-1.4-1.1-2.9-1.1-4.7c0-1.8,0.4-3.4,1.2-4.8s1.9-2.5,3.2-3.2
			c1.4-0.8,2.9-1.1,4.6-1.1c1.8,0,3.4,0.4,4.8,1.3c1.3,0.9,2.4,2.1,3.1,3.6l-1.4,0.5c-0.6-1.2-1.5-2.2-2.6-2.9c-1.1-0.7-2.4-1-3.9-1
			s-2.8,0.3-3.9,1c-1.1,0.7-2,1.6-2.6,2.8c-0.6,1.2-0.9,2.5-0.9,3.9c0,1.5,0.3,2.9,1,4c0.7,1.2,1.6,2.1,2.7,2.7c1.1,0.6,2.4,1,3.8,1
			c1.5,0,2.9-0.4,4-1.1c1.2-0.7,2-1.7,2.6-2.8l1.4,0.5c-0.7,1.5-1.8,2.7-3.2,3.5s-3,1.3-4.9,1.3C544.9,204.9,543.4,204.5,542,203.7z
			"/>
		<path class="st0" d="M559.2,182.6c-0.3-0.3-0.4-0.6-0.4-1s0.1-0.7,0.4-1s0.6-0.4,1-0.4s0.7,0.1,1,0.4s0.4,0.6,0.4,1
			s-0.1,0.7-0.4,1c-0.3,0.3-0.6,0.4-1,0.4C559.7,183,559.4,182.9,559.2,182.6z M559.4,187.2h1.5v17.2h-1.5V187.2z"/>
		<path class="st0" d="M570.1,203.7c-1.3-0.8-2.4-1.9-3.1-3.3c-0.7-1.4-1.1-2.9-1.1-4.7c0-1.8,0.4-3.4,1.2-4.8s1.8-2.5,3.2-3.2
			c1.3-0.8,2.8-1.1,4.5-1.1c1.8,0,3.3,0.4,4.7,1.3c1.3,0.9,2.3,2,3,3.5v-11.7h1.5v24.6h-1l-0.4-4.2c-0.7,1.5-1.7,2.6-3,3.5
			c-1.4,0.8-2.9,1.3-4.7,1.3C572.9,204.9,571.4,204.5,570.1,203.7z M578.8,202.4c1.1-0.7,2-1.6,2.6-2.8c0.6-1.2,0.9-2.5,0.9-3.9
			c0-1.5-0.3-2.9-1-4c-0.7-1.2-1.5-2.1-2.7-2.7c-1.1-0.6-2.4-1-3.8-1c-1.5,0-2.8,0.3-3.9,1c-1.1,0.7-2,1.6-2.6,2.8s-0.9,2.5-0.9,3.9
			c0,1.5,0.3,2.9,1,4c0.7,1.2,1.5,2.1,2.7,2.7s2.4,1,3.8,1C576.4,203.5,577.7,203.1,578.8,202.4z"/>
		<path class="st0" d="M593.5,203.7c-1.3-0.8-2.4-1.9-3.1-3.3c-0.7-1.4-1.1-2.9-1.1-4.7c0-1.8,0.4-3.4,1.2-4.8s1.8-2.5,3.2-3.2
			c1.3-0.8,2.8-1.1,4.5-1.1c1.8,0,3.4,0.4,4.7,1.3s2.3,2.1,3,3.5l0.1-4.3h1.4v17.2h-1l-0.4-4.2c-0.7,1.5-1.7,2.6-3.1,3.5
			c-1.4,0.8-2.9,1.3-4.7,1.3C596.4,204.9,594.8,204.5,593.5,203.7z M602.2,202.4c1.1-0.7,2-1.6,2.6-2.8c0.6-1.2,0.9-2.5,0.9-3.9
			c0-1.5-0.3-2.9-1-4c-0.7-1.2-1.5-2.1-2.7-2.7c-1.1-0.6-2.4-1-3.8-1c-1.5,0-2.8,0.3-3.9,1c-1.1,0.7-2,1.6-2.6,2.8s-0.9,2.5-0.9,3.9
			c0,1.5,0.3,2.9,1,4c0.7,1.2,1.5,2.1,2.7,2.7s2.4,1,3.8,1C599.8,203.5,601.1,203.1,602.2,202.4z"/>
		<path class="st0" d="M616.5,203.7c-1.3-0.8-2.4-1.9-3.1-3.3c-0.7-1.4-1.1-2.9-1.1-4.7c0-1.8,0.4-3.4,1.2-4.8s1.8-2.5,3.2-3.2
			c1.3-0.8,2.8-1.1,4.5-1.1c1.8,0,3.3,0.4,4.7,1.3c1.3,0.9,2.3,2,3,3.5v-11.7h1.5v24.6h-1l-0.4-4.2c-0.7,1.5-1.7,2.6-3,3.5
			c-1.4,0.8-2.9,1.3-4.7,1.3C619.4,204.9,617.8,204.5,616.5,203.7z M625.2,202.4c1.1-0.7,2-1.6,2.6-2.8c0.6-1.2,0.9-2.5,0.9-3.9
			c0-1.5-0.3-2.9-1-4c-0.7-1.2-1.5-2.1-2.7-2.7c-1.1-0.6-2.4-1-3.8-1c-1.5,0-2.8,0.3-3.9,1c-1.1,0.7-2,1.6-2.6,2.8s-0.9,2.5-0.9,3.9
			c0,1.5,0.3,2.9,1,4c0.7,1.2,1.5,2.1,2.7,2.7s2.4,1,3.8,1C622.8,203.5,624.1,203.1,625.2,202.4z"/>
	</g>
</g>
</svg>
