<?xml version="1.0" encoding="utf-8"?>
<!-- Generator: Adobe Illustrator 24.0.0, SVG Export Plug-In . SVG Version: 6.00 Build 0)  -->
<svg version="1.1" id="Capa_1" xmlns="http://www.w3.org/2000/svg" xmlns:xlink="http://www.w3.org/1999/xlink" x="0px" y="0px"
	 viewBox="0 0 414.7 410.4" style="enable-background:new 0 0 414.7 410.4;" xml:space="preserve">
<style type="text/css">
	.st0{fill:#FFFFFF;}
</style>
<g>
	<path class="st0" d="M223.8,138.8c0-4.3-0.5-8.6-1.3-12.7c-18.4,10.3-30.8,29.9-30.8,52.4c0,4.3,0.5,8.6,1.3,12.7
		C211.3,181,223.8,161.3,223.8,138.8z"/>
	<path class="st0" d="M217.8,123.2c-5.8-27.1-29.9-47.4-58.7-47.4c-33.2,0-60,26.9-60,60c0,12,3.6,23.2,9.7,32.6
		c-3.2,20.2-18.5,27.3-18.5,27.3c14.5,2.3,28.2-2,39.2-7.7c8.7,5,18.8,7.8,29.6,7.8c10.6,0,20.6-2.8,29.2-7.6
		c-0.9-4.1-1.3-8.3-1.3-12.7C187,153.1,199.4,133.4,217.8,123.2z"/>
	<path class="st0" d="M319.9,250.5c0,0-16.7-7.6-18.8-30.1c9.8-10.7,15.8-24.9,15.8-40.6c0-33.2-26.9-60-60-60
		c-10.6,0-20.6,2.8-29.2,7.6c0.9,4.1,1.3,8.3,1.3,12.7c0,22.5-12.4,42.2-30.8,52.4c5.8,27.1,29.9,47.4,58.7,47.4
		c5.3,0,10.4-0.7,15.3-2C284.1,245.6,301.4,253.4,319.9,250.5z"/>
</g>
<g>
	<path class="st0" d="M65.9,282.8c2.6,1.6,4.5,3.8,5.7,6.4l-8.5,3.1c-1.1-2.2-3.3-3.6-6-3.6c-1.9,0-3.4,0.7-4.7,2
		c-1.3,1.3-1.9,2.9-1.9,4.8c0,1.9,0.6,3.6,1.9,4.9c1.3,1.3,2.8,1.9,4.7,1.9c2.7,0,5-1.4,6-3.6l8.5,3.1c-1.2,2.7-3.2,4.8-5.7,6.4
		c-2.6,1.6-5.5,2.4-8.8,2.4c-4.4,0-8.2-1.4-11.2-4.3c-3-2.9-4.5-6.5-4.5-10.8s1.5-7.9,4.5-10.8c3-2.9,6.7-4.4,11.2-4.4
		C60.4,280.4,63.4,281.2,65.9,282.8z"/>
	<path class="st0" d="M99.3,284.8c3,2.9,4.5,6.5,4.5,10.8s-1.5,7.9-4.5,10.8c-3,2.9-6.7,4.3-11.2,4.3c-4.4,0-8.2-1.4-11.2-4.3
		c-3-2.9-4.5-6.5-4.5-10.8s1.5-7.9,4.5-10.8c3-2.9,6.7-4.4,11.2-4.4C92.6,280.4,96.4,281.9,99.3,284.8z M83.5,300.4
		c1.3,1.3,2.8,1.9,4.7,1.9c1.9,0,3.5-0.6,4.7-1.9c1.3-1.3,1.9-3,1.9-4.9s-0.6-3.5-1.9-4.8s-2.8-2-4.7-2c-1.9,0-3.4,0.7-4.7,2
		c-1.3,1.3-1.9,2.9-1.9,4.8C81.6,297.5,82.2,299.1,83.5,300.4z"/>
	<path class="st0" d="M132.4,284.8c3,2.9,4.5,6.5,4.5,10.8s-1.5,7.9-4.5,10.8c-3,2.9-6.7,4.3-11.2,4.3c-4.4,0-8.2-1.4-11.2-4.3
		c-3-2.9-4.5-6.5-4.5-10.8s1.5-7.9,4.5-10.8c3-2.9,6.7-4.4,11.2-4.4C125.7,280.4,129.4,281.9,132.4,284.8z M116.5,300.4
		c1.3,1.3,2.8,1.9,4.7,1.9c1.9,0,3.5-0.6,4.7-1.9c1.3-1.3,1.9-3,1.9-4.9s-0.6-3.5-1.9-4.8s-2.8-2-4.7-2c-1.9,0-3.4,0.7-4.7,2
		c-1.3,1.3-1.9,2.9-1.9,4.8C114.6,297.5,115.3,299.1,116.5,300.4z"/>
	<path class="st0" d="M152.9,280.8c3.3,0,6,1,8.2,3s3.3,4.6,3.3,7.6c0,3.7-1.8,6.8-4.8,8.7l5.7,10.2h-9.7l-4.6-8.2h-3.6v8.2h-8.7
		v-29.5H152.9z M147.5,288.8v5.3h5.4c1.4,0,2.5-1.1,2.5-2.7c0-1.5-1.1-2.6-2.5-2.6H147.5z"/>
	<path class="st0" d="M166.9,310.3v-29.5h12.5c4.4,0,8.2,1.4,11.2,4.3c3,2.8,4.5,6.3,4.5,10.5s-1.5,7.7-4.5,10.5s-6.7,4.3-11.2,4.3
		L166.9,310.3L166.9,310.3z M175.6,288.8v13.5h3.8c1.9,0,3.4-0.6,4.7-1.9s1.9-2.9,1.9-4.8s-0.6-3.5-1.9-4.8s-2.8-2-4.7-2H175.6z"/>
	<path class="st0" d="M196.9,310.3v-29.5h8.7v29.5H196.9z"/>
	<path class="st0" d="M207.8,310.3v-29.5h7.8l11.1,14.6v-14.6h8.4v29.5h-7.8l-11.1-14.5v14.5H207.8z"/>
	<path class="st0" d="M258.3,310.3l-1.5-3.8h-10.2l-1.5,3.8H236l12.1-29.5h7.2l12.1,29.5H258.3z M251.8,293.4l-2.2,5.6h4.3
		L251.8,293.4z"/>
	<path class="st0" d="M290.2,282.8c2.6,1.6,4.5,3.8,5.7,6.4l-8.5,3.1c-1.1-2.2-3.3-3.6-6-3.6c-1.9,0-3.4,0.7-4.7,2s-1.9,2.9-1.9,4.8
		c0,1.9,0.6,3.6,1.9,4.9c1.3,1.3,2.8,1.9,4.7,1.9c2.7,0,5-1.4,6-3.6l8.5,3.1c-1.2,2.7-3.2,4.8-5.7,6.4c-2.6,1.6-5.5,2.4-8.8,2.4
		c-4.4,0-8.2-1.4-11.2-4.3c-3-2.9-4.5-6.5-4.5-10.8s1.5-7.9,4.5-10.8c3-2.9,6.7-4.4,11.2-4.4C284.7,280.4,287.7,281.2,290.2,282.8z"
		/>
	<path class="st0" d="M297.4,310.3v-29.5h8.7v29.5H297.4z"/>
	<path class="st0" d="M334.9,284.8c3,2.9,4.5,6.5,4.5,10.8s-1.5,7.9-4.5,10.8c-3,2.9-6.7,4.3-11.2,4.3c-4.4,0-8.2-1.4-11.2-4.3
		c-3-2.9-4.5-6.5-4.5-10.8s1.5-7.9,4.5-10.8c3-2.9,6.7-4.4,11.2-4.4C328.2,280.4,331.9,281.9,334.9,284.8z M319,300.4
		c1.3,1.3,2.8,1.9,4.7,1.9s3.5-0.6,4.7-1.9c1.3-1.3,1.9-3,1.9-4.9s-0.6-3.5-1.9-4.8c-1.3-1.3-2.8-2-4.7-2s-3.4,0.7-4.7,2
		s-1.9,2.9-1.9,4.8C317.2,297.5,317.8,299.1,319,300.4z M319,275.2l9.5-6.1l3.4,5.6l-10.4,4.4L319,275.2z"/>
	<path class="st0" d="M341.3,310.3v-29.5h7.8l11.1,14.6v-14.6h8.4v29.5h-7.8l-11.1-14.5v14.5H341.3z"/>
	<path class="st0" d="M72.1,360.9v-29.5h12.5c4.4,0,8.2,1.4,11.2,4.3c3,2.8,4.5,6.3,4.5,10.5s-1.5,7.7-4.5,10.5s-6.7,4.3-11.2,4.3
		L72.1,360.9L72.1,360.9z M80.8,339.4v13.5h3.8c1.9,0,3.4-0.6,4.7-1.9s1.9-2.9,1.9-4.8s-0.6-3.5-1.9-4.8s-2.8-2-4.7-2H80.8z"/>
	<path class="st0" d="M127.9,331.4v8H114v2.7h11.3v8H114v2.8h14.1v8h-22.8v-29.5H127.9z"/>
	<path class="st0" d="M145.4,360.9v-29.5h8.7v29.5H145.4z"/>
	<path class="st0" d="M159.4,360.9v-29.5h12.5c4.4,0,8.2,1.4,11.2,4.3c3,2.8,4.5,6.3,4.5,10.5s-1.5,7.7-4.5,10.5s-6.7,4.3-11.2,4.3
		L159.4,360.9L159.4,360.9z M168.1,339.4v13.5h3.8c1.9,0,3.4-0.6,4.7-1.9s1.9-2.9,1.9-4.8s-0.6-3.5-1.9-4.8s-2.8-2-4.7-2H168.1z"/>
	<path class="st0" d="M192.6,360.9v-29.5h8.7v29.5H192.6z"/>
	<path class="st0" d="M233.2,335.3c3,2.9,4.5,6.5,4.5,10.8s-1.5,7.9-4.5,10.8c-3,2.9-6.7,4.3-11.2,4.3c-4.4,0-8.2-1.4-11.2-4.3
		c-3-2.9-4.5-6.5-4.5-10.8s1.5-7.9,4.5-10.8c3-2.9,6.7-4.4,11.2-4.4C226.5,331,230.2,332.4,233.2,335.3z M217.3,351
		c1.3,1.3,2.8,1.9,4.7,1.9s3.5-0.6,4.7-1.9c1.3-1.3,1.9-3,1.9-4.9s-0.6-3.5-1.9-4.8c-1.3-1.3-2.8-2-4.7-2s-3.4,0.7-4.7,2
		s-1.9,2.9-1.9,4.8C215.5,348,216.1,349.7,217.3,351z"/>
	<path class="st0" d="M242.8,360.9v-29.5h8.5l8.6,15.3l8.6-15.3h8.5v29.5h-8.5v-13.4l-5.7,10.7H257l-5.7-10.7v13.4H242.8z"/>
	<path class="st0" d="M303.4,360.9l-1.5-3.8h-10.2l-1.5,3.8h-9.1l12.1-29.5h7.2l12.1,29.5H303.4z M296.9,343.9l-2.2,5.6h4.3
		L296.9,343.9z"/>
	<path class="st0" d="M328.5,339.9c-0.2-0.8-1.2-1.3-2.2-1.3s-1.7,0.4-1.7,1.1c0,0.5,0.3,0.8,1.1,1.2l1.2,0.4c0.7,0.2,2.4,0.7,3.3,1
		c2.2,0.7,3.8,1.4,5.6,2.9c1.8,1.4,2.8,3.7,2.8,6.5c0,3-1.1,5.3-3.1,7.1c-2.1,1.7-4.8,2.6-8.1,2.6c-3.1,0-5.8-0.8-8.1-2.3
		s-3.7-3.5-4.3-6l8.9-1.5c0.3,1.2,1.8,2.1,3.6,2.1c1.3,0,2.4-0.5,2.4-1.2c0-0.4-0.3-0.7-1.1-1.1l-1.1-0.4c-0.3-0.1-0.8-0.3-1.6-0.5
		l-1.6-0.5c-2.4-0.8-3.9-1.5-5.8-3c-1.9-1.5-2.9-3.7-2.9-6.6c0-2.8,0.9-5.1,2.8-6.8c1.9-1.7,4.4-2.6,7.5-2.6c2.7,0,5.1,0.7,7.2,2.1
		c2.1,1.4,3.4,3.2,3.8,5.4L328.5,339.9z"/>
</g>
</svg>
