<?xml version="1.0" encoding="utf-8"?>
<!-- Generator: Adobe Illustrator 24.0.0, SVG Export Plug-In . SVG Version: 6.00 Build 0)  -->
<svg version="1.1" id="Capa_1" xmlns="http://www.w3.org/2000/svg" xmlns:xlink="http://www.w3.org/1999/xlink" x="0px" y="0px"
	 viewBox="0 0 691.2 306.7" style="enable-background:new 0 0 691.2 306.7;" xml:space="preserve">
<style type="text/css">
	.st0{fill:#FFFFFF;}
</style>
<g>
	<g>
		<path class="st0" d="M187.5,66.4c0-4.9-4-8.9-8.9-8.9h-58.9c-4.9,0-8.9,4-8.9,8.9v46.7H64.1c-4.9,0-8.9,4-8.9,8.9v59
			c0,1.1,0.2,2.1,0.6,3.1c0.9-0.1,152.6-14.3,172.5-70.9h-40.8L187.5,66.4L187.5,66.4z"/>
		<path class="st0" d="M234.2,113.2h-5.9c-3.2,60.8-117.5,76.7-117.5,76.7v46.7c0,4.9,4,8.9,8.9,8.9h58.9c4.9,0,8.9-4,8.9-8.9v-46.7
			h46.7c4.9,0,8.9-4,8.9-8.9v-58.9C243.1,117.1,239.1,113.2,234.2,113.2z"/>
	</g>
</g>
<g>
	<path class="st0" d="M306.6,152.6l4.1,7.1c-4.1,2.5-8.8,3.9-14,3.9c-14.8,0-26.8-12-26.8-26.8s12-26.8,26.8-26.8
		c5.1,0,9.9,1.4,14,3.9l-4.1,7.1c-2.9-1.8-6.3-2.9-9.9-2.9c-10.3,0-18.6,8.3-18.6,18.6s8.3,18.6,18.6,18.6
		C300.3,155.4,303.7,154.4,306.6,152.6z"/>
	<path class="st0" d="M343.6,138.6l7.4,25h-8.6l-6.8-22.7h-9v22.7h-8.1V110h17.2c8.5,0,15.4,6.9,15.4,15.4
		C350.9,131,348,135.9,343.6,138.6z M335.5,132.7c4,0,7.3-3.3,7.3-7.3s-3.3-7.3-7.3-7.3h-9v14.6L335.5,132.7L335.5,132.7z"/>
	<path class="st0" d="M391.9,110v35.2c0,10.1-8.2,18.3-18.3,18.3s-18.3-8.2-18.3-18.3V110h8.2v35.2c0,5.6,4.6,10.2,10.2,10.2
		c5.6,0,10.2-4.6,10.2-10.2V110H391.9L391.9,110z"/>
	<path class="st0" d="M440.3,118.1l-30.2,37.3h30.2v8.2h-40.7v-8.2l30.2-37.3h-30.2V110h40.7V118.1z"/>
	<path class="st0" d="M489.7,138.6l7.4,25h-8.6l-6.8-22.7h-9v22.7h-8.1V110h17.2c8.5,0,15.4,6.9,15.4,15.4
		C497.1,131,494.1,135.9,489.7,138.6z M481.7,132.7c4,0,7.3-3.3,7.3-7.3s-3.3-7.3-7.3-7.3h-9v14.6L481.7,132.7L481.7,132.7z"/>
	<path class="st0" d="M553.2,136.8c0,14.8-12,26.8-26.8,26.8s-26.8-12-26.8-26.8s12-26.8,26.8-26.8S553.2,122,553.2,136.8z
		 M544.7,136.8c0-10.1-8.2-18.3-18.3-18.3s-18.3,8.2-18.3,18.3c0,10.1,8.2,18.3,18.3,18.3C536.5,155.1,544.7,146.9,544.7,136.8z"/>
	<path class="st0" d="M597.5,148.5c0,8.3-8.2,15.1-18.3,15.1s-18.3-6.8-18.3-15.1h8.2c0,4.6,4.6,8.4,10.2,8.4
		c5.6,0,10.2-3.8,10.2-8.4s-4.6-8.4-10.2-8.4c-4.4,0-8.4-1.3-11.5-3.4c-4.2-2.8-6.8-7-6.8-11.7c0-8.3,8.2-15.1,18.3-15.1
		s18.3,6.8,18.3,15.1h-8.2c0-4.6-4.6-8.4-10.2-8.4c-5.6,0-10.2,3.7-10.2,8.4s4.6,8.4,10.2,8.4c4.4,0,8.4,1.3,11.5,3.4
		C594.9,139.5,597.5,143.8,597.5,148.5z"/>
	<path class="st0" d="M642.4,163.6h-8.2l-6.4-18.6H612l-6.4,18.6h-8.2l18.3-53.6h8.2L642.4,163.6z M625.1,136.8l-5.1-14.9l-5.1,14.9
		H625.1z"/>
</g>
<g>
	<g>
		<path class="st0" d="M301.2,184.4v4.3h6v2.4h-6v6.7h-2.4V182h9.6v2.4H301.2L301.2,184.4z"/>
		<path class="st0" d="M347.8,197.8h-2.4l-1.9-5.5h-4.6l-1.9,5.5h-2.4L340,182h2.4L347.8,197.8z M342.8,189.9l-1.5-4.4l-1.5,4.4
			H342.8z"/>
		<path class="st0" d="M384.2,190.4l2.2,7.3h-2.6l-2-6.7h-2.7v6.7h-2.3V182h5c2.5,0,4.5,2,4.5,4.5
			C386.3,188.2,385.5,189.6,384.2,190.4z M381.8,188.7c1.2,0,2.1-1,2.1-2.1s-1-2.1-2.1-2.1h-2.7v4.3L381.8,188.7L381.8,188.7z"/>
		<path class="st0" d="M418,186.5v11.2h-2.4V182h2.4h0.3l3.8,7.2l3.8-7.2h2.8v15.8h-2.4v-11.3l-4.2,7.9L418,186.5z"/>
		<path class="st0" d="M471.2,197.8h-2.4l-1.9-5.5h-4.6l-1.9,5.5H458l5.4-15.8h2.4L471.2,197.8z M466.1,189.9l-1.5-4.4l-1.5,4.4
			H466.1z"/>
		<path class="st0" d="M508.8,194.5l1.2,2.1c-1.2,0.7-2.6,1.2-4.1,1.2c-4.3,0-7.9-3.5-7.9-7.9c0-4.3,3.5-7.9,7.9-7.9
			c1.5,0,2.9,0.4,4.1,1.2l-1.2,2.1c-0.8-0.5-1.8-0.8-2.9-0.8c-3,0-5.5,2.5-5.5,5.5s2.5,5.5,5.5,5.5
			C507,195.4,507.9,195.1,508.8,194.5z"/>
		<path class="st0" d="M539.3,197.8V182h2.4v15.8H539.3z"/>
		<path class="st0" d="M584.1,197.8h-2.4l-1.9-5.5h-4.6l-1.9,5.5h-2.4l5.4-15.8h2.4L584.1,197.8z M579,189.9l-1.5-4.4l-1.5,4.4H579z
			"/>
		<path class="st0" d="M622.7,193.3c0,2.4-2.4,4.4-5.4,4.4s-5.4-2-5.4-4.4h2.4c0,1.4,1.3,2.5,3,2.5s3-1.1,3-2.5s-1.3-2.5-3-2.5
			c-1.3,0-2.5-0.4-3.4-1c-1.2-0.8-2-2-2-3.4c0-2.5,2.4-4.4,5.4-4.4s5.4,2,5.4,4.4h-2.4c0-1.4-1.3-2.5-3-2.5s-3,1.1-3,2.5
			s1.3,2.5,3,2.5c1.3,0,2.5,0.4,3.4,1C621.9,190.7,622.7,191.9,622.7,193.3z"/>
	</g>
</g>
</svg>
