<svg id="Capa_1" data-name="Capa 1" xmlns="http://www.w3.org/2000/svg" viewBox="0 0 296.23 191.39"><defs><style>.cls-1{fill:#fff;}</style></defs><title>cruzrosa2</title><path class="cls-1" d="M430.72,462.41c6.13,0,10.89,2.92,14.88,8l14.49-12.93c-6.71-8.75-17.21-13.62-30.54-13.62-21.88,0-37.93,14.69-37.93,35.6S407.67,515,429.55,515c13.33,0,23.83-4.86,30.54-13.61L445.6,488.47c-4,5.06-8.75,8-14.88,8-9.53,0-16-6.61-16-17S421.19,462.41,430.72,462.41Z" transform="translate(-391.62 -443.83)"/><path class="cls-1" d="M489.65,496.35h6.23l11.57,17.12H532l-14.3-21c8.17-4.18,12.84-11.57,12.84-21.39,0-15.76-12.06-25.68-31-25.68H466.7v68.08h22.95Zm0-33.26H498c6.32,0,9.33,3,9.33,8s-3,8-9.33,8h-8.37Z" transform="translate(-391.62 -443.83)"/><path class="cls-1" d="M571.73,515c20.91,0,33.17-11.76,33.17-32.19V445.39H582.33v36.76c0,10.41-4,14.3-10.4,14.3s-10.41-3.89-10.41-14.3V445.39H538.57v37.44C538.57,503.26,550.82,515,571.73,515Z" transform="translate(-391.62 -443.83)"/><polygon class="cls-1" points="283.87 51.84 251.19 51.84 282.32 15.66 282.32 1.56 222.31 1.56 222.31 19.35 252.46 19.35 221.34 55.53 221.34 69.64 283.87 69.64 283.87 51.84"/><path class="cls-1" d="M458.15,556.16c0-15.76-12.06-25.68-31-25.68H394.35v68.08H417.3V581.44h6.22l11.58,17.12h24.51l-14.3-21C453.48,573.37,458.15,566,458.15,556.16Zm-32.49,8H417.3v-16h8.36c6.32,0,9.34,3,9.34,8S432,564.13,425.66,564.13Z" transform="translate(-391.62 -443.83)"/><path class="cls-1" d="M568.71,550.71c0-2.33,2.15-4.28,8.85-4.28,5.94,0,12.26,1.66,19,5.06l6.91-16.63c-7.1-4-16.54-5.93-25.68-5.93-21.1,0-31.71,10.31-31.71,23,0,25.38,37.64,18.48,37.64,27,0,2.33-2.33,3.69-8.85,3.69a46.68,46.68,0,0,1-22.46-6.22L545,593.12c6.81,4.18,18.29,7,29.67,7,21.1,0,31.7-10.5,31.7-23C606.35,552.07,568.71,558.88,568.71,550.71Z" transform="translate(-391.62 -443.83)"/><path class="cls-1" d="M658.09,530.48H635.52l-29.76,68.08h23.35l4.57-11.86h25.87l4.57,11.86h23.73ZM640,570.16l6.61-17.11,6.61,17.11Z" transform="translate(-391.62 -443.83)"/><path class="cls-1" d="M502.49,528.93c-22.17,0-38.42,15-38.42,35.59s16.25,35.6,38.42,35.6,38.42-15,38.42-35.6S524.66,528.93,502.49,528.93Zm15.65,42.89h-8v8a8,8,0,0,1-16.05,0v-8h-8a8,8,0,0,1,0-16.05h8v-8a8,8,0,0,1,16.05,0v8h8a8,8,0,1,1,0,16.05Z" transform="translate(-391.62 -443.83)"/><path class="cls-1" d="M415.7,614.42v8.91h11.73v2.08H415.7V635h-2.39V612.35h15.55v2.07Z" transform="translate(-391.62 -443.83)"/><path class="cls-1" d="M458.33,629H445.69L443,635h-2.49l10.36-22.68h2.37L463.58,635h-2.53Zm-.88-1.94L452,614.85,446.57,627Z" transform="translate(-391.62 -443.83)"/><path class="cls-1" d="M494.18,635,489,627.74a17.53,17.53,0,0,1-1.82.1h-6.09V635h-2.4V612.35h8.49c5.77,0,9.27,2.92,9.27,7.78a7,7,0,0,1-5.19,7.12L496.8,635Zm-.13-14.9c0-3.63-2.4-5.71-6.93-5.71h-6V625.8h6C491.65,625.8,494.05,623.69,494.05,620.13Z" transform="translate(-391.62 -443.83)"/><path class="cls-1" d="M537,612.35V635h-2.3V616.89l-8.91,15.26h-1.14L515.77,617v18h-2.3V612.35h2l9.85,16.82,9.75-16.82Z" transform="translate(-391.62 -443.83)"/><path class="cls-1" d="M570,629H557.36L554.64,635h-2.49l10.37-22.68h2.36L575.25,635h-2.53Zm-.87-1.94-5.45-12.18L558.24,627Z" transform="translate(-391.62 -443.83)"/><path class="cls-1" d="M588,623.69c0-6.64,5.06-11.53,11.89-11.53a11,11,0,0,1,8.3,3.3L606.69,617a9,9,0,0,0-6.7-2.69,9.4,9.4,0,1,0,0,18.8,8.85,8.85,0,0,0,6.7-2.73l1.53,1.53a11,11,0,0,1-8.33,3.33C593.09,635.22,588,630.33,588,623.69Z" transform="translate(-391.62 -443.83)"/><path class="cls-1" d="M624.7,612.35h2.39V635H624.7Z" transform="translate(-391.62 -443.83)"/><path class="cls-1" d="M660.05,629H647.42L644.7,635h-2.5l10.37-22.68h2.37L665.3,635h-2.52Zm-.87-1.94-5.44-12.18L648.29,627Z" transform="translate(-391.62 -443.83)"/></svg>