<?xml version="1.0" encoding="utf-8"?>
<!-- Generator: Adobe Illustrator 24.0.0, SVG Export Plug-In . SVG Version: 6.00 Build 0)  -->
<svg version="1.1" id="Capa_1" xmlns="http://www.w3.org/2000/svg" xmlns:xlink="http://www.w3.org/1999/xlink" x="0px" y="0px"
	 viewBox="0 0 686.9 280.8" style="enable-background:new 0 0 686.9 280.8;" xml:space="preserve">
<style type="text/css">
	.st0{fill:none;}
	.st1{fill:#FFFFFF;}
</style>
<g>
	<g>
		<path class="st0" d="M147.6,255.7l17.2-53.2c-0.4-0.8-0.9-1.7-1.5-2.5l-18,55.7H147.6z"/>
		<polygon class="st1" points="183.4,65.8 211,38.4 210.3,37.2 163.7,54.7 		"/>
		<path class="st1" d="M199.7,75c2.5-2.1,4.6-5.4,4.6-10.8c0,0,0,2.7,1.1,5.7l8.5-26.3l-1.9-3.3l-26.7,26.6L199.7,75z"/>
		<path class="st1" d="M167.6,186.9l15.9-48.9l-44.7-24.8l-42.7,42.3l66.9,35.2c2-2.1,3.4-5.2,3.4-9.7
			C166.3,181,166.3,183.8,167.6,186.9z"/>
		<path class="st1" d="M190,78.4c0,0,3.9,0,7.7-2l-14-7.9l-43.4,43l43.8,24.3l17.1-52.6C199.1,80.6,195.7,78.4,190,78.4z"/>
		<path class="st1" d="M204.2,91.9c0,0,0-3.1-1.5-6.3l-16.6,51.3l46.7,25.9l-10.1-72.4l-14.5-8.2C205.9,84.2,204.2,87.3,204.2,91.9z
			"/>
		<path class="st1" d="M100.2,80.5c0,0-5.1,0.4-9,3.7l47.1,26.1l43.4-43L161,55.6L95.6,80.2C97,80.5,98.5,80.6,100.2,80.5z"/>
		<path class="st1" d="M218.5,78.5c0,0-4.5,0-8.4,2.3l12.2,6.9l-5.4-39.1l2.9,5l4.9,35.4l23,13l-33.3-57.7l1.1,1.9l-8.6,26.5
			C208.8,75.8,212.3,78.5,218.5,78.5z"/>
		<polygon class="st1" points="249.8,105.7 225.1,91.7 235.1,164.2 255.9,175.7 273.1,146 		"/>
		<path class="st1" d="M85,67.4c0,0,0.6,8.4,7.4,11.8l66.2-24.8l-31.9-18h4.5l30.1,17l45.3-17H83.1l-19,32.8l17.2,9.5
			C83.6,76.4,85.4,72.9,85,67.4z"/>
		<path class="st1" d="M166.3,208.7c0,0,0-3-1.5-6.2l-17.2,53.2h-2.3l18-55.7c-2-2.6-5.5-4.8-11.2-4.8c0,0,5,0,9.1-3L94.4,157
			L51,200l-1.1-2l42.5-42.1l-60.1-31.7l-12.5,21.7l63.3,109.7h126.7l16.8-29.1l-54.7-28.8C168.9,199.7,166.3,203,166.3,208.7z"/>
		<path class="st1" d="M72.6,82.5c0,0,3.5-0.3,6.8-2.4L63,71l0.5-1L48.7,95.6l0.1-0.2l31-11.6C78,82.9,75.6,82.3,72.6,82.5z"/>
		<polygon class="st1" points="240.5,202.5 240,203.2 254.8,177.6 235.5,166.9 		"/>
		<path class="st1" d="M136.7,112l-47-26.1c-1.8,2.2-2.9,5.4-2.6,9.9c0,0-0.5-6.5-5-10.4l-35,13.1l-13.8,24l60.6,31.9L136.7,112z"/>
		<path class="st1" d="M185.4,139L169,189.6c2,3,5.5,5.6,11.6,5.6c0,0-3.1,0-6.4,1.4l53.5,28.2l11.1-19.2l-5.6-40L185.4,139z"/>
	</g>
	<g>
		<path class="st1" d="M305.1,109.8h41.8l-2.6,14.8h-25.6l-0.9,4.9h20.8l-2.6,14.8h-20.8l-0.9,5.2h26l-2.6,14.8h-42.2L305.1,109.8z"
			/>
		<path class="st1" d="M359.4,164.3h-15.5l9.6-54.5h14.4l15.7,27l4.8-27h15.5l-9.6,54.5h-14.4l-15.7-26.9L359.4,164.3z"/>
		<path class="st1" d="M410.9,109.8h41.8l-2.6,14.8h-25.6l-0.9,4.9h20.8l-2.6,14.8h-20.9l-0.9,5.2h26l-2.6,14.8h-42.2L410.9,109.8z"
			/>
		<path class="st1" d="M465.8,164.3h-16.1l9.6-54.5h26.2c6.1,0,10.8,1.9,14.3,5.6c3.4,3.7,4.7,8.4,3.7,14
			c-1.2,6.8-5.5,12.6-11.7,16.1l7.2,18.8h-17.9l-5.8-15.2h-6.7L465.8,164.3z M472.8,124.6l-1.7,9.7h10.1c2.6,0,4.9-2.1,5.5-4.9
			c0.5-2.7-1.2-4.8-3.7-4.8L472.8,124.6L472.8,124.6z"/>
		<path class="st1" d="M533.3,125.5c-0.2-1.5-1.8-2.4-3.7-2.4s-3.4,0.8-3.5,1.9c-0.2,0.9,0.3,1.6,1.6,2.2c0.7,0.3,1.4,0.5,2,0.8
			c1.2,0.4,4.2,1.2,5.8,1.8c4,1.3,6.6,2.6,9.4,5.4c2.9,2.6,4.1,6.8,3.1,12c-1,5.5-3.7,9.8-8.1,13.1c-4.4,3.2-9.6,4.8-15.7,4.8
			c-5.8,0-10.5-1.4-14.3-4.2c-3.7-2.8-5.7-6.5-6.1-11.1l16.9-2.8c0.2,2.3,2.6,4,6,4c2.5,0,4.7-0.9,4.9-2.2c0.1-0.7-0.4-1.3-1.7-1.9
			l-1.9-0.8c-1.2-0.5-4.1-1.4-5.5-1.9c-6.9-2.5-15-6.5-12.9-17.7c0.9-5.2,3.3-9.3,7.4-12.5c4.1-3.2,9-4.8,14.6-4.8
			c5.1,0,9.3,1.3,12.6,3.9s5.1,5.8,5.3,10L533.3,125.5z"/>
		<path class="st1" d="M593.6,109.8h16.1l-5.7,32.1c-1.2,6.5-4.5,12.1-10,16.5s-11.8,6.7-18.9,6.7c-7.1,0-12.6-2.3-16.6-6.7
			c-4-4.4-5.4-10-4.2-16.5l5.7-32.1h16.1l-5.6,31.9c-0.9,4.9,2.2,8.6,7.2,8.6c2.5,0,4.8-0.8,6.7-2.4s3.2-3.7,3.6-6.2L593.6,109.8z"
			/>
		<path class="st1" d="M622.7,164.3h-15.5l9.6-54.5h14.4l15.7,27l4.8-27h15.5l-9.6,54.5h-14.4l-15.7-26.9L622.7,164.3z"/>
	</g>
	<g>
		<path class="st1" d="M379.1,189.4l3.3-13.7h8.1l-0.4,1.6h-6.2l-1,4.1h5.5L388,183h-5.5l-1.2,4.8h6.6l-0.4,1.6H379.1z"/>
		<path class="st1" d="M391.8,189.4H390l2.4-9.8c0.6-0.2,1.3-0.3,2-0.4s1.3-0.2,1.9-0.2c0.6,0,1.1,0.1,1.5,0.2
			c0.4,0.2,0.8,0.4,1,0.7c0.3,0.3,0.5,0.6,0.6,1s0.2,0.8,0.2,1.3c0,0.3,0,0.6-0.1,1c-0.1,0.3-0.1,0.7-0.2,1l-1.3,5.2h-1.8l1.2-4.8
			c0.1-0.4,0.2-0.7,0.3-1.1s0.1-0.7,0.1-1.1c0-0.5-0.1-1-0.4-1.3c-0.3-0.3-0.8-0.5-1.6-0.5c-0.3,0-0.6,0-1,0.1
			c-0.3,0-0.6,0.1-0.8,0.2L391.8,189.4z"/>
		<path class="st1" d="M405.2,189.6c-0.7,0-1.2-0.1-1.7-0.3s-0.9-0.5-1.2-0.8s-0.6-0.7-0.7-1.2c-0.2-0.4-0.2-0.9-0.2-1.4
			c0-0.9,0.1-1.8,0.4-2.7c0.3-0.9,0.7-1.6,1.2-2.3c0.5-0.7,1.1-1.2,1.9-1.6c0.7-0.4,1.6-0.6,2.5-0.6c0.5,0,1,0.1,1.4,0.2
			s0.7,0.3,0.9,0.6c0.2,0.2,0.4,0.5,0.5,0.8s0.2,0.6,0.2,1c0,0.6-0.1,1.1-0.3,1.6c-0.2,0.4-0.5,0.8-0.9,1.1
			c-0.4,0.3-0.8,0.5-1.3,0.7s-1,0.3-1.5,0.4s-1.1,0.2-1.6,0.2s-1.1,0.1-1.5,0.1c0,0.1,0,0.2,0,0.3c0,0.1,0,0.1,0,0.2
			c0,0.3,0,0.6,0.1,0.9s0.2,0.5,0.4,0.7s0.5,0.4,0.8,0.5s0.8,0.2,1.4,0.2c0.2,0,0.5,0,0.8-0.1c0.3,0,0.5-0.1,0.8-0.2
			c0.2-0.1,0.5-0.1,0.7-0.2s0.3-0.1,0.4-0.2l0.2,1.6c-0.3,0.1-0.7,0.3-1.3,0.5C406.7,189.5,406,189.6,405.2,189.6z M403.3,184
			c0.8,0,1.5-0.1,2.1-0.1c0.6-0.1,1.2-0.2,1.6-0.4c0.5-0.2,0.8-0.4,1.1-0.7c0.3-0.3,0.4-0.7,0.4-1.2c0-0.1,0-0.2-0.1-0.4
			s-0.1-0.3-0.2-0.4c-0.1-0.1-0.3-0.2-0.5-0.3c-0.2-0.1-0.4-0.1-0.7-0.1c-0.5,0-0.9,0.1-1.3,0.3c-0.4,0.2-0.8,0.5-1.1,0.8
			s-0.6,0.7-0.8,1.1C403.6,183.1,403.5,183.5,403.3,184z"/>
		<path class="st1" d="M416.9,178.9c0.2,0,0.3,0,0.5,0s0.4,0,0.6,0.1c0.2,0,0.4,0.1,0.5,0.1c0.2,0,0.3,0.1,0.4,0.1l-0.5,1.6
			c-0.3-0.1-0.6-0.2-0.9-0.2c-0.3-0.1-0.7-0.1-1-0.1s-0.5,0-0.8,0.1c-0.3,0-0.5,0.1-0.7,0.2l-2.1,8.7h-1.8l2.4-9.8
			c0.5-0.2,1.1-0.3,1.7-0.4C415.7,178.9,416.3,178.9,416.9,178.9z"/>
		<path class="st1" d="M420.7,191.5c0.5,0,1-0.1,1.4-0.2s0.8-0.3,1.1-0.6c0.3-0.3,0.5-0.5,0.7-0.9c0.2-0.3,0.3-0.7,0.4-1.2l0.1-0.4
			c-0.3,0.1-0.6,0.3-1.1,0.4c-0.4,0.1-0.9,0.2-1.4,0.2c-1.1,0-1.9-0.3-2.5-0.8s-0.9-1.3-0.9-2.2c0-0.9,0.1-1.7,0.4-2.6
			c0.3-0.8,0.7-1.6,1.3-2.2c0.6-0.7,1.3-1.2,2.2-1.6s1.9-0.6,3.1-0.6c0.2,0,0.4,0,0.6,0c0.2,0,0.5,0.1,0.7,0.1s0.5,0.1,0.7,0.2
			s0.4,0.2,0.6,0.3l-2.1,9c-0.2,0.7-0.4,1.3-0.6,1.9c-0.2,0.6-0.6,1-1,1.4s-1,0.7-1.7,0.9c-0.7,0.2-1.5,0.3-2.6,0.3
			c-0.6,0-1.1-0.1-1.7-0.2c-0.6-0.2-1-0.3-1.4-0.6l0.7-1.5c0.3,0.2,0.7,0.4,1.2,0.5C419.6,191.4,420.1,191.5,420.7,191.5z
			 M422.3,187.4c0.5,0,1-0.1,1.4-0.3c0.4-0.2,0.8-0.4,1-0.5l1.4-6c-0.1,0-0.3-0.1-0.5-0.1s-0.3,0-0.5,0c-0.7,0-1.4,0.1-2,0.4
			s-1.1,0.6-1.5,1.1s-0.8,1-1,1.6s-0.4,1.2-0.4,1.9c0,0.7,0.2,1.2,0.5,1.5C421.2,187.2,421.7,187.4,422.3,187.4z"/>
		<path class="st1" d="M430.9,189.4h-1.8l2.5-10.2h1.8L430.9,189.4z M435.4,175.4l-3.3,2.5l-0.8-1l3.1-3L435.4,175.4z"/>
		<path class="st1" d="M441,189.5c-0.1-0.1-0.1-0.3-0.2-0.5c-0.1-0.2-0.1-0.4-0.2-0.6c-0.3,0.3-0.7,0.5-1.2,0.8s-1.1,0.4-1.8,0.4
			c-0.6,0-1.1-0.1-1.5-0.3s-0.8-0.4-1-0.8c-0.3-0.3-0.5-0.7-0.6-1.2c-0.1-0.4-0.2-0.9-0.2-1.5c0-0.9,0.1-1.7,0.4-2.6
			c0.3-0.8,0.7-1.6,1.3-2.2c0.6-0.7,1.3-1.2,2.2-1.6s1.9-0.6,3.1-0.6c0.4,0,0.8,0,1.2,0.1c0.5,0.1,0.9,0.2,1.2,0.4l-1.5,6.2
			c-0.1,0.3-0.1,0.6-0.2,0.9c0,0.3-0.1,0.6-0.1,0.9s0,0.6,0.1,0.9s0.1,0.6,0.3,1L441,189.5z M438,188.1c0.6,0,1-0.1,1.4-0.4
			c0.4-0.2,0.7-0.5,1-0.8c0-0.2,0-0.5,0.1-0.7c0-0.2,0.1-0.5,0.1-0.7l1.2-4.9c-0.1,0-0.2,0-0.3-0.1c-0.2,0-0.3,0-0.4,0
			c-0.7,0-1.4,0.1-2,0.4s-1.1,0.7-1.5,1.2s-0.8,1-1,1.7c-0.2,0.6-0.3,1.3-0.3,2c0,0.3,0,0.6,0.1,0.8c0.1,0.3,0.1,0.5,0.3,0.7
			c0.1,0.2,0.3,0.4,0.6,0.5C437.4,188,437.7,188.1,438,188.1z"/>
		<path class="st1" d="M447.2,188.1c0.3,0,0.6,0,0.8-0.1c0.3-0.1,0.5-0.1,0.7-0.3c0.2-0.1,0.4-0.3,0.5-0.5s0.2-0.5,0.2-0.8
			c0-0.2,0-0.4-0.1-0.5c-0.1-0.2-0.2-0.3-0.3-0.4s-0.3-0.3-0.5-0.4s-0.5-0.3-0.8-0.4s-0.6-0.3-0.8-0.4c-0.3-0.1-0.5-0.3-0.7-0.5
			s-0.3-0.4-0.4-0.7c-0.1-0.3-0.2-0.6-0.2-1c0-1,0.4-1.8,1.1-2.4c0.7-0.6,1.7-0.9,3.1-0.9c0.6,0,1.2,0.1,1.7,0.2s0.8,0.2,1,0.3
			l-0.6,1.6c-0.2-0.1-0.5-0.2-0.9-0.3c-0.4-0.1-0.9-0.2-1.4-0.2c-0.3,0-0.5,0-0.7,0.1s-0.5,0.1-0.7,0.3c-0.2,0.1-0.4,0.3-0.5,0.5
			s-0.2,0.4-0.2,0.7c0,0.4,0.1,0.6,0.4,0.9c0.3,0.2,0.7,0.5,1.2,0.7c0.3,0.2,0.6,0.3,0.9,0.5c0.3,0.2,0.5,0.3,0.7,0.6
			c0.2,0.2,0.3,0.4,0.4,0.7c0.1,0.3,0.1,0.6,0.1,1c0,0.6-0.1,1-0.3,1.5c-0.2,0.4-0.5,0.8-0.9,1c-0.4,0.3-0.8,0.5-1.3,0.6
			s-1.1,0.2-1.7,0.2c-0.4,0-0.9,0-1.2-0.1c-0.4-0.1-0.7-0.1-0.9-0.2c-0.3-0.1-0.5-0.2-0.7-0.2c-0.2-0.1-0.3-0.2-0.4-0.2l0.7-1.5
			c0.1,0.1,0.2,0.1,0.4,0.2s0.4,0.2,0.6,0.2c0.2,0.1,0.5,0.1,0.8,0.2S446.9,188.1,447.2,188.1z"/>
		<path class="st1" d="M464.3,189.5c-0.1-0.1-0.1-0.3-0.2-0.5c-0.1-0.2-0.1-0.4-0.2-0.6c-0.3,0.3-0.7,0.5-1.2,0.8s-1.1,0.4-1.8,0.4
			c-0.6,0-1.1-0.1-1.5-0.3s-0.8-0.4-1-0.8c-0.3-0.3-0.5-0.7-0.6-1.2c-0.1-0.4-0.2-0.9-0.2-1.5c0-0.9,0.1-1.7,0.4-2.6
			c0.3-0.8,0.7-1.6,1.3-2.2c0.6-0.7,1.3-1.2,2.2-1.6s1.9-0.6,3.1-0.6c0.4,0,0.8,0,1.2,0.1c0.5,0.1,0.9,0.2,1.2,0.4l-1.5,6.2
			c-0.1,0.3-0.1,0.6-0.2,0.9c0,0.3-0.1,0.6-0.1,0.9s0,0.6,0.1,0.9s0.1,0.6,0.3,1L464.3,189.5z M461.4,188.1c0.6,0,1-0.1,1.4-0.4
			c0.4-0.2,0.7-0.5,1-0.8c0-0.2,0-0.5,0.1-0.7c0-0.2,0.1-0.5,0.1-0.7l1.2-4.9c-0.1,0-0.2,0-0.3-0.1c-0.2,0-0.3,0-0.4,0
			c-0.7,0-1.4,0.1-2,0.4s-1.1,0.7-1.5,1.2s-0.8,1-1,1.7c-0.2,0.6-0.3,1.3-0.3,2c0,0.3,0,0.6,0.1,0.8c0.1,0.3,0.1,0.5,0.3,0.7
			c0.1,0.2,0.3,0.4,0.6,0.5C460.7,188,461,188.1,461.4,188.1z"/>
		<path class="st1" d="M470.8,184.8c-0.1,0.3-0.1,0.6-0.2,0.8c-0.1,0.3-0.1,0.5-0.1,0.8c0,0.4,0.1,0.8,0.3,1.1
			c0.2,0.3,0.6,0.4,1.2,0.5l-0.4,1.5c-0.5,0-1-0.1-1.4-0.2c-0.4-0.2-0.7-0.4-0.9-0.6s-0.4-0.5-0.5-0.9c-0.1-0.3-0.2-0.7-0.2-1.1
			c0-0.3,0-0.6,0.1-0.9s0.1-0.7,0.2-1l2.5-10.3l1.9-0.3L470.8,184.8z"/>
		<path class="st1" d="M476.9,189.6c-1,0-1.7-0.2-2.2-0.6s-0.7-1.1-0.7-1.9c0-0.5,0.1-1.2,0.3-2.1l2.1-8.8l1.9-0.3l-0.8,3.2h3.5
			l-0.4,1.5h-3.5l-1.1,4.5c-0.2,0.6-0.2,1.2-0.2,1.6s0.1,0.7,0.4,0.9c0.2,0.2,0.6,0.3,1.2,0.3c0.4,0,0.8-0.1,1.1-0.2
			c0.4-0.1,0.7-0.2,0.8-0.3l0.1,1.6c-0.2,0.1-0.5,0.2-1,0.4C478,189.6,477.5,189.6,476.9,189.6z"/>
		<path class="st1" d="M485.3,189.6c-0.7,0-1.2-0.1-1.7-0.3s-0.9-0.5-1.2-0.8s-0.6-0.7-0.7-1.2c-0.2-0.4-0.2-0.9-0.2-1.4
			c0-0.9,0.1-1.8,0.4-2.7c0.3-0.9,0.7-1.6,1.2-2.3c0.5-0.7,1.1-1.2,1.9-1.6c0.7-0.4,1.6-0.6,2.5-0.6c0.5,0,1,0.1,1.4,0.2
			s0.7,0.3,0.9,0.6c0.2,0.2,0.4,0.5,0.5,0.8s0.2,0.6,0.2,1c0,0.6-0.1,1.1-0.3,1.6c-0.2,0.4-0.5,0.8-0.9,1.1
			c-0.4,0.3-0.8,0.5-1.3,0.7s-1,0.3-1.5,0.4s-1.1,0.2-1.6,0.2s-1.1,0.1-1.5,0.1c0,0.1,0,0.2,0,0.3c0,0.1,0,0.1,0,0.2
			c0,0.3,0,0.6,0.1,0.9s0.2,0.5,0.4,0.7s0.5,0.4,0.8,0.5s0.8,0.2,1.4,0.2c0.2,0,0.5,0,0.8-0.1c0.3,0,0.5-0.1,0.8-0.2
			c0.2-0.1,0.5-0.1,0.7-0.2s0.3-0.1,0.4-0.2l0.2,1.6c-0.3,0.1-0.7,0.3-1.3,0.5C486.8,189.5,486.1,189.6,485.3,189.6z M483.5,184
			c0.8,0,1.5-0.1,2.1-0.1c0.6-0.1,1.2-0.2,1.6-0.4c0.5-0.2,0.8-0.4,1.1-0.7c0.3-0.3,0.4-0.7,0.4-1.2c0-0.1,0-0.2-0.1-0.4
			s-0.1-0.3-0.2-0.4c-0.1-0.1-0.3-0.2-0.5-0.3c-0.2-0.1-0.4-0.1-0.7-0.1c-0.5,0-0.9,0.1-1.3,0.3c-0.4,0.2-0.8,0.5-1.1,0.8
			s-0.6,0.7-0.8,1.1C483.8,183.1,483.6,183.5,483.5,184z"/>
		<path class="st1" d="M497,178.9c0.2,0,0.3,0,0.5,0s0.4,0,0.6,0.1c0.2,0,0.4,0.1,0.5,0.1c0.2,0,0.3,0.1,0.4,0.1l-0.5,1.6
			c-0.3-0.1-0.6-0.2-0.9-0.2c-0.3-0.1-0.7-0.1-1-0.1s-0.5,0-0.8,0.1c-0.3,0-0.5,0.1-0.7,0.2l-2.1,8.7h-1.8l2.4-9.8
			c0.5-0.2,1.1-0.3,1.7-0.4C495.8,178.9,496.4,178.9,497,178.9z"/>
		<path class="st1" d="M500.3,189.4h-1.8l2.4-9.8c0.6-0.2,1.3-0.3,2-0.4s1.3-0.2,1.9-0.2c0.6,0,1.1,0.1,1.5,0.2
			c0.4,0.2,0.8,0.4,1,0.7c0.3,0.3,0.5,0.6,0.6,1s0.2,0.8,0.2,1.3c0,0.3,0,0.6-0.1,1c-0.1,0.3-0.1,0.7-0.2,1l-1.3,5.2h-1.8l1.2-4.8
			c0.1-0.4,0.2-0.7,0.3-1.1s0.1-0.7,0.1-1.1c0-0.5-0.1-1-0.4-1.3c-0.3-0.3-0.8-0.5-1.6-0.5c-0.3,0-0.6,0-1,0.1
			c-0.3,0-0.6,0.1-0.8,0.2L500.3,189.4z"/>
		<path class="st1" d="M516.3,189.5c-0.1-0.1-0.1-0.3-0.2-0.5c-0.1-0.2-0.1-0.4-0.2-0.6c-0.3,0.3-0.7,0.5-1.2,0.8s-1.1,0.4-1.8,0.4
			c-0.6,0-1.1-0.1-1.5-0.3s-0.8-0.4-1-0.8c-0.3-0.3-0.5-0.7-0.6-1.2c-0.1-0.4-0.2-0.9-0.2-1.5c0-0.9,0.1-1.7,0.4-2.6
			c0.3-0.8,0.7-1.6,1.3-2.2c0.6-0.7,1.3-1.2,2.2-1.6s1.9-0.6,3.1-0.6c0.4,0,0.8,0,1.2,0.1c0.5,0.1,0.9,0.2,1.2,0.4l-1.5,6.2
			c-0.1,0.3-0.1,0.6-0.2,0.9c0,0.3-0.1,0.6-0.1,0.9s0,0.6,0.1,0.9s0.1,0.6,0.3,1L516.3,189.5z M513.4,188.1c0.6,0,1-0.1,1.4-0.4
			c0.4-0.2,0.7-0.5,1-0.8c0-0.2,0-0.5,0.1-0.7c0-0.2,0.1-0.5,0.1-0.7l1.2-4.9c-0.1,0-0.2,0-0.3-0.1c-0.2,0-0.3,0-0.4,0
			c-0.7,0-1.4,0.1-2,0.4s-1.1,0.7-1.5,1.2s-0.8,1-1,1.7c-0.2,0.6-0.3,1.3-0.3,2c0,0.3,0,0.6,0.1,0.8c0.1,0.3,0.1,0.5,0.3,0.7
			c0.1,0.2,0.3,0.4,0.6,0.5C512.7,188,513,188.1,513.4,188.1z"/>
		<path class="st1" d="M523.6,189.6c-1,0-1.7-0.2-2.2-0.6s-0.7-1.1-0.7-1.9c0-0.5,0.1-1.2,0.3-2.1l2.1-8.8l1.9-0.3l-0.8,3.2h3.5
			l-0.4,1.5h-3.5l-1.1,4.5c-0.2,0.6-0.2,1.2-0.2,1.6s0.1,0.7,0.4,0.9c0.2,0.2,0.6,0.3,1.2,0.3c0.4,0,0.8-0.1,1.1-0.2
			c0.4-0.1,0.7-0.2,0.8-0.3l0.1,1.6c-0.2,0.1-0.5,0.2-1,0.4C524.7,189.6,524.2,189.6,523.6,189.6z"/>
		<path class="st1" d="M529.5,189.4h-1.8l2.5-10.2h1.8L529.5,189.4z M531.7,177.3c-0.3,0-0.6-0.1-0.8-0.3c-0.2-0.2-0.3-0.4-0.3-0.8
			s0.1-0.8,0.4-1c0.3-0.2,0.6-0.4,0.9-0.4c0.3,0,0.6,0.1,0.8,0.3c0.2,0.2,0.3,0.5,0.3,0.8c0,0.4-0.1,0.7-0.4,1
			C532.3,177.1,532,177.3,531.7,177.3z"/>
		<path class="st1" d="M534.9,189.4c-0.2-0.7-0.3-1.4-0.5-2.2c-0.1-0.8-0.3-1.6-0.4-2.5c-0.1-0.9-0.2-1.8-0.3-2.7
			c-0.1-0.9-0.1-1.9-0.2-2.8h1.9c0,0.6,0,1.3,0.1,2.1c0,0.7,0.1,1.5,0.2,2.2c0.1,0.7,0.1,1.4,0.2,2.1c0.1,0.7,0.2,1.3,0.3,1.8
			c0.4-0.5,0.8-1.1,1.2-1.8c0.4-0.7,0.8-1.4,1.2-2.1s0.8-1.5,1.1-2.2s0.6-1.4,0.8-2.1h1.9c-0.3,0.9-0.7,1.8-1.1,2.7
			c-0.4,0.9-0.9,1.8-1.4,2.7c-0.5,0.9-1.1,1.8-1.6,2.6c-0.6,0.8-1.1,1.6-1.7,2.2L534.9,189.4L534.9,189.4z"/>
		<path class="st1" d="M549.1,189.5c-0.1-0.1-0.1-0.3-0.2-0.5c-0.1-0.2-0.1-0.4-0.2-0.6c-0.3,0.3-0.7,0.5-1.2,0.8s-1.1,0.4-1.8,0.4
			c-0.6,0-1.1-0.1-1.5-0.3s-0.8-0.4-1-0.8c-0.3-0.3-0.5-0.7-0.6-1.2c-0.1-0.4-0.2-0.9-0.2-1.5c0-0.9,0.1-1.7,0.4-2.6
			c0.3-0.8,0.7-1.6,1.3-2.2c0.6-0.7,1.3-1.2,2.2-1.6s1.9-0.6,3.1-0.6c0.4,0,0.8,0,1.2,0.1c0.5,0.1,0.9,0.2,1.2,0.4l-1.5,6.2
			c-0.1,0.3-0.1,0.6-0.2,0.9c0,0.3-0.1,0.6-0.1,0.9s0,0.6,0.1,0.9s0.1,0.6,0.3,1L549.1,189.5z M546.2,188.1c0.6,0,1-0.1,1.4-0.4
			c0.4-0.2,0.7-0.5,1-0.8c0-0.2,0-0.5,0.1-0.7c0-0.2,0.1-0.5,0.1-0.7l1.2-4.9c-0.1,0-0.2,0-0.3-0.1c-0.2,0-0.3,0-0.4,0
			c-0.7,0-1.4,0.1-2,0.4s-1.1,0.7-1.5,1.2s-0.8,1-1,1.7c-0.2,0.6-0.3,1.3-0.3,2c0,0.3,0,0.6,0.1,0.8c0.1,0.3,0.1,0.5,0.3,0.7
			c0.1,0.2,0.3,0.4,0.6,0.5C545.5,188,545.8,188.1,546.2,188.1z"/>
		<path class="st1" d="M555.4,188.1c0.3,0,0.6,0,0.8-0.1c0.3-0.1,0.5-0.1,0.7-0.3c0.2-0.1,0.4-0.3,0.5-0.5s0.2-0.5,0.2-0.8
			c0-0.2,0-0.4-0.1-0.5c-0.1-0.2-0.2-0.3-0.3-0.4s-0.3-0.3-0.5-0.4s-0.5-0.3-0.8-0.4s-0.6-0.3-0.8-0.4c-0.3-0.1-0.5-0.3-0.7-0.5
			s-0.3-0.4-0.4-0.7s-0.2-0.6-0.2-1c0-1,0.4-1.8,1.1-2.4c0.7-0.6,1.7-0.9,3.1-0.9c0.6,0,1.2,0.1,1.7,0.2s0.8,0.2,1,0.3l-0.7,1.5
			c-0.2-0.1-0.5-0.2-0.9-0.3c-0.4-0.1-0.9-0.2-1.4-0.2c-0.3,0-0.5,0-0.7,0.1s-0.5,0.1-0.7,0.3c-0.2,0.1-0.4,0.3-0.5,0.5
			s-0.2,0.4-0.2,0.7c0,0.4,0.1,0.6,0.4,0.9s0.7,0.5,1.2,0.7c0.3,0.2,0.6,0.3,0.9,0.5c0.3,0.2,0.5,0.3,0.7,0.6
			c0.2,0.2,0.3,0.4,0.4,0.7c0.1,0.3,0.1,0.6,0.1,1c0,0.6-0.1,1-0.3,1.5c-0.2,0.4-0.5,0.8-0.9,1c-0.4,0.3-0.8,0.5-1.3,0.6
			s-1.1,0.2-1.7,0.2c-0.4,0-0.9,0-1.2-0.1c-0.4-0.1-0.7-0.1-0.9-0.2c-0.3-0.1-0.5-0.2-0.7-0.2c-0.2-0.1-0.3-0.2-0.4-0.2l0.7-1.5
			c0.1,0.1,0.2,0.1,0.4,0.2s0.4,0.2,0.6,0.2c0.2,0.1,0.5,0.1,0.8,0.2C554.8,188,555.1,188.1,555.4,188.1z"/>
	</g>
</g>
</svg>
