<?xml version="1.0" encoding="utf-8"?>
<!-- Generator: Adobe Illustrator 24.0.0, SVG Export Plug-In . SVG Version: 6.00 Build 0)  -->
<svg version="1.1" id="Capa_1" xmlns="http://www.w3.org/2000/svg" xmlns:xlink="http://www.w3.org/1999/xlink" x="0px" y="0px"
	 viewBox="0 0 656.6 401.8" style="enable-background:new 0 0 656.6 401.8;" xml:space="preserve">
<style type="text/css">
	.st0{fill:#FFFFFF;}
	.st1{fill:#B2B2B8;}
	.st2{fill:#0C0D0D;}
	.st3{fill:#2C0D0D;}
</style>
<path class="st0" d="M273.7,149.5c0-66.2-54.2-119.8-120.6-118.9c-63.5,0.9-115.7,52.5-117.2,116c-0.9,36.8,15,69.9,40.5,92.3
	c6.3,5.6,9.9,13.7,9.9,22.1v24.6c0,15.8,12.8,28.6,28.6,28.6h78.9c15.8,0,28.6-12.8,28.6-28.6v-23.8c0-8.5,3.6-16.6,10-22.1
	C257.6,217.9,273.7,185.5,273.7,149.5z"/>
<path class="st0" d="M202.2,350.5h-99.4c-3.9,0-7.1-3.2-7.1-7.1v-11.7h113.5v11.7C209.3,347.4,206.1,350.5,202.2,350.5z"/>
<path class="st0" d="M196.8,379.3h-88.5c-3.6,0-6.5-2.9-6.5-6.5v-10.7h101.4v10.7C203.3,376.4,200.4,379.3,196.8,379.3z"/>
<polyline class="st1" points="131.6,155 93.2,155.3 89.5,169.4 89.5,131 87.1,155.3 65.9,155.6 65.9,197.1 107.7,197.1 110.4,210.9 
	112.9,196.4 114.4,222.2 119.6,197.1 125.5,197.1 125.5,314.1 185.8,314.1 186.9,196.7 "/>
<path class="st2" d="M126.2,159.5l2.9-2.4l12.6-10.1c0,0,3.4-4.9,11.7-5.2s13.8,1.8,16.9,3.1c3.1,1.2,23.6,9.8,23.6,9.8l24.3,0.6
	l3.7,14.1V131l2.5,24.3l21.2,0.3v41.5h-41.8l-2.8,13.8l-2.5-14.4l-1.5,25.8l-5.2-25.2h-4.8l-1.1,117H156l-1.3-116.1"/>
<path class="st1" d="M137.2,196.2c10,6.8,12.2,0.2,12.2,0.2c8.5,5.4,10.4-4.8,10.4-4.8c8.8,4.8,9.8-4.8,9.8-4.8
	c9.2,4,9.9-4.4,9.9-4.4s-12.4-15.9-18.5-22.9s-8.6-3.7-8.6-3.7s-15,11.4-22.4,9.8c-7.4-1.5-3.9-6.5-3.9-6.5"/>
<path class="st2" d="M107.3,171.8c0,0,9-11.8,10.8,1.1c0,0,8.8-1,6.9,7.9c0,0,8.1-3.1,7.4,4.5c0,0,11.3-1.3,6.5,7.8
	s-10.3-1.5-10.3-1.5s-6.1,3.1-7.2-5.1c0,0-8.6,1.5-8.6-6.3C112.8,180.2,104.4,179.1,107.3,171.8z"/>
<path class="st3" d="M127.8,158.1c0,0-1.1,0.7-1.8,1.5c-0.5,0.5-0.8,1.1-0.9,1.7c-0.2,1.7,0.8,4.2,5.9,4.5"/>
<g>
	<path class="st0" d="M328.8,111.3c18.2,0,20,12.4,13.3,18.1c-2-7.3-5.7-16.4-13.4-16.4c-7.8,0-10.9,5.9-10.8,11.6
		c0.3,16.4,30.7,10.8,30.7,29.5c0,8.9-7.5,14.4-21,14.4c-12.9,0-23.7-5.3-17.3-20.3c3.7,9.4,8.7,18.5,18.8,18.5
		c7.9,0,12.1-4.4,12.1-10.3c0-14.8-30.5-11.2-30.5-29.7C310.7,118.1,317.2,111.3,328.8,111.3z"/>
	<path class="st0" d="M392.9,111.3c16.5,0,26.3,12.5,26.3,28.5c0,15.8-9.9,28.9-26.3,28.9c-16.3,0-26.3-13.1-26.3-28.9
		C366.6,123.9,376.6,111.3,392.9,111.3z M392.9,166.5c11.5,0,18.2-12,18.2-26.6c0-14.8-6.7-26.3-18.2-26.3
		c-11.6,0-18.2,11.6-18.2,26.3C374.7,154.5,381.3,166.5,392.9,166.5z"/>
	<path class="st0" d="M480.4,154.2l3.6,3.1c-3.7,7.1-11.3,11.5-20.2,11.5c-17.9,0-27.5-11.6-27.5-28.6c0-17,11-28.9,27.6-28.9
		c9,0,15.5,3.4,18.2,8.2c3.1,5.5,2.9,10.4-1.5,15.1c-1.5-11-8.7-21-18-21c-12.6,0-18.2,12.2-18.2,26.4c0,14.1,8.1,26.5,19.5,26.5
		C469.5,166.5,474.7,163.9,480.4,154.2z"/>
	<path class="st0" d="M511.9,162.2c0,2.5-0.1,4,2,5.6h-4c-4,0-4.8-3.3-4.8-7.1v-42.9c0-2.5,0.1-4-2-5.6h4c4,0,4.8,3.3,4.8,7.1
		L511.9,162.2L511.9,162.2z"/>
	<path class="st0" d="M529.3,167.8l18.8-51.7c0.7-1.9,0.4-3-0.5-3.9h9.1l18.6,48.4c0.9,2.5,1.7,5.6,3.8,7.3h-5.5
		c-2.5,0-3.8-1.3-4.4-3.2l-6.3-16.8h-21.5l-6.6,20H529.3z M542.4,145h19.3l-10.3-27.4L542.4,145z"/>
	<path class="st0" d="M596.4,162.2v-44.4c0-2.5,0.1-4-2-5.6h4c4,0,4.8,3.3,4.8,7.1v41.4c0,1.9-0.2,3.7-0.9,5
		c9.4-0.3,19.2-1.6,26.9-3v5.1h-34.8C596.5,166.2,596.4,164.7,596.4,162.2z"/>
	<path class="st0" d="M308.9,185.9h11.6l17.4,39l18.3-39h5.9v50c0,2.5-0.1,4,2,5.7h-4c-4,0-4.8-3.3-4.8-7.1v-38.5l-17.4,36.9h-3.8
		l-19.2-42.5l1.5,51.2h-5.1v-50.2C311.3,188.8,310.3,186.9,308.9,185.9z"/>
	<path class="st0" d="M409.2,185.1c16.5,0,26.3,12.5,26.3,28.5c0,15.8-9.9,28.8-26.3,28.8c-16.3,0-26.3-13.1-26.3-28.8
		C382.9,197.7,392.9,185.1,409.2,185.1z M409.2,240.2c11.5,0,18.2-12,18.2-26.6c0-14.8-6.7-26.3-18.2-26.3
		c-11.6,0-18.2,11.6-18.2,26.3C391,228.2,397.7,240.2,409.2,240.2z"/>
	<path class="st0" d="M454.4,185.9h8.3l31.9,50.1l-1.2-50.1h5.1v49.3c0,3.3,0.6,4.9,1.9,6.3h-10.4l-29.8-46.7l1.1,46.7h-5.1v-49.3
		C456.3,189,455.7,187.4,454.4,185.9z"/>
	<path class="st0" d="M521.1,241.6c2.1-1.6,2-3.2,2-5.7v-44.3c0-2.5,0.1-4-2-5.7h35.4v5.1c-7.5-1.5-18.3-2.7-27.5-3
		c0.7,1.3,0.9,3.1,0.9,5v17.6h19.3v2.9h-19.3v20.9c0,1.9-0.2,3.7-0.9,5c10.3-0.3,23-1.6,30.8-3v5.1H521.1z"/>
	<path class="st0" d="M572.8,185.9h6.4c2.9,0,4.5,2.2,5.7,4.4l15.3,25.3l14.9-29.6h6.8l-20.1,34.2v15.8c0,2.5-0.1,4,2,5.7h-4
		c-4,0-4.7-3.3-4.8-7.1v-14.3l-16.4-27C577.2,190.9,574.8,187.6,572.8,185.9z"/>
</g>
<g>
	<path class="st1" d="M373.7,258.7c3.9,0,7.7,0.4,7.7,5.2c0,3.5-2.7,5.2-5.6,5.5c3.2,2.2,4.9,7.5,7.5,7.5c0,0,0.1,0,0.1,0
		c-0.7,0.3-1.4,0.6-2.4,0.6c-3.5,0.1-3.4-7.3-8.4-8.2v-0.8c0.3,0,0.5,0,0.8,0c2.5,0,5.5-0.8,5.5-4.6c0-3-1.7-4.5-5.3-4.5h-3
		c0.3,0.4,0.3,1.1,0.3,1.7v14.3c0,0.8,0,1.3,0.7,1.9h-1.3c-1.3,0-1.6-1.1-1.6-2.4v-14.3c0-0.8,0-1.3-0.7-1.9H373.7z"/>
	<path class="st1" d="M392,264.6c3.5,0,5.5,2.1,5.5,5.9h-9.2c0,2.4,0.7,6.6,3.8,6.6c1.6,0,2.8-1.1,4-3l0.9,0.7
		c-0.9,1.7-2.3,2.7-4.9,2.7c-3.9,0-6.3-2.8-6.3-6.7C385.8,267.3,388.4,264.6,392,264.6z M394.9,269.7c0-2-0.9-4.8-3.2-4.8
		c-2.3,0-3.2,2.2-3.4,4.8H394.9z"/>
	<path class="st1" d="M399.9,264.7h1.6c0.8,0,1.2,0.4,1.5,1.1l3.9,10.4l3.4-11.5h1.8l-4,10.9c-0.3,0.9-0.3,1.3,0.1,1.7h-3.1
		l-3.9-10.1C400.9,266.3,400.6,265.3,399.9,264.7z"/>
	<path class="st1" d="M415.9,266.6c0-0.8,0-1.3-0.7-1.9h1.2c1.3,0,1.6,0.8,1.6,2v8.7c0,0.8,0,1.3,0.7,1.9h-1.2c-1.3,0-1.6-0.8-1.6-2
		L415.9,266.6L415.9,266.6z M417,258.1c0.8,0,1.5,0.7,1.5,1.5c0,0.9-0.7,1.5-1.5,1.5c-0.9,0-1.5-0.7-1.5-1.5
		C415.5,258.8,416.2,258.1,417,258.1z"/>
	<path class="st1" d="M427.4,264.6c4.1,0,5,2.3,3.7,4c-0.9-1.5-1.7-3.6-3.7-3.6c-1.4,0-2.2,0.9-2.1,2.1c0.1,3.7,7.1,2.5,7.1,7
		c0,2-2.1,3.3-5.1,3.3c-3,0-5.5-1.2-4.2-4.5c1,1.8,2.7,4.1,4.7,4.1c1.6,0,2.5-0.8,2.5-2.1c0-3.4-7-2.7-7-6.9
		C423.1,265.9,424.8,264.6,427.4,264.6z"/>
	<path class="st1" d="M435.9,265.4v-0.7h1.8V262c0-0.8,0-1.3-0.7-1.8h1.2c1.3,0,1.6,0.7,1.6,2v2.5h2.7v0.7h-2.7v8.5
		c0,1.4,0.6,1.9,1.3,1.9c0.7,0,1.5-0.5,2-1c-0.3,1.8-1.6,2.6-2.8,2.6c-1.3,0-2.6-0.9-2.6-2.4v-9.6L435.9,265.4L435.9,265.4z"/>
	<path class="st1" d="M446,274.4c0-3,6.1-3.3,8.2-4.8v-1.3c0-1.3-0.7-3.3-2.5-3.3c-2.6,0-3.6,3.9-3.6,3.9c-0.9-0.1-1.5-1.4-0.8-2.5
		s2.2-1.8,4.4-1.8c2.2,0,4.7,1,4.7,3.6v7.2c0,0.8-0.1,1.3,0.6,1.8h-1.2c-1.3,0-1.6-0.7-1.6-1.9v0c-0.7,1.1-2,2.1-3.8,2.1
		C447.2,277.4,446,275.7,446,274.4z M450.5,276.6c2.8,0,3.7-2.5,3.7-4.5v-1.9c-1.8,1.1-5.9,1.6-5.9,4.2
		C448.2,275.9,449.4,276.6,450.5,276.6z"/>
	<path class="st1" d="M475,264.6c1.9,0,3.2,1,3.8,2.2v-7.6c0-0.8,0-1.3-0.7-1.9h1.2c1.3,0,1.6,0.8,1.6,2v16.1c0,0.8,0,1.3,0.7,1.9
		h-1.2c-1.2,0-1.5-0.6-1.6-1.6v0c-0.9,1.1-2.2,1.7-3.8,1.7c-3.6,0-5.8-2.9-5.8-6.5C469.2,267.4,471.3,264.6,475,264.6z M471.6,270.9
		c0,3,1.3,6.1,3.4,6.1c2.1,0,3.7-3,3.8-5.9v-1.8c-0.4-2.3-2.4-4.4-3.8-4.4C472.9,265,471.6,268,471.6,270.9z"/>
	<path class="st1" d="M486.4,266.6c0-0.8,0-1.3-0.7-1.9h1.2c1.3,0,1.6,0.8,1.6,2v8.7c0,0.8,0,1.3,0.7,1.9H488c-1.3,0-1.6-0.8-1.6-2
		L486.4,266.6L486.4,266.6z M487.5,258.1c0.8,0,1.5,0.7,1.5,1.5c0,0.9-0.7,1.5-1.5,1.5c-0.9,0-1.5-0.7-1.5-1.5
		C486,258.8,486.6,258.1,487.5,258.1z"/>
	<path class="st1" d="M496,274.8c0-0.5,0.8-0.9,2.2-1.2c-2.3-0.2-4.9-1.7-4.9-4.6c0-3,3-4.5,5.5-4.5c0.6,0,1.1,0.1,1.7,0.2
		c1-1,2.4-1.5,3.5-1.5c0.7,0,1.3,0.1,1.6,0.4c0.9,0.7,0.7,2,0.1,2.5c-0.5-1.1-1.7-1.8-3-1.8c-0.6,0-1.3,0.2-1.8,0.5
		c1.8,0.6,3.3,1.9,3.3,4.1c0,3-2.7,4.5-5.1,4.6c-0.7,0.2-1.3,0.6-1.3,0.8c0,1,7.3,0.3,7.3,4.7c0,2.7-3.5,3.7-6,3.7s-5.9-0.9-5.9-3.2
		c0-1.8,3.5-2.9,6-3.4C497.5,275.8,496,275.6,496,274.8z M499,282.5c1.6,0,3.6-0.6,3.6-3.3c0-1.7-1.5-2.4-3-2.8c-2,0.7-4,2-4,3.4
		C495.5,281.5,497.3,282.5,499,282.5z M498.7,273.3c1.6,0,3-1.3,3-4.3c0-2.9-1.4-4-3-4c-1.6,0-3,1.1-3,4S497.1,273.3,498.7,273.3z"
		/>
	<path class="st1" d="M509.7,266.6c0-0.8,0-1.3-0.7-1.9h1.2c1.3,0,1.6,0.8,1.6,2v8.7c0,0.8,0,1.3,0.7,1.9h-1.2c-1.3,0-1.6-0.8-1.6-2
		V266.6z M510.8,258.1c0.8,0,1.5,0.7,1.5,1.5c0,0.9-0.7,1.5-1.5,1.5c-0.9,0-1.5-0.7-1.5-1.5C509.2,258.8,509.9,258.1,510.8,258.1z"
		/>
	<path class="st1" d="M516.2,265.4v-0.7h1.8V262c0-0.8,0-1.3-0.7-1.8h1.2c1.3,0,1.6,0.7,1.6,2v2.5h2.7v0.7h-2.7v8.5
		c0,1.4,0.6,1.9,1.3,1.9s1.5-0.5,2-1c-0.3,1.8-1.6,2.6-2.8,2.6c-1.3,0-2.6-0.9-2.6-2.4v-9.6L516.2,265.4L516.2,265.4z"/>
	<path class="st1" d="M526.4,274.4c0-3,6.1-3.3,8.2-4.8v-1.3c0-1.3-0.7-3.3-2.5-3.3c-2.6,0-3.6,3.9-3.6,3.9
		c-0.9-0.1-1.5-1.4-0.8-2.5s2.2-1.8,4.4-1.8c2.2,0,4.7,1,4.7,3.6v7.2c0,0.8-0.1,1.3,0.6,1.8h-1.2c-1.3,0-1.6-0.7-1.6-1.9v0
		c-0.7,1.1-2,2.1-3.8,2.1C527.6,277.4,526.4,275.7,526.4,274.4z M530.9,276.6c2.8,0,3.7-2.5,3.7-4.5v-1.9c-1.8,1.1-5.9,1.6-5.9,4.2
		C528.6,275.9,529.8,276.6,530.9,276.6z"/>
	<path class="st1" d="M542,259.2c0-0.8,0-1.3-0.7-1.9h1.2c1.3,0,1.6,0.8,1.6,2v16.1c0,0.8,0,1.3,0.7,1.9h-1.2c-1.3,0-1.6-0.8-1.6-2
		L542,259.2L542,259.2z"/>
</g>
</svg>
