<?xml version="1.0" encoding="utf-8"?>
<!-- Generator: Adobe Illustrator 24.0.0, SVG Export Plug-In . SVG Version: 6.00 Build 0)  -->
<svg version="1.1" id="Capa_1" xmlns="http://www.w3.org/2000/svg" xmlns:xlink="http://www.w3.org/1999/xlink" x="0px" y="0px"
	 viewBox="0 0 607.6 55" style="enable-background:new 0 0 607.6 55;" xml:space="preserve">
<style type="text/css">
	.st0{fill:#175E5C;}
</style>
<title>trazos ondas</title>
<path class="st0" d="M550.1,54c-11.3-0.2-20.2-5.1-27.7-13c-2.6-2.7-5.1-5.6-7.9-8.1c-8.6-7.8-18.9-7.7-27.4,0.1
	c-3.3,3-6.2,6.4-9.4,9.5c-15.6,15.2-37.8,14.9-53-0.7c-2.5-2.6-5-5.3-7.5-7.8c-9.4-9.3-21-9.2-30.2,0.3c-2.5,2.6-5,5.3-7.5,7.8
	c-15.6,15.4-37.4,15.4-53,0c-2.8-2.7-5.3-5.7-8.1-8.4c-8.6-8.5-18.9-9-28-1c-4.2,3.7-7.8,8-11.9,11.7c-14.2,12.6-34.2,12.5-48.3-0.2
	c-4.3-3.9-8.2-8.3-12.6-12.2c-7.2-6.6-18.4-6.5-25.5,0.3c-3.2,2.9-6,6.2-9,9.3c-16.3,16.5-38.6,16.4-54.8-0.4
	c-3-3.1-5.9-6.3-9.2-9.2c-7.6-6.6-17.5-6.6-25.1,0c-3.3,2.8-6.1,6.1-9.1,9.2C68.3,58.3,45.6,58,29.3,40.6c-1.8-1.9-3.7-3.8-5.5-5.7
	C19.7,30.2,14,27.3,7.8,27c-5.1-0.3-7.9-3.6-7.8-8.5s3.3-7.8,8.4-7.9c11.4-0.2,20.3,5,27.9,13c2.8,2.9,5.4,6,8.5,8.6
	c7.8,6.8,18.2,6.5,25.8-0.7c4.1-3.8,7.8-7.9,12-11.7c13.5-12.6,34.3-12.7,48-0.3c3.2,2.8,6.1,6.1,9.1,9.2c6.4,6.8,14,10.6,23.2,6.7
	c3.7-1.5,6.8-4.7,9.9-7.4c4.8-4,8.9-9,14.1-12.4c12.8-8.4,30.1-6.8,41.6,3.3c3.6,3.2,7,6.8,10.4,10.2c10.8,10.7,21.4,10.5,31.9-0.5
	c3.6-3.7,7-7.7,11.1-10.8c15.3-11.5,34.6-9.9,48.2,3.7c3.4,3.3,6.5,7,10,10.1c8.7,7.5,19.2,7,27.3-1.2c3-3,5.8-6.1,8.8-9
	c15.9-15.3,37.8-14.9,53.3,0.9c3.1,3.2,6.1,6.5,9.4,9.5c8.1,7,18.2,6.8,26.1-0.5c4.2-3.9,7.9-8.3,12.2-12
	c13.6-12.1,34.2-12,47.7,0.3c3.4,3,6.5,6.5,9.8,9.7c10.4,10.4,22,10.2,31.9-0.8c5.3-5.9,10.5-12.2,18.2-15c4.8-1.7,9.9-2.7,15-3
	c4.5-0.3,7.6,3.2,7.8,7.6s-2.3,8.3-6.9,8.5C591.9,27,586,31.8,580.6,38c-5.7,6.5-12,12.1-20.7,14.3C556.8,53.1,553.4,53.4,550.1,54z
	"/>
</svg>
