<?xml version="1.0" encoding="utf-8"?>
<!-- Generator: Adobe Illustrator 24.0.0, SVG Export Plug-In . SVG Version: 6.00 Build 0)  -->
<svg version="1.1" id="Capa_1" xmlns="http://www.w3.org/2000/svg" xmlns:xlink="http://www.w3.org/1999/xlink" x="0px" y="0px"
	 viewBox="0 0 335.5 290.9" style="enable-background:new 0 0 335.5 290.9;" xml:space="preserve">
<style type="text/css">
	.st0{fill:#0F0F0F;}
</style>
<path class="st0" d="M581.1,198.4c-11.4-0.3-20.4-5.3-28-13.4c-2.6-2.8-5.1-5.5-7.9-8.1c-7.8-7.2-18.2-7.4-26.1-0.3
	c-3.9,3.5-7.4,7.6-11.3,11.2c-12.8,12.1-31.9,13.9-45.3,4c-4.8-3.5-8.9-7.9-13.1-12.2c-10.8-10.9-21.4-10.9-32.2,0
	c-3.7,3.8-7.4,7.6-11.5,10.8c-13.1,10.5-32,10.2-44.6-0.9c-4.5-3.9-8.5-8.4-12.9-12.5c-8.2-7.6-18.3-7.6-26.6-0.1
	c-3.7,3.4-7.1,7.1-10.7,10.6c-13.7,13.4-34.5,14-48.9,1.5c-3.7-3.2-6.8-7-10.4-10.3c-10.7-10.1-21-9.7-31.4,0.7
	c-5.2,5.2-10.6,10.4-16.7,14.3c-11.3,7-27.8,5.4-38.1-3c-4.4-3.6-8.3-7.9-12.3-11.9c-10-9.9-20.6-9.8-30.7,0.1
	c-5,4.9-9.7,10.2-15.5,13.9c-14.1,9.1-31.7,6.4-44.8-6.1c-2.3-2.2-4.5-4.6-6.7-6.9c-4.6-5.1-9.9-8.2-17.1-8.5
	c-4.7-0.1-7.5-3.9-7.4-8.5c0.2-4.6,3.2-7.6,8.1-7.8c9.6-0.3,17.8,3,24.6,9.5c3.9,3.7,7.6,7.8,11.6,11.5c8.1,7.3,18.9,7.1,26.8-0.4
	c4-3.8,7.6-8.2,11.8-11.8c14-12.2,33.8-12.1,47.7,0.1c4,3.5,7.6,7.4,11.2,11.3c7.5,8,20.6,8,28.1,0.1c3.5-3.7,7-7.6,10.9-11
	c15.8-13.8,37.1-12.6,51.7,2.7c2.5,2.6,5,5.3,7.5,7.8c7.9,8.1,19.3,8.5,27.8,0.9c3.2-2.9,6-6.2,9.1-9.3
	c15.6-15.7,37.5-15.8,53.3-0.4c3.1,3,5.9,6.3,9,9.3c7.9,7.7,19,7.9,27.1,0.4c3.9-3.6,7.4-7.6,11.2-11.2c14.9-13.9,37-13,50.9,1.8
	c3,3.2,6.4,6.2,9.5,9.4c7,7,20.1,7.5,27.5-0.4c3.8-4.1,7.6-8.2,11.9-11.8c14.7-12.5,35-11.7,49,1.7c3.1,3,6,6.2,9.1,9.3
	c8.8,8.8,19.8,9,29,0.5c4.9-4.6,9.4-9.5,14.6-13.7c5.9-4.8,13.1-6.7,20.8-6.3c4.7,0.2,7.8,3.5,7.8,8.1c0,4.4-2.9,8.2-7.3,8.2
	c-8.1,0-13.5,4.5-18.5,9.9c-6,6.5-12.2,12.8-21.1,15.2C588.3,197.4,584.7,197.7,581.1,198.4z"/>
<path class="st0" d="M581.2,261.2c-11.3-0.2-20.2-5.1-27.7-13c-2.6-2.7-5.1-5.6-7.9-8.1c-8.6-7.8-18.9-7.7-27.4,0.1
	c-3.3,3-6.2,6.4-9.4,9.5c-15.6,15.2-37.8,14.9-53-0.7c-2.5-2.6-5-5.3-7.5-7.8c-9.4-9.3-21-9.2-30.2,0.3c-2.5,2.6-5,5.3-7.5,7.8
	c-15.6,15.4-37.4,15.4-53,0c-2.8-2.7-5.3-5.7-8.1-8.4c-8.6-8.5-18.9-9-28-1c-4.2,3.7-7.8,8-11.9,11.7c-14.2,12.6-34.2,12.5-48.3-0.2
	c-4.3-3.9-8.2-8.3-12.6-12.2c-7.5-6.7-18-6.5-25.5,0.3c-3.2,2.9-6,6.2-9,9.3c-16.3,16.5-38.6,16.3-54.8-0.4c-3-3.1-5.9-6.3-9.2-9.2
	c-7.6-6.6-17.5-6.6-25.1,0c-3.3,2.8-6.1,6.1-9.1,9.2c-16.6,17.1-39.4,16.8-55.6-0.6c-1.8-1.9-3.7-3.8-5.5-5.7
	c-4.3-4.8-9.6-7.5-16.1-7.9c-5.1-0.3-7.9-3.6-7.8-8.5c0.1-4.7,3.3-7.8,8.4-7.9c11.4-0.2,20.3,5,27.9,13c2.8,2.9,5.4,6,8.5,8.6
	c7.8,6.8,18.2,6.5,25.8-0.7c4.1-3.8,7.8-7.9,12-11.7c13.9-12.6,33.9-12.7,48-0.3c3.2,2.8,6.1,6.1,9.1,9.2c6.4,6.8,14,10.6,23.2,6.7
	c3.7-1.5,6.8-4.7,9.9-7.4c4.8-4,8.9-9,14.1-12.4c12.8-8.4,30.1-6.8,41.6,3.3c3.7,3.2,7,6.8,10.4,10.3c10.8,10.6,21.4,10.5,31.9-0.5
	c3.6-3.7,7-7.7,11.1-10.8c15.3-11.5,34.6-9.9,48.2,3.7c3.4,3.3,6.5,7,10,10.1c8.7,7.5,19.2,7,27.3-1.2c3-3,5.8-6.1,8.8-9
	c15.9-15.3,37.8-14.9,53.3,0.9c3.1,3.2,6.1,6.5,9.4,9.5c8.1,7,18.2,6.8,26.1-0.5c4.2-3.9,7.9-8.3,12.2-12
	c13.9-12.2,33.8-12,47.7,0.3c3.4,3,6.5,6.5,9.8,9.7c10.4,10.4,22,10.2,31.9-0.8c5.3-5.9,10.5-12.2,18.2-15c4.7-1.7,10-2.6,15-3
	c4.5-0.3,7.6,3.2,7.8,7.6c0.2,4.5-2.3,8.3-6.8,8.5c-8.8,0.3-14.7,5.1-20.1,11.3c-5.7,6.5-12,12.1-20.7,14.3
	C587.8,260.3,584.4,260.6,581.2,261.2z"/>
<path class="st0" d="M41.4,29.5c10.4,0.2,18.5,5.4,25.5,12.5c3,3.1,5.9,6.4,9.1,9.2c7.8,6.5,17.6,6.3,25.1-0.4
	c3.2-2.9,6.1-6.1,9.1-9.2c16.5-16.4,37.5-16.6,54.2-0.4c3.4,3.3,6.5,6.9,10.1,10c7.5,6.5,17.7,6.2,25.2-0.4c3.2-2.9,6.3-5.9,9.2-9.2
	c14.2-16.2,39.8-16.8,55.4,0.7c2.5,2.8,5.1,5.5,7.9,8.1c7.9,7.2,17.6,7.6,25.8,0.6c5.4-4.6,9.9-10.3,15.6-14.5
	c14.8-11,34.1-9.2,47.3,3.8c3.6,3.5,6.9,7.3,10.6,10.7c7.4,6.6,17.7,6.6,25.1,0c4-3.6,7.6-7.7,11.6-11.5
	c14.2-13.4,34.7-13.8,49.3-0.9c3.3,2.9,6.3,6.3,9.4,9.5c10.2,10.4,21.5,10.4,31.7-0.2c3.2-3.3,6.3-6.8,9.8-9.7
	c15.1-12.7,35.5-11.8,49.5,2.1c3.3,3.2,6.3,6.8,9.7,9.8c8.9,7.9,19,7.7,27.8-0.5c3-2.7,5.6-5.9,8.4-8.7c7.2-7.2,15.6-11.6,26-11.5
	c5.4,0.1,8.7,3,8.8,8s-2.9,8.3-8.3,8.4c-8.1,0.2-13.3,5.1-18.2,10.6c-7,7.8-14.8,14.2-25.8,15.6c-12,1.5-22-2-30.6-10.1
	c-3.3-3.1-6.2-6.4-9.4-9.5c-9-8.7-19.6-8.7-28.5-0.1c-3.8,3.7-7.3,7.7-11.3,11.1c-15.2,13-36.1,12-50.2-2.3
	c-3.5-3.6-6.9-7.3-10.7-10.5c-7.5-6.4-17.3-6.3-24.8,0.3c-3.2,2.8-6.1,6.1-9.1,9.2c-16.2,16.5-37.9,16.8-54.5,0.5
	c-3.1-3-5.9-6.4-9.2-9.2c-8.6-7.5-18.3-7.4-26.8,0.3c-3.4,3.1-6.4,6.6-9.7,9.8c-15.4,14.8-36.6,14.9-52.1,0.1
	c-3.1-3-5.9-6.3-9.1-9.3c-9-8.5-19.6-8.4-28.6,0.1c-5,4.8-9.7,10.2-15.3,14.1c-14.3,9.9-32.8,7.7-45.1-4.5c-3.4-3.3-6.5-6.9-10-10.1
	c-9-8.1-19.2-7.8-27.9,0.6c-4.4,4.3-8.5,8.9-13.3,12.7c-13,10.4-32.2,9.9-44.8-1c-4.2-3.6-7.9-7.8-11.9-11.7
	c-3.9-3.8-8.5-6.2-14.1-6.5c-5.4-0.2-8.4-3.3-8.4-8.3c0.1-5,3.4-8,8.7-8.1C40.2,29.5,40.8,29.5,41.4,29.5z"/>
<path class="st0" d="M379.3,135.3c-5.5,0-14-3.9-21.2-10.9c-3.3-3.2-6.3-6.7-9.7-9.8c-8.3-7.8-19-7.8-27.4,0
	c-2.9,2.8-5.8,5.6-8.5,8.7c-14,15.7-38.9,16.8-54.8-0.5c-2.6-2.9-5.3-5.8-8.2-8.4c-8.4-7.6-18.8-7.5-27.1,0.2
	c-3.8,3.5-7.1,7.5-11,10.9c-15.6,13.8-35.8,13.2-50.8-1.2c-3.1-3-6-6.2-9.1-9.2c-8.7-8.5-20.1-8.3-28.6,0.3c-4,4.1-7.9,8.3-12.3,12
	c-13.7,11.3-32.6,10.9-46-0.8c-4.5-3.9-8.6-8.3-12.8-12.4c-3.6-3.5-7.9-5-12.8-5.3c-5.7-0.4-8.5-3.5-8.3-8.8
	c0.2-4.8,3.6-7.7,9.1-7.6c10.8,0,19.2,4.8,26.5,12.4c2.8,2.9,5.6,5.8,8.5,8.6c7.3,6.9,17.7,7.4,25.4,0.9c4.1-3.5,7.6-7.7,11.7-11.4
	c16.2-14.7,36.3-14.3,52,0.9c2.9,2.8,5.5,5.9,8.5,8.7c8.7,8.5,19.4,8.6,28.3,0.3c3.6-3.3,6.7-7.1,10.3-10.4
	c14.4-13.5,35-13.6,49.6-0.4c3.5,3.2,6.7,6.7,10,10.1c9,9.1,20,9.1,29.2,0.1c4.1-4,7.9-8.3,12.2-12c12.7-10.7,32.4-10.6,45.1,0.2
	c3.8,3.2,7.3,6.9,10.7,10.5c9.9,10.3,20.8,10.6,31,0.7c3.3-3.2,6.4-6.6,9.7-9.8c13.7-12.9,35.3-12.8,49,0.2c3.6,3.5,7,7.2,10.6,10.6
	c8.9,8.4,19.4,8.3,28.3-0.1c4-3.8,7.8-8,11.9-11.7c13-11.5,33.4-11.5,46.4,0c4.1,3.6,7.7,7.7,11.6,11.5c9.2,9,21.1,8.5,29.9-0.8
	c4.2-4.4,8.6-8.8,13.3-12.7c5.7-4.6,12.6-6.5,19.9-6.5c5.2,0,8.6,3,8.8,7.5c0.3,5.3-2.5,8.5-8.3,8.9c-5.9,0.4-10.7,2.8-14.8,7
	s-8,8.6-12.6,12.2c-15.1,11.8-35.3,9.5-49.7-5.4c-2.7-2.8-5.3-5.8-8.2-8.4c-8.3-7.6-19.4-7.1-27.3,0.9c-3.7,3.8-7.3,7.8-11.3,11.2
	c-15.3,13-35.5,12.2-49.9-1.8c-3.3-3.2-6.3-6.7-9.7-9.8c-8.1-7.5-18-7.9-26.4-0.7c-4.2,3.6-7.9,7.9-11.9,11.7
	C401.7,132.2,393.5,135.3,379.3,135.3z"/>
</svg>
