<svg id="Capa_1" data-name="Capa 1" xmlns="http://www.w3.org/2000/svg" viewBox="0 0 607.63 231.98"><defs><style>.cls-1{fill:#175e5c;}</style></defs><title>trazos ondas</title><path class="cls-1" d="M763.52,640.62c-11.4-.36-20.43-5.28-28-13.38-2.57-2.75-5.12-5.53-7.88-8.08-7.76-7.18-18.24-7.37-26.1-.33-3.95,3.52-7.41,7.57-11.27,11.2-12.81,12.08-31.89,13.89-45.29,4-4.76-3.52-8.92-7.92-13.12-12.15-10.79-10.91-21.39-10.92-32.22,0a137.41,137.41,0,0,1-11.54,10.85,34.79,34.79,0,0,1-44.59-.88c-4.51-3.93-8.51-8.43-12.92-12.49-8.22-7.57-18.31-7.62-26.65-.09-3.72,3.36-7.07,7.11-10.66,10.62a35.61,35.61,0,0,1-48.91,1.47c-3.67-3.21-6.85-7-10.38-10.31-10.66-10.14-21-9.69-31.35.69-5.18,5.18-10.58,10.44-16.74,14.28-11.34,7.05-27.76,5.44-38.1-3-4.4-3.61-8.27-7.87-12.32-11.89-10-9.92-20.61-9.83-30.71.06-4.95,4.86-9.73,10.19-15.49,13.9-14.12,9.12-31.67,6.4-44.76-6.08-2.32-2.21-4.51-4.57-6.66-6.94-4.59-5.06-9.94-8.24-17.07-8.46-4.7-.14-7.5-3.85-7.34-8.48s3.24-7.63,8.06-7.79a33,33,0,0,1,24.64,9.55c3.94,3.74,7.56,7.83,11.58,11.47,8.08,7.31,18.86,7.11,26.8-.43,4-3.83,7.64-8.15,11.84-11.79a35.71,35.71,0,0,1,47.75.14c4,3.49,7.56,7.41,11.19,11.26a19.58,19.58,0,0,0,28.08.12c3.54-3.74,7-7.57,10.91-11,15.8-13.83,37.1-12.63,51.71,2.74,2.49,2.63,5,5.25,7.53,7.84,7.94,8.07,19.32,8.51,27.75.89,3.2-2.89,6-6.2,9.06-9.27,15.58-15.68,37.53-15.84,53.33-.36,3.08,3,5.93,6.29,9,9.29,7.94,7.67,19,7.86,27.13.38,3.88-3.6,7.37-7.63,11.24-11.23,14.89-13.87,37-13,50.94,1.77,3.05,3.24,6.37,6.22,9.5,9.39,7,7,20.1,7.45,27.51-.42a151.49,151.49,0,0,1,11.87-11.77c14.73-12.49,35-11.71,49,1.72,3.11,3,6,6.2,9.07,9.26,8.83,8.85,19.83,9,29,.45,4.87-4.56,9.4-9.54,14.58-13.71,5.94-4.77,13.1-6.7,20.76-6.33a7.82,7.82,0,0,1,7.8,8.13c.05,4.36-2.92,8.16-7.27,8.14-8.1,0-13.52,4.48-18.54,9.91-6,6.48-12.16,12.8-21.07,15.16C770.69,639.57,767.08,640,763.52,640.62Z" transform="translate(-213.44 -471.4)"/><path class="cls-1" d="M763.58,703.38c-11.26-.23-20.19-5.1-27.73-13-2.6-2.72-5.09-5.56-7.87-8.08-8.59-7.79-18.93-7.74-27.37.1-3.26,3-6.2,6.42-9.4,9.53-15.61,15.18-37.75,14.88-53-.68-2.53-2.59-5-5.28-7.53-7.83-9.38-9.34-21-9.2-30.21.33-2.52,2.61-5,5.28-7.54,7.83-15.56,15.41-37.36,15.42-53,0-2.78-2.74-5.34-5.69-8.12-8.43-8.59-8.49-18.93-8.95-28-1-4.18,3.67-7.78,8-11.94,11.67-14.16,12.58-34.2,12.48-48.27-.22-4.33-3.91-8.21-8.34-12.58-12.21a18.58,18.58,0,0,0-25.45.28c-3.18,2.91-6,6.2-9,9.28-16.26,16.52-38.65,16.36-54.78-.36-3-3.11-5.9-6.35-9.16-9.17-7.63-6.58-17.45-6.57-25.11,0-3.26,2.8-6.14,6.06-9.15,9.16-16.6,17.07-39.35,16.83-55.62-.58-1.81-1.94-3.73-3.77-5.5-5.73a22.91,22.91,0,0,0-16.06-7.89c-5.08-.33-7.91-3.64-7.8-8.46s3.3-7.81,8.45-7.91c11.4-.22,20.3,5,27.94,13,2.79,2.92,5.45,6,8.49,8.64,7.82,6.77,18.22,6.45,25.77-.65,4.06-3.82,7.84-7.94,12-11.68A35.38,35.38,0,0,1,344,669c3.23,2.85,6.14,6.07,9.11,9.2,6.44,6.79,14,10.59,23.19,6.72,3.7-1.55,6.77-4.73,9.92-7.42,4.76-4,8.9-9,14.07-12.36,12.78-8.38,30.12-6.77,41.59,3.31,3.65,3.21,7,6.81,10.43,10.24q16.13,16,31.93-.47c3.57-3.7,7-7.69,11.06-10.75,15.31-11.47,34.64-9.86,48.24,3.66,3.36,3.34,6.45,7,10,10.07,8.68,7.51,19.18,7,27.33-1.21,3-2.95,5.76-6.06,8.78-9,15.91-15.3,37.79-14.9,53.28.91,3.11,3.18,6.08,6.53,9.44,9.45,8.07,7,18.21,6.79,26.06-.52,4.17-3.89,7.91-8.27,12.2-12a35.69,35.69,0,0,1,47.72.26c3.44,3,6.54,6.46,9.78,9.72,10.38,10.43,22,10.15,31.9-.76,5.34-5.89,10.55-12.17,18.22-15a54.69,54.69,0,0,1,15-3c4.54-.3,7.56,3.24,7.78,7.61s-2.35,8.3-6.86,8.46c-8.8.3-14.73,5.06-20.11,11.24-5.65,6.5-12,12.1-20.66,14.26C770.21,702.54,766.87,702.84,763.58,703.38Z" transform="translate(-213.44 -471.4)"/><path class="cls-1" d="M223.79,471.7c10.47.21,18.48,5.39,25.55,12.52,3,3.07,5.85,6.41,9.15,9.16,7.77,6.49,17.59,6.3,25.15-.39,3.23-2.85,6.1-6.11,9.15-9.16,16.46-16.42,37.49-16.58,54.18-.41,3.4,3.29,6.49,6.94,10.07,10,7.55,6.46,17.74,6.24,25.19-.4a105.58,105.58,0,0,0,9.16-9.16c14.18-16.2,39.76-16.79,55.38.66,2.51,2.8,5.14,5.52,7.91,8.06,7.87,7.21,17.63,7.56,25.76.61,5.38-4.6,9.91-10.28,15.57-14.48,14.83-11,34.09-9.23,47.25,3.79,3.57,3.53,6.88,7.33,10.62,10.66a18.37,18.37,0,0,0,25.13,0c4-3.61,7.64-7.73,11.6-11.45,14.23-13.36,34.66-13.76,49.31-.9,3.34,2.93,6.29,6.31,9.41,9.5,10.21,10.44,21.52,10.36,31.71-.19a135.59,135.59,0,0,1,9.76-9.72c15.07-12.73,35.52-11.8,49.55,2.11,3.26,3.24,6.24,6.79,9.68,9.82,8.92,7.86,19,7.66,27.78-.45,3-2.74,5.57-5.85,8.42-8.72,7.16-7.21,15.59-11.62,26-11.5,5.41.06,8.65,3,8.78,8s-2.92,8.3-8.3,8.42c-8.1.18-13.3,5.14-18.19,10.59-7,7.84-14.78,14.21-25.83,15.62-12,1.51-22-2-30.61-10.14-3.25-3-6.19-6.43-9.4-9.53-9-8.67-19.63-8.7-28.54-.1-3.81,3.68-7.31,7.7-11.32,11.14-15.21,13-36.06,12-50.17-2.31-3.52-3.57-6.91-7.3-10.7-10.55-7.5-6.42-17.27-6.29-24.77.27-3.24,2.83-6.12,6.09-9.14,9.17-16.19,16.55-37.9,16.76-54.45.5-3.08-3-5.9-6.35-9.15-9.17-8.6-7.45-18.3-7.35-26.76.25-3.41,3.07-6.37,6.63-9.68,9.82-15.35,14.84-36.59,14.88-52.06.1-3.12-3-5.93-6.29-9.07-9.26-9-8.53-19.59-8.44-28.62.07-5.05,4.77-9.67,10.16-15.32,14.07-14.25,9.88-32.76,7.72-45.14-4.54-3.37-3.34-6.51-6.91-10-10.07-9-8.11-19.21-7.84-27.94.55-4.42,4.25-8.49,8.92-13.25,12.73a35.37,35.37,0,0,1-44.76-1c-4.2-3.65-7.93-7.83-11.92-11.72s-8.46-6.25-14.09-6.45c-5.42-.19-8.46-3.33-8.38-8.33s3.36-8,8.67-8.08Z" transform="translate(-213.44 -471.4)"/><path class="cls-1" d="M561.76,577.5c-5.47,0-14-3.87-21.18-10.93-3.28-3.22-6.33-6.69-9.68-9.84-8.34-7.82-19-7.8-27.37,0-2.95,2.76-5.81,5.64-8.5,8.65-14,15.67-38.91,16.8-54.74-.5-2.64-2.87-5.29-5.76-8.18-8.37-8.36-7.58-18.82-7.51-27.07.18-3.77,3.51-7.09,7.51-11,10.91-15.65,13.75-35.81,13.23-50.78-1.21-3.11-3-6-6.22-9.09-9.24-8.66-8.46-20.11-8.28-28.6.3-4,4.06-7.86,8.34-12.25,11.95a35.06,35.06,0,0,1-46-.76c-4.48-3.91-8.56-8.26-12.79-12.44-3.57-3.53-8-5-12.84-5.31-5.66-.41-8.46-3.46-8.25-8.84.19-4.79,3.63-7.64,9.09-7.62,10.74,0,19.24,4.83,26.47,12.38,2.79,2.91,5.59,5.82,8.51,8.59,7.33,7,17.66,7.43,25.41.89,4.14-3.49,7.64-7.72,11.66-11.36,16.21-14.7,36.3-14.34,52,.89,2.9,2.81,5.56,5.87,8.46,8.69,8.73,8.46,19.43,8.59,28.32.27,3.55-3.33,6.73-7.07,10.29-10.4,14.39-13.46,35-13.62,49.57-.36,3.5,3.19,6.67,6.73,10,10.08,9.05,9.06,20,9.11,29.23.14,4.08-4,7.88-8.31,12.23-12,12.71-10.72,32.42-10.61,45.11.19,3.81,3.24,7.25,6.92,10.73,10.53,9.93,10.33,20.85,10.61,31,.66,3.28-3.22,6.39-6.62,9.73-9.76a35.73,35.73,0,0,1,49,.14c3.64,3.45,7,7.22,10.63,10.65,8.94,8.39,19.41,8.34,28.26-.1,4-3.85,7.75-8,11.93-11.71a35.59,35.59,0,0,1,46.4,0c4.07,3.58,7.68,7.68,11.58,11.47,9.24,9,21.06,8.53,29.86-.78a144.49,144.49,0,0,1,13.3-12.66c5.68-4.64,12.57-6.49,19.89-6.47,5.19,0,8.61,3,8.85,7.52.29,5.31-2.51,8.46-8.26,8.88a22,22,0,0,0-14.75,7c-4.07,4.19-8,8.64-12.56,12.23-15.06,11.84-35.3,9.52-49.74-5.36-2.72-2.8-5.3-5.76-8.18-8.38-8.34-7.56-19.44-7.12-27.35.89-3.72,3.76-7.26,7.75-11.28,11.16-15.3,12.95-35.45,12.16-49.89-1.8-3.31-3.2-6.31-6.71-9.67-9.84-8.09-7.53-18-7.86-26.36-.65-4.22,3.62-7.86,7.9-11.92,11.72C584.08,574.38,576,577.5,561.76,577.5Z" transform="translate(-213.44 -471.4)"/></svg>