<?xml version="1.0" encoding="utf-8"?>
<!-- Generator: Adobe Illustrator 24.0.0, SVG Export Plug-In . SVG Version: 6.00 Build 0)  -->
<svg version="1.1" id="Capa_1" xmlns="http://www.w3.org/2000/svg" xmlns:xlink="http://www.w3.org/1999/xlink" x="0px" y="0px"
	 viewBox="0 0 820.8 496.8" style="enable-background:new 0 0 820.8 496.8;" xml:space="preserve">
<style type="text/css">
	.st0{fill:#FFFFFF;stroke:#000000;stroke-miterlimit:10;}
	.st1{fill:#B3B2B8;}
	.st2{fill:#FFFFFF;}
	.st3{opacity:0.75;}
</style>
<g>
	<g>
		<g>
			<path class="st0" d="M174.4,215.7"/>
		</g>
		<g>
			<path class="st0" d="M174.4,150.5"/>
		</g>
		<g>
			<path class="st1" d="M705.5,166.4l-18.4,54.5c0,0,2.8,13.6,18.5,13.6s18.6-12.8,18.6-12.8L705.5,166.4z"/>
		</g>
		<g>
			<path class="st1" d="M732.6,305.7c-5.1,0-10-2.1-13.5-5.7c-3.5,3.6-8.4,5.7-13.5,5.7c-5.2,0-10-2.1-13.6-5.8
				c-3.5,3.7-8.4,5.8-13.6,5.8c-10.4,0-18.8-8.5-18.8-18.8h4.9c0,7.7,6.3,13.9,13.9,13.9c4.6,0,8.9-2.3,11.5-6.1l2-3l2,3
				c2.6,3.8,6.9,6.1,11.5,6.1c4.6,0,8.9-2.3,11.5-6.1l2-2.9l2,2.9c2.6,3.8,6.9,6.1,11.5,6.1c7.7,0,13.9-6.3,13.9-13.9h4.9
				C751.4,297.3,743,305.7,732.6,305.7z"/>
		</g>
		<g>
			<path class="st1" d="M252.4,188h-30.8c-0.7,0-1.3-0.6-1.3-1.3v-9.3c0-0.7,0.6-1.3,1.3-1.3h30.8c0.7,0,1.3,0.6,1.3,1.3v9.3
				C253.7,187.4,253.1,188,252.4,188z"/>
		</g>
		<g>
			<path class="st1" d="M172.2,150.1c-11.3,7-17.6,17.7-17.6,31.9c0,13.4,7.5,23.8,17.7,31l48,0.4v-63.6L172.2,150.1z"/>
		</g>
		<g>
			<g>
				<path class="st2" d="M80.4,327.2c-3.1-2.2-4.6-5.2-4.6-9.3V150.7H40.3c-5.8,0-10.2-1.5-12.9-4.2s-4.2-6-4.2-9.4
					c0-3.5,1.5-6.7,4.2-9.4c2.8-2.8,7.1-4.2,12.9-4.2h103.3c5.8,0,10.2,1.5,13.1,4.2c2.8,2.8,4.2,6,4.2,9.4c0,3.5-1.5,6.7-4.2,9.4
					c-2.9,2.8-7.3,4.2-13.1,4.2h-35.3v167.2c0,4.1-1.6,7.1-4.6,9.3c-3.1,2.2-7,3.3-11.6,3.3S83.4,329.4,80.4,327.2z"/>
			</g>
			<g>
				<path class="st2" d="M330.1,330.6c-4.2,0-7.8-1.2-10.9-3.3c-3.1-2.3-4.6-5.4-4.6-9.3V136.2c0-4.1,1.5-7.3,4.5-9.4
					c2.9-2.2,6.8-3.2,11.5-3.3h109c4.2,0,7.4,1.3,9.6,4.1c2.2,2.6,3.2,5.8,3.2,9.6c0,3.8-1,7-3.2,9.6c-2.2,2.8-5.4,4.1-9.6,4.1
					h-92.3v62.6h75.6c4.2,0,7.4,1.3,9.6,4.1c2.2,2.6,3.2,5.8,3.2,9.6c0,3.8-1,7-3.2,9.6c-2.2,2.8-5.4,4.1-9.6,4.1h-75.6v62.8h92.3
					c4.2,0,7.4,1.3,9.6,3.9c2.2,2.6,3.2,5.8,3.2,9.6s-1,7.1-3.2,9.7c-2.2,2.6-5.4,3.9-9.6,3.9H330.1z"/>
			</g>
			<g>
				<path class="st2" d="M591.8,325.6l-77.3-92.8l-10.6,10.9l-11.6,12.1v62.2c0,4.1-1.6,7.1-4.6,9.3c-3.2,2.2-7.1,3.3-11.8,3.3
					c-4.5,0-8.4-1.2-11.6-3.3c-3.1-2.2-4.6-5.2-4.6-9.3V136.2c0-4.1,1.6-7.3,4.8-9.4c3.1-2.2,7-3.3,11.5-3.3c4.6,0,8.6,1.2,11.6,3.3
					c3.2,2.2,4.8,5.4,4.8,9.4v78.9l85.9-86.9c3.2-3.2,6.4-4.8,9.9-4.8c3.2,0,6.2,1.2,9,3.6c3.9,3.2,5.8,6.8,5.8,10.8
					c0,2.5-1.2,4.9-3.5,7.6l-66.3,67.1l79.6,95.9c2.3,2.9,3.3,5.5,3.3,8.1c0,0.6-0.1,1.7-0.4,3.8c-0.4,1.9-2,4.2-5.1,6.7
					c-3,2.5-6.2,3.6-9.7,3.6C597.6,330.6,594.6,329,591.8,325.6z"/>
			</g>
			<g>
				<path class="st2" d="M758.3,322.1l-52.7-155.8l-52.7,155.9c-2,5.4-6.1,8.1-12.4,8.1c-2.3,0-4.7-0.4-7.1-1.3
					c-4.5-1.6-7.7-3.9-9.9-7.1c-1-1.7-1.6-3.6-1.6-5.7c0-1.5,0.3-3.1,0.7-4.7l61-180.5c0.3-1,0.7-1.6,1.3-2
					c6.2-4.1,13.1-6.2,20.8-6.5c7.3,0.3,14.2,2.5,20.8,6.7c0.1,0,0.1,0.1,0.4,0.6c0.1,0.3,20.8,60.9,61.8,181.8
					c0.4,1.6,0.7,3.2,0.7,4.7c0,2-0.6,3.9-1.6,5.7c-2.2,3.2-5.4,5.5-9.7,7.1c-2.6,0.9-5.1,1.3-7.4,1.3
					C764.6,330.4,760.4,327.7,758.3,322.1z"/>
			</g>
			<g>
				<path class="st2" d="M171.5,327.1c-3.2-2.2-4.8-5.4-4.8-9.4L166.5,213l44.9,0.1c3.2,0.1,6.4,0.3,9.7,0.3
					c12.6,0,25.6-1.9,38.5-5.5c4.2-1.9,7.4-3.9,9.3-6.1c1.9-2,2.9-3.9,2.9-5.8v-28.8c0-1.9-1-3.8-2.9-6c-1.9-2-4.9-4.1-9.2-6
					c-11.3-3.6-23.2-5.5-35.6-5.5c-3.1,0-6,0.1-8.9,0.3h-46.2l-2.3,0.1c-0.1-3.1-0.1-7.6-0.1-13.5c0-4.8,1.5-8.3,4.5-10.5
					c2.9-2.2,6.7-3.3,11.3-3.5h60c16.4,0,30.5,3.6,42.4,11c11.8,6.8,18.5,16.6,19.8,29.1v37.8c0,10.6-8.9,21.5-26.4,32.7l28.5,77.7
					c0.6,1.7,0.9,3.3,0.9,4.8c0,2-0.9,4.4-2.5,6.8c-1.7,2.5-4.8,4.6-9.3,6.2c-2.6,0.9-5.1,1.3-7.4,1.3c-1.7,0-3.9-0.3-6.4-1
					c-2.5-0.7-4.5-2.9-6-6.8L246,240.5h-46.6v77.2c0,4.1-1.6,7.3-4.6,9.4c-3.2,2.2-7.1,3.3-11.6,3.3
					C178.4,330.4,174.5,329.3,171.5,327.1z"/>
			</g>
		</g>
	</g>
	<g class="st3">
		<path class="st2" d="M174.3,404.4h-7l-2.9-9.8h-12.9l-2.9,9.8H142v-1.4l11.7-38.9h9l11.6,38.9V404.4z M160.1,380.1
			c-0.8-2.7-1.5-5.4-2.1-8.3h-0.1c-0.5,2.3-1.2,5.1-2.1,8.3l-2.6,8.7h9.5L160.1,380.1z"/>
		<path class="st2" d="M195.9,399.9c5.7,0.6,8.5,3.3,8.5,8.2c0,2.8-1.2,5.2-3.7,7c-2.4,1.9-6.2,2.8-11.2,2.8c-4.7,0-8-0.6-10.1-1.9
			c-2.1-1.3-3.1-2.9-3.1-5c0-2,1-3.8,2.9-5.5l2.8,0.8l-0.4,2.6c0,1.7,0.6,2.9,1.9,3.6c1.3,0.7,3.2,1,5.8,1c5.6,0,8.3-1.5,8.3-4.5
			c0-1-0.3-1.8-0.8-2.3c-0.5-0.5-1.5-0.8-2.9-1l-10.3-1c-1.6-0.1-2.8-0.6-3.5-1.4c-0.7-0.8-1.1-1.8-1.1-2.9c0-2.2,1.5-4.2,4.4-5.9
			c-3.9-1.8-5.8-5-5.8-9.8c0-3.1,1-5.6,3.1-7.5c2.1-1.9,4.9-2.9,8.7-2.9c1.7,0,3.2,0.2,4.5,0.5l9.5-0.5v4.1h-3.9
			c1.3,1.7,1.9,3.8,1.9,6.3c0,3.4-1,6.1-3.1,8c-2,1.9-4.9,2.9-8.6,2.9c-0.9,0-1.8-0.1-2.6-0.2l-1.9,3.2L195.9,399.9z M185.2,380.5
			c-0.9,1.1-1.4,2.4-1.4,4c0,4.6,1.9,6.9,5.8,6.9c3.6,0,5.3-2.1,5.3-6.2c0-2.1-0.5-3.7-1.5-4.7c-1-1.1-2.4-1.6-4.3-1.6
			C187.5,378.9,186.1,379.4,185.2,380.5z"/>
		<path class="st2" d="M232.5,391.2h-18.4c0.2,3,1.1,5.3,2.6,6.7c1.5,1.5,3.5,2.2,5.9,2.2c1.4,0,3-0.3,4.8-0.8
			c1.8-0.5,3.3-1.1,4.5-1.8v5.1c-2.8,1.6-6.3,2.3-10.6,2.3c-4.4,0-7.8-1.4-10.3-4.1c-2.5-2.7-3.8-6.5-3.8-11.2
			c0-4.7,1.2-8.5,3.6-11.2c2.4-2.7,5.9-4.1,10.4-4.1c1.2,0,2.4,0.1,3.4,0.3c1.1,0.2,2.1,0.5,3.2,1.1s2,1.2,2.7,1.9
			c0.7,0.8,1.4,1.8,1.8,3.1c0.5,1.3,0.7,2.8,0.7,4.5C233.2,387,232.9,389,232.5,391.2z M226.6,387.4c0.1-0.8,0.2-1.6,0.2-2.3
			c0-1.3-0.2-2.3-0.6-3.2c-0.4-0.9-0.9-1.5-1.5-1.9c-0.6-0.4-1.2-0.6-1.7-0.7c-0.5-0.1-1-0.2-1.6-0.2c-4.5,0-7,2.9-7.5,8.6
			L226.6,387.4z"/>
		<path class="st2" d="M246,379l2.9-2.9c2-1.1,4.1-1.6,6.1-1.6c2.5,0,4.5,0.7,6,2.1c1.5,1.4,2.3,3.5,2.3,6.3v21.6h-6.7v-20.3
			c0-2.9-1.3-4.4-3.9-4.4c-2,0-4.3,0.8-6.9,2.4v22.3h-6.6v-29.4h6.3l0.3,3.9H246z"/>
		<path class="st2" d="M277.9,382.3c-1.3,1.9-1.9,4.4-1.9,7.5c0,6.9,2.6,10.4,7.9,10.4c2.7,0,5.5-0.9,8.3-2.6v5.1
			c-2.8,1.6-6,2.3-9.6,2.3c-4.3,0-7.6-1.4-9.9-4.1c-2.3-2.7-3.5-6.5-3.5-11.2c0-4.7,1.2-8.5,3.6-11.2c2.4-2.7,5.9-4.1,10.4-4.1
			c3.1,0,6.2,0.6,9.2,1.7l-1.2,4.2l-0.8,0.6c-2.4-1.1-4.7-1.7-6.9-1.7C281.1,379.3,279.2,380.3,277.9,382.3z"/>
		<path class="st2" d="M298.9,364.7c0.7-0.7,1.6-1,2.7-1c1.1,0,2,0.3,2.7,1c0.7,0.7,1,1.5,1,2.4c0,1-0.3,1.8-1,2.4
			c-0.7,0.6-1.6,1-2.7,1c-1.1,0-2-0.3-2.7-1c-0.7-0.6-1-1.5-1-2.4C297.9,366.2,298.2,365.4,298.9,364.7z M304.9,404.4h-6.6v-29.4
			h6.6V404.4z"/>
		<path class="st2" d="M324,403.6c-1.4,0.9-3.2,1.4-5.2,1.4c-2.4,0-4.4-0.7-5.9-2.1c-1.6-1.4-2.3-3.2-2.3-5.4c0-4.4,3-7.2,9-8.5
			l8-1.6v-2.9c0-1.6-0.4-2.9-1.2-3.8c-0.8-1-2.3-1.4-4.5-1.4c-2.8,0-5.6,0.7-8.6,2l-0.6-0.7l1.8-4.6c3.1-0.9,6.1-1.4,8.9-1.4
			c3.3,0,5.9,0.7,7.9,2.2c2,1.4,3,3.5,3,6v15.2c0,1.6,0.6,2.5,1.8,2.5c0.6,0,1.2-0.1,1.9-0.4v3.8c-1.4,0.9-3,1.4-5,1.4
			c-3,0-4.8-1.5-5.4-4.5L324,403.6z M320.4,392.6c-2,0.6-3.1,1.9-3.1,3.9c0,1.2,0.4,2.1,1.1,2.7c0.8,0.6,1.8,0.9,3,0.9
			c2.3,0,4.3-1,6-2.9v-6.5L320.4,392.6z"/>
		<path class="st2" d="M379.3,404.4h-6.4l-0.3-3.9l-3.5,3.1c-1.4,0.9-3.2,1.4-5.2,1.4c-3.3,0-5.9-1.4-7.7-4.2
			c-1.9-2.8-2.8-6.5-2.8-11c0-4.8,1.1-8.5,3.3-11.2c2.2-2.7,5.1-4.1,8.8-4.1c2.6,0,5,0.7,7.2,2.1v-12.1l4.9-2.3h1.8V404.4z
			 M372.7,397.4v-16.8c-1.7-1.1-3.6-1.6-5.6-1.6c-4.6,0-6.9,3.6-6.9,10.7c0,3.7,0.6,6.3,1.7,8c1.2,1.6,2.9,2.4,5.2,2.4
			C368.8,400.1,370.7,399.2,372.7,397.4z"/>
		<path class="st2" d="M410.7,391.2h-18.4c0.2,3,1.1,5.3,2.6,6.7c1.5,1.5,3.5,2.2,5.9,2.2c1.4,0,3-0.3,4.8-0.8
			c1.8-0.5,3.3-1.1,4.5-1.8v5.1c-2.8,1.6-6.3,2.3-10.6,2.3c-4.4,0-7.8-1.4-10.3-4.1c-2.5-2.7-3.8-6.5-3.8-11.2
			c0-4.7,1.2-8.5,3.6-11.2c2.4-2.7,5.9-4.1,10.4-4.1c1.2,0,2.4,0.1,3.4,0.3c1.1,0.2,2.1,0.5,3.2,1.1c1.1,0.5,2,1.2,2.7,1.9
			c0.7,0.8,1.4,1.8,1.8,3.1c0.5,1.3,0.7,2.8,0.7,4.5C411.4,387,411.1,389,410.7,391.2z M404.8,387.4c0.1-0.8,0.2-1.6,0.2-2.3
			c0-1.3-0.2-2.3-0.6-3.2c-0.4-0.9-0.9-1.5-1.5-1.9c-0.6-0.4-1.2-0.6-1.7-0.7c-0.5-0.1-1-0.2-1.6-0.2c-4.5,0-7,2.9-7.5,8.6
			L404.8,387.4z"/>
		<path class="st2" d="M444.4,364.5c4.9,0,8.5,1.1,10.9,3.2s3.5,5.1,3.5,9c0,3.9-1.2,6.9-3.5,9.2c-2.3,2.3-6,3.4-10.9,3.4h-6.5v15.2
			h-7v-39.9H444.4z M444.4,383.4c2.6,0,4.4-0.5,5.5-1.6c1.1-1.1,1.6-2.8,1.6-5.1c0-2.3-0.5-3.9-1.6-4.9c-1-0.9-2.9-1.4-5.5-1.4h-6.5
			v13H444.4z"/>
		<path class="st2" d="M481.3,400.5l-2.9,2.9c-2,1.1-4.1,1.6-6.1,1.6c-2.5,0-4.5-0.7-6-2.1s-2.3-3.5-2.3-6.3v-21.6h6.7v20.3
			c0,2.9,1.3,4.4,3.9,4.4c2,0,4.3-0.8,6.9-2.4v-22.3h6.6v29.4h-6.3l-0.3-3.9H481.3z"/>
		<path class="st2" d="M518.8,378.7c1.9,2.8,2.8,6.5,2.8,11c0,4.8-1.2,8.5-3.6,11.2c-2.4,2.7-5.5,4.1-9.5,4.1
			c-3.1,0-5.8-0.8-8.3-2.5l-2.4,2.2h-2.1v-40.2l4.9-2.3h1.8v16.8l3.6-3.1c1.4-0.9,3.1-1.4,5.2-1.4
			C514.4,374.5,516.9,375.9,518.8,378.7z M514.8,389.7c0-3.7-0.6-6.3-1.7-8c-1.2-1.6-2.9-2.4-5.2-2.4c-1.1,0-2.2,0.3-3.2,0.8
			c-1,0.5-1.8,1.1-2.4,1.6v17.8c1.9,0.9,3.7,1.4,5.5,1.4C512.5,400.9,514.8,397.2,514.8,389.7z"/>
		<path class="st2" d="M534.3,362.1v35.7c0,1.6,0.6,2.5,1.8,2.5c0.6,0,1.2-0.1,1.9-0.4v4.3c-1.3,0.5-2.8,0.8-4.6,0.8
			c-1.7,0-3.1-0.4-4.2-1.3c-1.1-0.8-1.6-2.1-1.6-3.8v-35.4l4.9-2.3H534.3z"/>
		<path class="st2" d="M543.5,364.7c0.7-0.7,1.6-1,2.7-1s2,0.3,2.7,1c0.7,0.7,1,1.5,1,2.4c0,1-0.3,1.8-1,2.4c-0.7,0.6-1.6,1-2.7,1
			s-2-0.3-2.7-1c-0.7-0.6-1-1.5-1-2.4C542.5,366.2,542.8,365.4,543.5,364.7z M549.5,404.4h-6.6v-29.4h6.6V404.4z"/>
		<path class="st2" d="M564.4,382.3c-1.3,1.9-1.9,4.4-1.9,7.5c0,6.9,2.6,10.4,7.9,10.4c2.7,0,5.5-0.9,8.3-2.6v5.1
			c-2.8,1.6-6,2.3-9.6,2.3c-4.3,0-7.6-1.4-9.9-4.1c-2.3-2.7-3.5-6.5-3.5-11.2c0-4.7,1.2-8.5,3.6-11.2c2.4-2.7,5.9-4.1,10.4-4.1
			c3.1,0,6.2,0.6,9.2,1.7l-1.2,4.2l-0.8,0.6c-2.4-1.1-4.7-1.7-6.9-1.7C567.6,379.3,565.7,380.3,564.4,382.3z"/>
		<path class="st2" d="M585.4,364.7c0.7-0.7,1.6-1,2.7-1s2,0.3,2.7,1c0.7,0.7,1,1.5,1,2.4c0,1-0.3,1.8-1,2.4c-0.7,0.6-1.6,1-2.7,1
			s-2-0.3-2.7-1c-0.7-0.6-1-1.5-1-2.4C584.4,366.2,584.7,365.4,585.4,364.7z M591.4,404.4h-6.6v-29.4h6.6V404.4z"/>
		<path class="st2" d="M623.6,404.4h-6.4l-0.3-3.9l-3.5,3.1c-1.5,0.9-3.2,1.4-5.2,1.4c-3.3,0-5.9-1.4-7.7-4.2
			c-1.9-2.8-2.8-6.5-2.8-11c0-4.8,1.1-8.5,3.3-11.2c2.2-2.7,5.1-4.1,8.8-4.1c2.6,0,5,0.7,7.2,2.1v-12.1l4.9-2.3h1.8V404.4z
			 M616.9,397.4v-16.8c-1.7-1.1-3.6-1.6-5.6-1.6c-4.6,0-6.9,3.6-6.9,10.7c0,3.7,0.6,6.3,1.7,8c1.2,1.6,2.9,2.4,5.2,2.4
			C613.1,400.1,615,399.2,616.9,397.4z"/>
		<path class="st2" d="M642.6,403.6c-1.5,0.9-3.2,1.4-5.2,1.4c-2.4,0-4.4-0.7-5.9-2.1c-1.6-1.4-2.3-3.2-2.3-5.4c0-4.4,3-7.2,9-8.5
			l8-1.6v-2.9c0-1.6-0.4-2.9-1.2-3.8c-0.8-1-2.3-1.4-4.5-1.4c-2.8,0-5.6,0.7-8.6,2l-0.6-0.7l1.8-4.6c3.1-0.9,6.1-1.4,8.9-1.4
			c3.3,0,5.9,0.7,7.9,2.2c2,1.4,3,3.5,3,6v15.2c0,1.6,0.6,2.5,1.8,2.5c0.6,0,1.2-0.1,1.9-0.4v3.8c-1.4,0.9-3,1.4-5,1.4
			c-3,0-4.8-1.5-5.4-4.5L642.6,403.6z M639,392.6c-2,0.6-3.1,1.9-3.1,3.9c0,1.2,0.4,2.1,1.1,2.7c0.8,0.6,1.8,0.9,3,0.9
			c2.3,0,4.3-1,6-2.9v-6.5L639,392.6z"/>
		<path class="st2" d="M685.8,404.4h-6.4l-0.3-3.9l-3.5,3.1c-1.5,0.9-3.2,1.4-5.2,1.4c-3.3,0-5.9-1.4-7.7-4.2
			c-1.9-2.8-2.8-6.5-2.8-11c0-4.8,1.1-8.5,3.3-11.2c2.2-2.7,5.1-4.1,8.8-4.1c2.6,0,5,0.7,7.2,2.1v-12.1l4.9-2.3h1.8V404.4z
			 M679.1,397.4v-16.8c-1.7-1.1-3.6-1.6-5.6-1.6c-4.6,0-6.9,3.6-6.9,10.7c0,3.7,0.6,6.3,1.7,8c1.2,1.6,2.9,2.4,5.2,2.4
			C675.3,400.1,677.2,399.2,679.1,397.4z"/>
	</g>
</g>
</svg>
