<svg id="Capa_1" data-name="Capa 1" xmlns="http://www.w3.org/2000/svg" viewBox="0 0 154.8 155.52"><defs><style>.cls-1{fill:#fff;}</style></defs><title>up</title><path class="cls-1" d="M79.35,5.52a71.83,71.83,0,1,1-.9,143.65C39,149,7.1,116.62,7.27,76.89A71.75,71.75,0,0,1,79.35,5.52ZM136.76,78.4c1-31.22-24.41-57.67-56.51-58.75C49,18.61,22.53,44,21.4,76.09,20.31,107.33,45.75,134,77.74,135,109.24,136.09,135.69,110.72,136.76,78.4Z"/><path class="cls-1" d="M86.23,65.71v7.08c0,10.61,0,21.22,0,31.83,0,5.53-2.61,8.54-7.14,8.53s-7.08-3-7.1-8.58c0-11.5,0-23,0-34.52V65.38c-3.32,3.06-6,5.54-8.67,8-3.81,3.47-7.88,3.69-10.87.63s-2.68-7.31.94-10.8q9.8-9.46,19.7-18.8c4.29-4,7.89-4,12,.06q10.1,10,20.06,20.07c3.39,3.43,3.57,7.53.66,10.55S98.45,77.94,95,74.52C92.25,71.89,89.64,69.17,86.23,65.71Z"/></svg>