<?xml version="1.0" encoding="utf-8"?>
<!-- Generator: Adobe Illustrator 24.0.0, SVG Export Plug-In . SVG Version: 6.00 Build 0)  -->
<svg version="1.1" id="Capa_1" xmlns="http://www.w3.org/2000/svg" xmlns:xlink="http://www.w3.org/1999/xlink" x="0px" y="0px"
	 viewBox="0 0 933.1 280.8" style="enable-background:new 0 0 933.1 280.8;" xml:space="preserve">
<style type="text/css">
	.st0{fill:#FFFFFF;}
	.st1{fill:#FFFFFF;stroke:#000000;stroke-width:10;stroke-miterlimit:10;}
</style>
<path class="st0" d="M118,183.7c-1.5,0-2-0.5-2-2V99.9c0-1.5,0.5-2,2-2h5.9c1.5,0,1.8,0.5,1.8,2v81.8c0,1.5-0.4,2-1.8,2H118z"/>
<path class="st0" d="M158.1,97.3c0-0.9,0.2-1,1.1-1h0.6c0.7,0,1.1,0.2,1.6,0.9l57.1,68.1V99.9c0-1.6,0.5-2,2-2h5.9
	c1.5,0,1.8,0.4,1.8,2v84.4c0,0.9-0.2,1-1,1h-0.6c-0.6,0-1.1-0.2-1.8-1l-57-68.5v65.9c0,1.5-0.5,2-2,2h-5.8c-1.5,0-2-0.5-2-2V97.3z"
	/>
<g>
	<path class="st0" d="M294.9,169c0.5-0.9,0.9-1.2,1.5-1.2c0.4,0,0.7,0.1,1.3,0.5c7.8,5.4,18,8.2,27.2,8.2c11.3,0,23-3.7,23-16.4
		c0-10.2-9.2-13.5-25.2-15.7c-13.4-1.8-28.9-5.9-28.9-22.2c0-9.4,7.1-25.6,30.9-25.6c12.6,0,20.8,3.7,30.1,9.3
		c1.3,0.7,1.1,1.5,0.6,2.7l-2.3,3.8c-0.5,0.9-1,1.3-1.6,1.3c-0.2,0-0.6-0.1-1.1-0.5c-7.8-5.3-15.9-8.1-24.5-8.1
		c-18.6,0-22.7,10.4-22.7,16.8c0,10,11.4,12.6,24.9,14.3c15.8,2.1,29.3,7,29.3,23.4c0,13.1-10.2,25.4-31.2,25.4
		c-13,0-23.8-2.9-33.1-9.4c-1.2-0.7-1.2-1.3-0.5-2.7L294.9,169z"/>
	<path class="st0" d="M384.9,140.8c0-24.4,19.7-44.5,43.9-44.5c24.1,0,43.9,20.1,43.9,44.5s-19.7,44.5-43.9,44.5
		C404.7,185.3,384.9,165.2,384.9,140.8z M462.9,140.8c0-18.5-14.7-35.9-34.1-35.9c-19.1,0-34.1,17.4-34.1,35.9
		c0,18.4,14.9,35.9,34.1,35.9C448.2,176.7,462.9,159.2,462.9,140.8z"/>
	<path class="st0" d="M512.1,97.5c0.1-0.9,0.2-1.1,1.1-1.1h0.7c0.5,0,0.9,0.1,1.5,1.1l39.2,74.1l39.2-74.1c0.6-1,1-1.1,1.5-1.1h0.7
		c0.9,0,1,0.2,1.1,1.1l10.3,84.3c0.1,1.3-0.4,2-1.8,2h-6c-1.3,0-1.7-0.5-1.8-2l-7.1-63.8l-33.3,65.4c-0.6,1.2-1.2,2-2.2,2h-1
		c-1,0-1.5-0.7-2.3-2L518.7,118l-7.2,63.7c-0.2,1.5-0.5,2-2,2h-6c-1.3,0-2-0.6-1.7-2L512.1,97.5z"/>
	<path class="st0" d="M642.9,97.3c0-0.9,0.2-1,1.1-1h0.6c0.7,0,1.1,0.2,1.6,0.9l57.1,68.1V99.9c0-1.6,0.5-2,2-2h5.9
		c1.5,0,1.8,0.4,1.8,2v84.4c0,0.9-0.2,1-1,1h-0.6c-0.6,0-1.1-0.2-1.8-1l-57-68.5v65.9c0,1.5-0.5,2-2,2h-5.8c-1.5,0-2-0.5-2-2V97.3z"
		/>
	<path class="st0" d="M754.9,183.7c-1.5,0-2-0.5-2-2V99.9c0-1.5,0.5-2,2-2h5.9c1.5,0,1.8,0.5,1.8,2v81.8c0,1.5-0.4,2-1.8,2H754.9z"
		/>
	<path class="st0" d="M832.1,97.6c0.6-1,0.9-1.7,1.6-1.7h0.4c0.6,0,1,0.7,1.5,1.7l40.1,84.2c0.5,1.1,0,2-1.2,2h-7.1
		c-1.2,0-1.7-0.5-2.5-2l-9.6-20.8h-42.8l-9.6,20.8c-0.7,1.5-1.2,2-2.6,2h-7.1c-1.1,0-1.6-0.9-1.1-2L832.1,97.6z M852,152.6l-18-39.9
		h-0.1l-18,39.9H852z"/>
</g>
<path class="st1" d="M131.3,228.6"/>
<g>
	<polygon class="st0" points="269.3,223.4 75.9,223.4 75.9,152.2 86.4,152.2 86.4,212.9 258.9,212.9 258.9,66.5 86.4,66.5 
		86.4,126.5 75.9,126.5 75.9,56.1 269.3,56.1 	"/>
</g>
<path class="st0" d="M430,143.6c0.1-0.2,0.3-0.3,0.6-0.3c3.8,0,7.5,0,11.3,0c0,0,0,0,0,0c2.3,0,4.7,0,7,0c1.5,0,3,0,4.5,0
	c0.2,0,0.2-0.1,0.3-0.2c0.1-0.3,0.1-0.6,0.2-0.9c0-0.1,0-0.1,0-0.2c-0.1-0.4-0.2-0.7-0.3-1.1c0-0.1-0.1-0.2-0.2-0.2
	c-0.2,0-0.5,0-0.7,0c-2.7,0-5.3,0-8,0c-3.2,0-6.3,0-9.5-0.1c-1.5,0-3.1,0-4.6,0c-0.2,0-0.4-0.1-0.5-0.3c0,0-0.1-0.1-0.1-0.1
	c-0.9-1.1-2-1.4-3.3-0.9c-0.6,0.2-1,0.6-1.4,1.1c-0.1,0.1-0.1,0.1-0.3,0.1c-0.4,0-0.8,0-1.2,0.1c-0.4,0-0.4,0-0.5,0.4
	c-0.1,0.7-0.1,1.4,0,2.1c0,0.2,0.1,0.3,0.3,0.3c0,0,0.1,0,0.1,0c0.4,0,0.8,0,1.3,0c0.1,0,0.2,0,0.3,0.2c0.5,0.8,1.2,1.3,2.3,1.4
	C428.6,145,429.4,144.6,430,143.6z M426.3,142c0-0.7,0.5-1.2,1.2-1.2c0.7,0,1.2,0.5,1.2,1.2s-0.5,1.2-1.2,1.2
	C426.8,143.2,426.3,142.6,426.3,142z"/>
<path class="st0" d="M430.3,141.7c0-1.1-0.6-1.9-1.6-2.3c-0.3-0.1-0.4-0.3-0.4-0.6c0-1.7,0-3.5,0-5.2c0-2.7,0-5.3,0.1-8
	c0-2.8,0-5.5,0.1-8.3c0-2.5,0.1-5.1,0.1-7.6c0-0.4,0-0.9,0-1.3c0-0.2-0.1-0.2-0.2-0.3c-0.4-0.1-0.8-0.2-1.3,0
	c-0.3,0.1-0.3,0.1-0.3,0.4c0,1.4-0.1,2.7-0.1,4.1c-0.1,4-0.1,8-0.2,12c0,1.8,0,3.6-0.1,5.5c0,1.4,0,2.9-0.1,4.3c0,1.6,0,3.1-0.1,4.7
	c0,0.2-0.1,0.3-0.2,0.3c-0.4,0.1-0.7,0.3-0.9,0.6c-0.7,0.7-0.9,1.5-0.8,2.5c0.1,0.5,0.3,1,0.7,1.4c0.3,0.3,0.6,0.5,1,0.7
	c0.1,0.1,0.2,0.1,0.2,0.3c0,0.2,0,0.5,0,0.7c0,0.2,0,0.4,0.1,0.6c0,0.1,0.1,0.1,0.2,0.2c0.3,0,0.5,0.1,0.7,0.1c0.3,0,0.5,0,0.7,0
	c0.3,0,0.3-0.1,0.3-0.3c0-0.1,0-0.1,0-0.2c0-0.3,0-0.6,0-0.9c0-0.2,0.1-0.3,0.2-0.3C429.8,144,430.3,143,430.3,141.7z M427.3,143
	c-0.6,0-1.2-0.6-1.1-1.2c0-0.6,0.6-1.2,1.2-1.1c0.6,0,1.2,0.6,1.1,1.2C428.5,142.5,428,143.1,427.3,143z"/>
</svg>
