<?xml version="1.0" encoding="utf-8"?>
<!-- Generator: Adobe Illustrator 24.0.0, SVG Export Plug-In . SVG Version: 6.00 Build 0)  -->
<svg version="1.1" id="Capa_1" xmlns="http://www.w3.org/2000/svg" xmlns:xlink="http://www.w3.org/1999/xlink" x="0px" y="0px"
	 viewBox="0 0 154.8 155.5" style="enable-background:new 0 0 154.8 155.5;" xml:space="preserve">
<style type="text/css">
	.st0{fill:#FFFFFE;}
	.st1{fill:#FFFFFF;}
</style>
<path class="st0" d="M131.5,3.6H27c-12.3,0-22.3,10-22.3,22.3v104c0,12.3,10,22.3,22.3,22.3h104.5c12.3,0,22.3-10,22.3-22.3v-104
	C153.8,13.6,143.8,3.6,131.5,3.6z M141.5,126.5c0,6.5-5.3,11.8-11.8,11.8H28.8c-6.5,0-11.8-5.3-11.8-11.8V27.6
	c0-6.5,5.3-11.8,11.8-11.8h100.9c6.5,0,11.8,5.3,11.8,11.8V126.5z"/>
<path class="st0" d="M80,40.5c-20.9,0-37.9,17-37.9,37.9s17,37.9,37.9,37.9c20.9,0,37.9-17,37.9-37.9S101,40.5,80,40.5z M80,103.4
	C66.2,103.4,55,92.2,55,78.4S66.2,53.3,80,53.3s25.1,11.2,25.1,25.1S93.9,103.4,80,103.4z"/>
<circle class="st0" cx="120.5" cy="35.8" r="10.2"/>
</svg>
