<svg id="Capa_1" data-name="Capa 1" xmlns="http://www.w3.org/2000/svg" viewBox="0 0 204.41 253.11"><defs><style>.cls-1{fill:#175e5c;}</style></defs><title>lluvia</title><path class="cls-1" d="M603.3,516.65h0l-60.43,0h-.26c-8.72.56-11.77,7.49-11.69,11.94l-.07,72.92a4.34,4.34,0,0,1-1,2.54,2.62,2.62,0,0,1-2.17.64,2.92,2.92,0,0,1-3.23-3.17l.27-73.51a3.17,3.17,0,0,0,0-.44,12.65,12.65,0,0,0-10-11,3.86,3.86,0,0,0-.84-.09l-28.53-.06-38.54.24v-3.21a7.5,7.5,0,1,0-15,0v.12c-9.39-3.83-20.1-12.41-20.72-31.66,0-.15.22-15.47,11-25.67,7.1-6.69,17.3-9.73,30.33-9a4,4,0,0,0,3.62-1.82,4.1,4.1,0,0,0,.29-4.05,23.08,23.08,0,0,1,.22-18.82,20.72,20.72,0,0,1,10.76-10.08,24,24,0,0,1,17.61-.1,4.09,4.09,0,0,0,5.44-4.37c-.12-1-2.73-23.78,17.38-35.23,15.8-9,31.48-3.61,40.11,3.74a8,8,0,0,1,2.48,3.31,4.09,4.09,0,1,0,7.73-2.7,16,16,0,0,0-4.9-6.84c-10.64-9.08-30-15.73-49.48-4.63-18.28,10.42-21.37,28.23-21.65,37.47a31.69,31.69,0,0,0-17.8,1.76,28.6,28.6,0,0,0-15.05,14.1,30.57,30.57,0,0,0-2.17,20c-12.63.32-22.89,4.12-30.54,11.33C403.24,462.84,403,481.08,403,482c.82,25.79,16.68,36,28.9,40.13v12.93a7.5,7.5,0,0,0,15,0V524.83l38.56-.24,28,.06a4.55,4.55,0,0,1,3.18,3.61l-.28,73.28c0,4.51,3,11.27,11.32,11.37h.19a10.76,10.76,0,0,0,7.83-3,12.52,12.52,0,0,0,3.4-8.37l.07-72.91c0-1.59.73-3.52,3.91-3.77l60.29,0a4.1,4.1,0,0,0,0-8.19Z" transform="translate(-402.98 -359.8)"/><path class="cls-1" d="M479.17,541.14a7.49,7.49,0,0,0-7.49,7.49v21.62a7.5,7.5,0,0,0,15,0V548.63A7.49,7.49,0,0,0,479.17,541.14Z" transform="translate(-402.98 -359.8)"/><rect class="cls-1" x="165.01" y="180.99" width="14.99" height="36.6" rx="7.49"/></svg>