<svg id="Capa_1" data-name="Capa 1" xmlns="http://www.w3.org/2000/svg" viewBox="0 0 627.78 206.28"><defs><style>.cls-1{fill:#fff;}.cls-2{fill:#b3b2b8;}</style></defs><title>LOGO PORTAFOLIO</title><path class="cls-1" d="M367.64,506.84A11.78,11.78,0,0,1,355.9,518.4c-4.48,0-8.2-2.24-11.18-6.53l-27.58-39.13H295.71v32.8c0,7.27-5.4,12.86-12.49,12.86a12.49,12.49,0,0,1-12.66-12.86V405.85c0-7.27,5.4-12.68,12.85-12.68H317c26.28,0,44.16,16,44.16,39.51,0,14.91-7.26,27-19.19,33.91l22.18,30.75C366.33,500.7,367.64,503.86,367.64,506.84Zm-71.93-56.27h21.05c11.56,0,18.64-6.89,18.64-17.7,0-10.63-7.27-17.52-18.64-17.52H295.71Z" transform="translate(-270.56 -374.17)"/><path class="cls-1" d="M466.4,461.38v44.35c0,7.26-5.22,12.48-12.11,12.48a12.08,12.08,0,0,1-12.11-9.69c-6.71,6.34-16,9.88-27,9.88-19,0-31.86-11.18-31.86-27.58,0-16.59,13.23-26.83,34.85-26.83h23.1v-4.11c0-10.24-6.15-16.2-17.32-16.2-6.53,0-12.3,2.23-17.71,6.89-3,2.23-5,3-7.45,3A10.47,10.47,0,0,1,388,443.3c0-3.54,1.86-6.89,5.22-10.06,7.82-7.27,19.94-11.37,33.35-11.37C451.87,421.87,466.4,436.22,466.4,461.38Zm-25.16,20.31v-1.12H421.49c-8.38,0-12.85,3.17-12.85,9.32s5,10.06,13.23,10.06C432.86,500,441.24,492.12,441.24,481.69Z" transform="translate(-270.56 -374.17)"/><path class="cls-1" d="M521.56,390.38c0,8.39-7.27,15.09-15.84,15.09s-15.66-6.7-15.66-15.09a15.44,15.44,0,0,1,15.66-15.28C514.29,375.1,521.56,381.81,521.56,390.38ZM493.24,505.54v-71a12.58,12.58,0,1,1,25.15,0v71a12.49,12.49,0,0,1-12.67,12.86C498.64,518.4,493.24,512.81,493.24,505.54Z" transform="translate(-270.56 -374.17)"/><path class="cls-1" d="M630.75,459v46.58c0,7.45-5.22,12.86-12.48,12.86-7.09,0-12.49-5.59-12.49-12.86V462.31c0-10.62-6.89-17.89-17.14-17.89s-17.52,7.45-17.52,17.89v43.23c0,7.45-5.41,12.86-12.48,12.86A12.5,12.5,0,0,1,546,505.54v-71a12.31,12.31,0,0,1,12.49-12.67,12,12,0,0,1,11.74,9.51c6.52-6,15.65-9.51,25.9-9.51C617.15,421.87,630.75,436.41,630.75,459Z" transform="translate(-270.56 -374.17)"/><path class="cls-1" d="M687,411.06v12.86h11.55a10.62,10.62,0,1,1,0,21.24H687v60.38c0,7.45-5.41,12.86-12.49,12.86a12.5,12.5,0,0,1-12.67-12.86V445.16h-4.1a10.62,10.62,0,1,1,0-21.24h4.1V408.83c0-21.8,12.86-34.66,34.29-34.66a25.63,25.63,0,0,1,11.92,2.42,10.53,10.53,0,0,1,6.34,10.06c0,6.15-4.29,10.25-11,10.25-.74,0-1.67-.18-3-.18C691.87,396.72,687,401.93,687,411.06Z" transform="translate(-270.56 -374.17)"/><path class="cls-1" d="M817.65,470c0,26.83-22,48.26-49.75,48.26-27.58,0-49.2-21.24-49.2-48.26s21.62-48.08,49.38-48.08C795.66,421.87,817.65,443.12,817.65,470Zm-73.42.18c0,14.54,10.06,25,23.85,25,13.61,0,23.86-10.62,23.86-25,0-14.53-10.25-25.34-23.86-25.34C754.29,444.79,744.23,455.41,744.23,470.13Z" transform="translate(-270.56 -374.17)"/><path class="cls-1" d="M898.33,434.17c0,6.71-4.66,11.37-11.73,12.11C873.18,447.21,865,456,865,470.13v35.41c0,7.45-5.41,12.86-12.49,12.86a12.5,12.5,0,0,1-12.67-12.86v-71a12.31,12.31,0,0,1,12.49-12.67,12.07,12.07,0,0,1,12.11,11.37A30.06,30.06,0,0,1,887,422.8C893.67,422.8,898.33,427.28,898.33,434.17Z" transform="translate(-270.56 -374.17)"/><path class="cls-2" d="M373.94,574.65a1.36,1.36,0,0,1,.94-.4,1.28,1.28,0,0,1,.8.31c2.85,2.19,5.54,3.29,8.19,3.29a10,10,0,0,0,5.89-1.75,5.55,5.55,0,0,0,2.39-4.79c0-9.83-18.06-6.34-18.06-18,0-5,3.89-8.73,10.23-8.73a15,15,0,0,1,8.48,2.54,1.11,1.11,0,0,1,.5,1,1.49,1.49,0,0,1-.25.75,1.23,1.23,0,0,1-1.05.55,1.4,1.4,0,0,1-.74-.2,13.09,13.09,0,0,0-6.84-2c-4.59,0-7.44,2.4-7.44,6.14,0,9.73,18.07,5.79,18.07,17.92a8,8,0,0,1-3.2,6.64,12.36,12.36,0,0,1-7.93,2.54,16.2,16.2,0,0,1-10-4,1,1,0,0,1-.35-.85A1.24,1.24,0,0,1,373.94,574.65Z" transform="translate(-270.56 -374.17)"/><path class="cls-2" d="M400.69,568.76a11.36,11.36,0,0,1,3.29-8.38,12.59,12.59,0,0,1,17,0,12.3,12.3,0,0,1,0,16.77,11.78,11.78,0,0,1-20.26-8.39Zm2.75,0A9.08,9.08,0,0,0,406,575.4a8.6,8.6,0,0,0,6.49,2.6,8.73,8.73,0,0,0,6.54-2.6,10,10,0,0,0-.05-13.27,9.34,9.34,0,0,0-12.93,0A8.91,8.91,0,0,0,403.44,568.76Z" transform="translate(-270.56 -374.17)"/><path class="cls-2" d="M440.72,577.6a1.19,1.19,0,0,1,.2.6.93.93,0,0,1-.5.89,8.1,8.1,0,0,1-4.34,1.2c-3.25,0-4.84-2-4.84-6.09V546.3a1.3,1.3,0,0,1,2.59,0v26.51c0,3.44.85,5,3.2,5a5.63,5.63,0,0,0,2.19-.55,2,2,0,0,1,.65-.2A1,1,0,0,1,440.72,577.6Z" transform="translate(-270.56 -374.17)"/><path class="cls-2" d="M462.58,558.68a1.3,1.3,0,0,1,2.6,0V579a1.23,1.23,0,0,1-1.35,1.24,1.17,1.17,0,0,1-1.25-1.24v-2.5a11.39,11.39,0,0,1-8.53,4c-5.74,0-8.59-3.29-8.59-9.88V558.68a1.3,1.3,0,0,1,2.6,0V570c0,5.34,2.29,8,6.93,8a10.38,10.38,0,0,0,7.59-3.9Z" transform="translate(-270.56 -374.17)"/><path class="cls-2" d="M483.79,559.53a8.53,8.53,0,0,0-6.24,2.64,9,9,0,0,0-2.59,6.59,8.79,8.79,0,0,0,2.65,6.69,9.2,9.2,0,0,0,6.68,2.55,9.06,9.06,0,0,0,6.09-2.3,1.25,1.25,0,0,1,.9-.4,1.18,1.18,0,0,1,.85,2,11,11,0,0,1-8,3.14,11.7,11.7,0,0,1-8.53-3.19,11.12,11.12,0,0,1-3.34-8.49,11.57,11.57,0,0,1,3.19-8.33,10.52,10.52,0,0,1,8-3.34,13.88,13.88,0,0,1,8,2.09,1.16,1.16,0,0,1,.45,1,1.2,1.2,0,0,1-.3.75,1.41,1.41,0,0,1-1,.45,1.66,1.66,0,0,1-.8-.25A10.43,10.43,0,0,0,483.79,559.53Z" transform="translate(-270.56 -374.17)"/><path class="cls-2" d="M501.31,550.64a1.75,1.75,0,0,1-1.84-1.84,1.77,1.77,0,0,1,3.54,0A1.69,1.69,0,0,1,501.31,550.64Zm1.2,28.31a1.3,1.3,0,0,1-2.59,0V558.68a1.23,1.23,0,0,1,1.34-1.25,1.18,1.18,0,0,1,1.25,1.25Z" transform="translate(-270.56 -374.17)"/><path class="cls-2" d="M510.75,568.76a11.33,11.33,0,0,1,3.29-8.38,12.59,12.59,0,0,1,17,0,12.3,12.3,0,0,1,0,16.77,12.59,12.59,0,0,1-17,0A11.35,11.35,0,0,1,510.75,568.76Zm2.74,0A9.09,9.09,0,0,0,516,575.4a8.59,8.59,0,0,0,6.49,2.6,8.69,8.69,0,0,0,6.53-2.6,10,10,0,0,0,0-13.27,9.34,9.34,0,0,0-12.93,0A9,9,0,0,0,513.49,568.76Z" transform="translate(-270.56 -374.17)"/><path class="cls-2" d="M543.89,579a1.3,1.3,0,0,1-2.6,0V558.68a1.3,1.3,0,0,1,2.6,0v2a11.57,11.57,0,0,1,8.08-3.55c6.19,0,9.39,3.1,9.39,10V579a1.3,1.3,0,0,1-2.6,0V567.67c0-5.39-2.44-8.09-7.38-8.09a10.13,10.13,0,0,0-7.49,3.45Z" transform="translate(-270.56 -374.17)"/><path class="cls-2" d="M589.86,568.32a1.12,1.12,0,0,1-1.05,1H571.24c.2,5.39,3.8,8.69,9.19,8.69a10.19,10.19,0,0,0,6.09-2,1.27,1.27,0,0,1,.69-.25,1.3,1.3,0,0,1,1,.5,1.33,1.33,0,0,1,.25.7,1.07,1.07,0,0,1-.35.8,12.35,12.35,0,0,1-7.83,2.64,11.87,11.87,0,0,1-8.64-3.19,11.31,11.31,0,0,1-3.29-8.49,11.81,11.81,0,0,1,3-8.38c2-2.2,4.79-3.29,8.34-3.29a10.1,10.1,0,0,1,7.28,2.79,9.62,9.62,0,0,1,2.9,7.34A6.48,6.48,0,0,1,589.86,568.32Zm-2.6-1.15c0-4.75-3-7.64-7.78-7.64s-7.94,3.1-8.39,7.64Z" transform="translate(-270.56 -374.17)"/><path class="cls-2" d="M596.5,576a1.61,1.61,0,0,1,.9.35,9,9,0,0,0,5.64,1.85c2.79,0,5-1.45,5-4,0-5.59-12.43-2.89-12.43-11.07,0-3.6,2.89-5.94,7.24-5.94a11.43,11.43,0,0,1,6.39,1.74,1,1,0,0,1,.39.85,1.08,1.08,0,0,1-.24.75,1.14,1.14,0,0,1-.9.45,1.66,1.66,0,0,1-.8-.25,9,9,0,0,0-4.79-1.25c-2.75,0-4.55,1.6-4.55,3.59,0,5.9,12.43,3.2,12.43,11,0,4.19-3.49,6.43-8.09,6.43a9.82,9.82,0,0,1-7-2.49,1.07,1.07,0,0,1-.35-.8A1.21,1.21,0,0,1,596.5,576Z" transform="translate(-270.56 -374.17)"/><path class="cls-2" d="M636,573.66a13.81,13.81,0,0,0,10.49,4.19c3.84,0,8.18-1.45,10.38-3.65v-8.53h-9a1.3,1.3,0,0,1,0-2.6H658a1.44,1.44,0,0,1,1.44,1.45V574.9a1.63,1.63,0,0,1-.59,1.3,16,16,0,0,1-5.8,3.1,20.66,20.66,0,0,1-6.68,1.14c-5.24,0-9.44-1.64-12.58-4.89S629,568,629,562.53a18.28,18.28,0,0,1,4.74-12.83A15.83,15.83,0,0,1,646,544.61a17.45,17.45,0,0,1,9.83,2.59,1.32,1.32,0,0,1,.6,1.1,2.92,2.92,0,0,1-.25.65,1.16,1.16,0,0,1-1,.6,1.19,1.19,0,0,1-.6-.2,14.56,14.56,0,0,0-8.28-2.15,13.55,13.55,0,0,0-10.38,4.3,15.56,15.56,0,0,0-4,11C631.93,567.17,633.28,570.86,636,573.66Z" transform="translate(-270.56 -374.17)"/><path class="cls-2" d="M669.87,579a1.3,1.3,0,0,1-2.6,0V558.68a1.3,1.3,0,0,1,2.6,0v1.85a6.93,6.93,0,0,1,6-3.4,8.05,8.05,0,0,1,2.59.4,1.13,1.13,0,0,1,.8,1.15,1.3,1.3,0,0,1-.15.55A1.19,1.19,0,0,1,678,560a1.87,1.87,0,0,1-.69-.15,6.41,6.41,0,0,0-1.95-.25c-2.25,0-4,1.2-5.49,3.64Z" transform="translate(-270.56 -374.17)"/><path class="cls-2" d="M691.13,566.62a10,10,0,0,1,6.09,1.7,20.56,20.56,0,0,0-.45-5.39,4.81,4.81,0,0,0-.95-1.9,6.06,6.06,0,0,0-4.49-1.5,10.92,10.92,0,0,0-5,1.1,1.33,1.33,0,0,1-.6.15,1.13,1.13,0,0,1-1-.65,1.3,1.3,0,0,1-.15-.55,1.08,1.08,0,0,1,.6-1,13.64,13.64,0,0,1,6.34-1.54c6,0,8.34,3,8.34,9V579a1.19,1.19,0,0,1-1.3,1.24,1.27,1.27,0,0,1-1.3-1.24v-2.4a9,9,0,0,1-7.69,3.74c-4.19,0-6.93-2.64-6.93-6.68C682.6,569.21,686.14,566.62,691.13,566.62Zm6.09,3.94a9.65,9.65,0,0,0-5.84-1.8c-3.24,0-6,1.65-6,4.7,0,2.74,2.15,4.39,5,4.39a8.35,8.35,0,0,0,6.89-3.54Zm-1.55-25.45a1.1,1.1,0,0,1,.45.89,1.33,1.33,0,0,1-.25.65l-4.49,5.55a1,1,0,0,1-.8.34.92.92,0,0,1-.65-.2,1,1,0,0,1-.2-1.3l4.19-5.88a1,1,0,0,1,.85-.45,1.4,1.4,0,0,1,.7.24Z" transform="translate(-270.56 -374.17)"/><path class="cls-2" d="M711.24,579a1.3,1.3,0,0,1-2.59,0V554.24c0-6.39,3.29-9.63,8.83-9.63a9.68,9.68,0,0,1,5.19,1.39.91.91,0,0,1,.4.8.92.92,0,0,1-.2.65,1.07,1.07,0,0,1-.94.5,1.38,1.38,0,0,1-.65-.15,8.92,8.92,0,0,0-3.4-.75c-4.44,0-6.64,2.55-6.64,7.64v2.84h12a1.4,1.4,0,0,1,1.3,1.3V579a1.23,1.23,0,0,1-1.35,1.24A1.17,1.17,0,0,1,722,579V560H711.24Z" transform="translate(-270.56 -374.17)"/><path class="cls-2" d="M742.89,559.53a8.51,8.51,0,0,0-6.24,2.64,8.91,8.91,0,0,0-2.59,6.59,8.78,8.78,0,0,0,2.64,6.69,9.22,9.22,0,0,0,6.69,2.55,9.1,9.1,0,0,0,6.09-2.3,1.25,1.25,0,0,1,.9-.4,1.18,1.18,0,0,1,.84,2,11,11,0,0,1-8,3.14,11.71,11.71,0,0,1-8.54-3.19,11.16,11.16,0,0,1-3.34-8.49,11.61,11.61,0,0,1,3.19-8.33,10.54,10.54,0,0,1,8-3.34,13.93,13.93,0,0,1,8,2.09,1.18,1.18,0,0,1,.44,1,1.15,1.15,0,0,1-.3.75,1.38,1.38,0,0,1-1,.45,1.66,1.66,0,0,1-.8-.25A10.45,10.45,0,0,0,742.89,559.53Z" transform="translate(-270.56 -374.17)"/><path class="cls-2" d="M764.55,566.62a10,10,0,0,1,6.09,1.7,20.56,20.56,0,0,0-.45-5.39,4.81,4.81,0,0,0-1-1.9,6.06,6.06,0,0,0-4.49-1.5,10.92,10.92,0,0,0-5,1.1,1.33,1.33,0,0,1-.6.15,1.13,1.13,0,0,1-1-.65,1.3,1.3,0,0,1-.15-.55,1.08,1.08,0,0,1,.6-1,13.64,13.64,0,0,1,6.34-1.54c6,0,8.34,3,8.34,9V579a1.19,1.19,0,0,1-1.3,1.24,1.27,1.27,0,0,1-1.3-1.24v-2.4a9,9,0,0,1-7.69,3.74c-4.19,0-6.93-2.64-6.93-6.68C756,569.21,759.56,566.62,764.55,566.62Zm6.09,3.94a9.65,9.65,0,0,0-5.84-1.8c-3.24,0-6,1.65-6,4.7,0,2.74,2.15,4.39,5,4.39a8.35,8.35,0,0,0,6.89-3.54Z" transform="translate(-270.56 -374.17)"/><path class="cls-2" d="M781,576a1.59,1.59,0,0,1,.89.35,9,9,0,0,0,5.64,1.85c2.8,0,5-1.45,5-4,0-5.59-12.42-2.89-12.42-11.07,0-3.6,2.89-5.94,7.24-5.94a11.38,11.38,0,0,1,6.38,1.74.94.94,0,0,1,.4.85,1,1,0,0,1-.25.75,1.14,1.14,0,0,1-.9.45,1.66,1.66,0,0,1-.8-.25,9,9,0,0,0-4.79-1.25c-2.74,0-4.54,1.6-4.54,3.59,0,5.9,12.43,3.2,12.43,11,0,4.19-3.5,6.43-8.09,6.43a9.82,9.82,0,0,1-7-2.49,1.07,1.07,0,0,1-.35-.8A1.21,1.21,0,0,1,781,576Z" transform="translate(-270.56 -374.17)"/></svg>