<?xml version="1.0" encoding="utf-8"?>
<!-- Generator: Adobe Illustrator 24.0.0, SVG Export Plug-In . SVG Version: 6.00 Build 0)  -->
<svg version="1.1" id="Capa_1" xmlns="http://www.w3.org/2000/svg" xmlns:xlink="http://www.w3.org/1999/xlink" x="0px" y="0px"
	 viewBox="0 0 594 125.3" style="enable-background:new 0 0 594 125.3;" xml:space="preserve">
<style type="text/css">
	.st0{fill:none;stroke:#175E5C;stroke-width:3;stroke-miterlimit:10;}
</style>
<path class="st0" d="M40.2,56c9.4,0.2,16.7,4.9,23.1,11.3c2.7,2.8,5.3,5.8,8.3,8.3c7,5.9,15.9,5.7,22.7-0.3c2.9-2.6,5.5-5.5,8.3-8.3
	c14.9-14.8,33.8-15,48.9-0.4c3.1,3,5.9,6.3,9.1,9c6.8,5.8,16,5.6,22.7-0.4c2.9-2.6,5.7-5.3,8.3-8.3c12.8-14.6,35.9-15.2,50,0.6
	c2.3,2.5,4.6,5,7.1,7.3c7.1,6.5,15.9,6.8,23.3,0.6c4.9-4.2,9-9.3,14.1-13.1c13.4-9.9,30.8-8.3,42.6,3.4c3.2,3.2,6.2,6.6,9.6,9.6
	c6.7,6,16,6,22.7,0c3.7-3.3,6.9-7,10.5-10.3c12.8-12.1,31.3-12.4,44.5-0.8c3,2.7,5.7,5.7,8.5,8.6c9.2,9.4,19.4,9.3,28.6-0.2
	c2.9-3,5.7-6.1,8.8-8.8c13.6-11.5,32.1-10.7,44.7,1.9c3,2.9,5.6,6.1,8.7,8.9c8,7.1,17.2,6.9,25.1-0.4c2.7-2.5,5-5.3,7.6-7.9
	c6.5-6.5,14.1-10.5,23.5-10.4c4.9,0.1,7.8,2.7,7.9,7.2c0.1,4.5-2.6,7.5-7.5,7.6c-7.3,0.2-12,4.7-16.4,9.6
	C549,87.5,542,93.2,532,94.5c-10.8,1.4-19.9-1.8-27.6-9.2c-2.9-2.8-5.6-5.8-8.5-8.6c-8.1-7.8-17.7-7.8-25.8-0.1
	c-3.4,3.3-6.6,7-10.2,10.1c-13.7,11.8-32.5,10.8-45.3-2.1c-3.2-3.2-6.2-6.6-9.7-9.5c-6.8-5.8-15.6-5.7-22.4,0.2
	c-2.9,2.6-5.5,5.5-8.3,8.3c-14.6,14.9-34.2,15.1-49.2,0.4c-2.8-2.7-5.3-5.7-8.3-8.3c-7.8-6.7-16.5-6.6-24.1,0.2
	c-3.1,2.8-5.8,6-8.7,8.9c-13.9,13.4-33,13.4-47,0.1c-2.8-2.7-5.4-5.7-8.2-8.3c-8.2-7.7-17.7-7.6-25.8,0.1
	c-4.6,4.3-8.7,9.2-13.8,12.7c-12.9,8.9-29.6,7-40.8-4.1c-3-3-5.9-6.2-9-9.1c-8.1-7.3-17.3-7.1-25.2,0.5c-4,3.8-7.7,8-12,11.5
	c-11.7,9.4-29.1,8.9-40.4-0.9c-3.8-3.3-7.2-7.1-10.8-10.6c-3.5-3.5-7.6-5.6-12.7-5.8c-4.9-0.2-7.6-3-7.6-7.5c0.1-4.5,3-7.2,7.8-7.3
	C39.2,56,39.7,56,40.2,56z"/>
</svg>
