<?xml version="1.0" encoding="utf-8"?>
<!-- Generator: Adobe Illustrator 24.0.0, SVG Export Plug-In . SVG Version: 6.00 Build 0)  -->
<svg version="1.1" id="Capa_1" xmlns="http://www.w3.org/2000/svg" xmlns:xlink="http://www.w3.org/1999/xlink" x="0px" y="0px"
	 viewBox="0 0 820.8 496.8" style="enable-background:new 0 0 820.8 496.8;" xml:space="preserve">
<style type="text/css">
	.st0{fill:#FFFFFF;}
</style>
<g>
	<path class="st0" d="M950.8-1657.4c0,4,3.6,6.9,8.5,6.9c5,0,8.7-1.8,11.3-5.1v-5.5c-2.8-2-6.5-3-11.3-3
		C954.4-1664.2,950.8-1661.6,950.8-1657.4z"/>
	<path class="st0" d="M1118.2-1657.4c0,4,3.6,6.9,8.5,6.9c5,0,8.7-1.8,11.3-5.1v-5.5c-2.8-2-6.5-3-11.3-3
		C1121.7-1664.2,1118.2-1661.6,1118.2-1657.4z"/>
	<path class="st0" d="M1227-1706.9c-21.5-86.2-101.7-75.3-102.2-75.3c-14.4,1.5-25.7,6.2-33.4,10.5c-5.8,3.2-13.3,2-17.3-3.3
		c-4.6-6.1-10.3-10.6-15.9-13.8c-9.8-5.8-21.2-8.5-32.6-8.5l-275.9-0.5c-20.8,0-41.4,4.3-59.6,13.2c-27.3,13.4-56.7,39.9-56.7,92.4
		c0,48.9,25.8,76.2,51.5,91.2c20.4,11.9,44.4,17.8,68.7,17.7l354.1-0.5c34.4,0,67.6-12.3,91.2-34.6
		C1230.3-1648.1,1232-1682,1227-1706.9z M791.2-1632.1c-8.9,4.6-19.4,6.9-31.7,6.9c-21.6,0-39-6.5-52.5-19.8
		c-13.5-13.1-20.2-30.3-20.2-51.9c0-20.8,6.3-38,19-51.5c12.7-13.5,30.5-20.2,53.5-20.2c11.3,0,20.6,1.8,27.7,5.5
		c6.9,3.8,10.5,8.3,10.5,13.7c0,2.6-0.6,4.9-2,7.5c-2.8,4.8-6.7,7.1-12.1,7.1c-2.2,0-4.8-0.6-7.7-1.6c-5-1.8-10.3-2.6-16.4-2.6
		c-11.3,0-20.4,3.8-27.7,11.1c-7.3,7.3-11.1,17.6-11.1,30.9c0,12.3,4,22.4,11.7,30.1c7.7,7.9,17.8,11.9,30.3,11.9
		c5.7,0,10.9-1,15.8-2.8c3.2-1.4,6.3-2,9.3-2c5.3,0,9.1,2.4,11.5,6.9c1.2,2.4,1.8,4.8,1.8,6.9C800.9-1640,797.7-1635.4,791.2-1632.1
		z M905.1-1639.4c0,7.7-6.3,13.9-14.9,13.9s-14.9-6.1-14.9-13.9v-36.6c0-8.7-5.7-14.5-14.3-14.5c-5.7,0-10.5,2-14.3,5.7v45.4
		c0,7.7-6.3,13.9-14.9,13.9c-8.5,0-14.9-6.1-14.9-13.9v-114.9c0-7.7,6.3-13.9,14.9-13.9c8.5,0,14.9,6.1,14.9,13.9v43.8
		c5.7-5.2,13.1-7.7,22-7.7c22.2,0,36.2,12.1,36.2,38.4V-1639.4z M998.3-1640.2c0,8.9-5.7,14.7-12.7,14.7c-6.7,0-11.1-3.4-13.1-10.1
		c-4.2,6.7-12.1,10.1-23.4,10.1c-16.4,0-28.1-11.3-28.1-28.9c0-19.2,13.3-29.5,32.1-29.5c7.3,0,13.3,1.6,17.4,5v-1.8
		c0-8.9-4.2-13.5-12.3-13.5c-4.2,0-8.3,0.6-12.5,1.8c-0.8,0.2-2,0.4-3.4,0.4c-5.4,0-9.1-2.8-10.9-8.3c-0.4-1-0.6-2.2-0.6-3.2
		c0-5,4-9.9,9.5-12.1c5.9-2.2,12.9-3.4,20.8-3.4c26.3,0,37,12.7,37,37.8V-1640.2z M1063.9-1629.1c-5.7,2.6-12.1,4-18.8,4
		c-19.6,0-27.7-12.5-27.7-36.2v-68.1c0-7.7,6.3-13.9,14.9-13.9c8.5,0,14.9,6.1,14.9,13.9v12.9h10.9c7.3,0,13.9,6.5,13.9,13.9
		s-6.5,13.9-13.9,13.9h-10.9v25.8c0,6.5,2,9.9,5.7,9.9c1.6,0,3-0.2,4.2-0.4c1.8-0.2,3-0.4,3.6-0.4c5,0,8.5,2.6,10.7,7.7
		c0.8,1.8,1.2,3.6,1.2,5.3C1072.4-1635.6,1069.7-1631.7,1063.9-1629.1z M1165.7-1640.2c0,8.9-5.7,14.7-12.7,14.7
		c-6.7,0-11.1-3.4-13.1-10.1c-4.2,6.7-12.1,10.1-23.4,10.1c-16.4,0-28.1-11.3-28.1-28.9c0-19.2,13.3-29.5,32.1-29.5
		c7.3,0,13.3,1.6,17.4,5v-1.8c0-8.9-4.2-13.5-12.3-13.5c-4.2,0-8.3,0.6-12.5,1.8c-0.8,0.2-2,0.4-3.4,0.4c-5.4,0-9.1-2.8-10.9-8.3
		c-0.4-1-0.6-2.2-0.6-3.2c0-5,4-9.9,9.5-12.1c5.9-2.2,12.9-3.4,20.8-3.4c26.3,0,37,12.7,37,37.8V-1640.2z"/>
</g>
<g>
	<path class="st0" d="M753.4-1552.3c-11.2,0-22.3-1.1-33.1-3.3c-23.6-4.7-36.1-10.5-55.3-21.8l-0.3-0.2
		c-42.2-27.7-62.6-65.4-62.6-115.2l0-0.6c4.7-68.2,33.2-94.4,63.3-112.5c15.5-8.5,26-14,44.1-18.4c11.2-2.7,30.2-5.1,42.5-4.9
		l274.4,1.2c0.6,0,1.2,0,1.8,0c37.4,0,52.5,18,57.3,25.9l0,0c0.6,0.9,1.6,1.4,2.1,1.2c18.1-8.2,59.9-27.3,118,9.1l0.3,0.2
		c20,13.6,34.5,31.9,44.4,55.8c6.8,16.4,10.3,32.9,10.3,48.9c0,31-11.6,59.3-34.5,84.1c-19.7,21.3-38.5,33.3-64.9,41.4
		c-18.4,5.6-38.3,8.5-59.2,8.5l-348.2,0.5C753.6-1552.3,753.5-1552.3,753.4-1552.3z M673.2-1591c18.7,10.9,29.1,15.6,50.2,19.8
		c9.8,2,19.9,2.9,30,2.9c0.1,0,0.2,0,0.2,0l348.2-0.5c19.3,0,37.7-2.7,54.5-7.8c23.8-7.3,40-17.6,57.9-37
		c20.4-22.1,30.3-46.1,30.3-73.3c0-13.9-3.1-28.4-9.1-42.8c-8.8-21.2-21.1-36.7-38.6-48.6c-50.8-31.7-85.8-15.8-102.6-8.1
		c-0.7,0.3-1.5,0.6-2.3,0.9c-7.6,2.3-16-1-20.3-8.1l0,0c-2.6-4.3-13.5-18.3-43.9-18.3c-0.5,0-1,0-1.5,0l-274.5-1.2
		c-0.1,0-0.1,0-0.2,0c-10.9,0-28.5,2-38.5,4.5c-16.5,4-25.9,9-39.9,16.7c-30.2,18.2-51.3,42.2-55.3,99.5
		C618-1634.1,649.5-1606.6,673.2-1591z"/>
</g>
<g>
	<path class="st0" d="M451.8,287.4c0,4.4,3.9,7.6,9.4,7.6s9.6-2,12.4-5.7v-6.1c-3-2.2-7.2-3.3-12.4-3.3
		C455.7,280,451.8,282.8,451.8,287.4z"/>
	<path class="st0" d="M635.7,287.4c0,4.4,3.9,7.6,9.4,7.6s9.6-2,12.4-5.7v-6.1c-3-2.2-7.2-3.3-12.4-3.3
		C639.6,280,635.7,282.8,635.7,287.4z"/>
	<path class="st0" d="M755.3,233c-23.6-94.7-111.7-82.8-112.3-82.7c-15.8,1.6-28.3,6.8-36.7,11.5c-6.4,3.6-14.6,2.2-19-3.7
		c-5.1-6.7-11.3-11.6-17.4-15.2c-10.8-6.4-23.3-9.3-35.9-9.4L230.9,133c-22.9,0-45.5,4.7-65.5,14.5c-30,14.7-62.3,43.9-62.3,101.5
		c0,53.8,28.3,83.7,56.6,100.2c22.4,13,48.8,19.5,75.5,19.5l389.1-0.5c37.8-0.1,74.3-13.5,100.2-38
		C758.9,297.6,760.8,260.4,755.3,233z M276.3,315.2c-9.8,5-21.3,7.6-34.8,7.6c-23.7,0-42.9-7.2-57.7-21.8
		c-14.8-14.4-22.2-33.3-22.2-57c0-22.9,7-41.8,20.9-56.6c13.9-14.8,33.5-22.2,58.8-22.2c12.4,0,22.6,2,30.5,6.1
		c7.6,4.1,11.5,9.1,11.5,15c0,2.8-0.7,5.4-2.2,8.3c-3,5.2-7.4,7.8-13.3,7.8c-2.4,0-5.2-0.7-8.5-1.7c-5.4-2-11.3-2.8-18.1-2.8
		c-12.4,0-22.4,4.1-30.5,12.2c-8.1,8.1-12.2,19.4-12.2,34c0,13.5,4.4,24.6,12.8,33.1c8.5,8.7,19.6,13.1,33.3,13.1
		c6.3,0,12-1.1,17.4-3c3.5-1.5,7-2.2,10.2-2.2c5.9,0,10,2.6,12.6,7.6c1.3,2.6,2,5.2,2,7.6C287,306.5,283.5,311.5,276.3,315.2z
		 M401.5,307.2c0,8.5-7,15.2-16.3,15.2c-9.4,0-16.3-6.8-16.3-15.2v-40.3c0-9.6-6.3-15.9-15.7-15.9c-6.3,0-11.5,2.2-15.7,6.3v49.8
		c0,8.5-7,15.2-16.3,15.2c-9.4,0-16.3-6.8-16.3-15.2V180.9c0-8.5,7-15.2,16.3-15.2c9.4,0,16.3,6.8,16.3,15.2V229
		c6.3-5.7,14.4-8.5,24.2-8.5c24.4,0,39.8,13.3,39.8,42.2V307.2z M504,306.3c0,9.8-6.3,16.1-13.9,16.1c-7.4,0-12.2-3.7-14.4-11.1
		c-4.6,7.4-13.3,11.1-25.7,11.1c-18.1,0-30.9-12.4-30.9-31.8c0-21.1,14.6-32.4,35.3-32.4c8.1,0,14.6,1.7,19.2,5.4v-2
		c0-9.8-4.6-14.8-13.5-14.8c-4.6,0-9.1,0.7-13.7,2c-0.9,0.2-2.2,0.4-3.7,0.4c-5.9,0-10-3-12-9.1c-0.4-1.1-0.7-2.4-0.7-3.5
		c0-5.4,4.4-10.9,10.4-13.3c6.5-2.4,14.2-3.7,22.9-3.7c28.9,0,40.7,13.9,40.7,41.6V306.3z M576,318.5c-6.3,2.8-13.3,4.4-20.7,4.4
		c-21.5,0-30.5-13.7-30.5-39.8v-74.9c0-8.5,7-15.2,16.3-15.2s16.3,6.7,16.3,15.2v14.1h12c8.1,0,15.2,7.2,15.2,15.2
		c0,8.1-7.2,15.2-15.2,15.2h-12V281c0,7.2,2.2,10.9,6.3,10.9c1.7,0,3.3-0.2,4.6-0.4c2-0.2,3.3-0.4,3.9-0.4c5.4,0,9.4,2.8,11.8,8.5
		c0.9,2,1.3,3.9,1.3,5.9C585.4,311.3,582.4,315.7,576,318.5z M687.9,306.3c0,9.8-6.3,16.1-13.9,16.1c-7.4,0-12.2-3.7-14.4-11.1
		c-4.6,7.4-13.3,11.1-25.7,11.1c-18.1,0-30.9-12.4-30.9-31.8c0-21.1,14.6-32.4,35.3-32.4c8.1,0,14.6,1.7,19.2,5.4v-2
		c0-9.8-4.6-14.8-13.5-14.8c-4.6,0-9.1,0.7-13.7,2c-0.9,0.2-2.2,0.4-3.7,0.4c-5.9,0-10-3-12-9.1c-0.4-1.1-0.7-2.4-0.7-3.5
		c0-5.4,4.4-10.9,10.4-13.3c6.5-2.4,14.2-3.7,22.9-3.7c28.9,0,40.7,13.9,40.7,41.6V306.3z"/>
</g>
<g>
	<path class="st0" d="M234.8,402.9c-12.3,0-24.5-1.2-36.4-3.6c-25.9-5.2-39.7-11.6-60.8-23.9l-0.4-0.2
		C91,344.7,68.4,303.3,68.4,248.6l0-0.6c5.2-75,36.5-103.7,69.5-123.6c17-9.4,28.6-15.3,48.5-20.2c12.3-3,33.2-5.6,46.7-5.4
		l301.5,1.4c0.7,0,1.3,0,2,0c41.1,0,57.7,19.8,63,28.4l0,0c0.6,1,1.7,1.5,2.3,1.3c19.9-9.1,65.8-30,129.7,10l0.3,0.2
		c21.9,15,37.9,35,48.8,61.3c7.5,18,11.3,36.1,11.3,53.8c0.1,34.1-12.7,65.2-37.9,92.4c-21.7,23.5-42.4,36.6-71.4,45.5
		c-20.2,6.2-42,9.3-65,9.3l-382.7,0.6C235,402.9,234.9,402.9,234.8,402.9z M146.7,360.4c20.5,12,32,17.1,55.2,21.8
		c10.7,2.1,21.8,3.2,33,3.2c0.1,0,0.2,0,0.2,0l382.7-0.6c21.2,0,41.4-2.9,59.9-8.6c26.1-8,44-19.4,63.6-40.6
		c22.4-24.3,33.3-50.6,33.3-80.5c0-15.3-3.4-31.2-10-47.1c-9.7-23.3-23.1-40.3-42.4-53.4c-55.9-34.9-94.3-17.4-112.7-8.9
		c-0.8,0.4-1.6,0.7-2.5,0.9c-8.3,2.6-17.6-1.1-22.3-8.9l0,0c-2.9-4.8-14.9-20.1-48.2-20.1c-0.6,0-1.1,0-1.7,0l-301.7-1.4
		c-0.1,0-0.1,0-0.2,0c-12,0-31.3,2.2-42.3,4.9c-18.1,4.4-28.5,9.9-43.9,18.4c-33.2,20-56.3,46.3-60.8,109.4
		C86,313,120.6,343.2,146.7,360.4z"/>
</g>
</svg>
